<?xml version="1.0" standalone="no"?>
<!DOCTYPE svg PUBLIC "-//W3C//DTD SVG 1.1//EN" "http://www.w3.org/Graphics/SVG/1.1/DTD/svg11.dtd" >
<svg xmlns="http://www.w3.org/2000/svg" xmlns:xlink="http://www.w3.org/1999/xlink" version="1.1">
<metadata></metadata>
<defs>
<font id="the_constellation_of_heraclIt" horiz-adv-x="368" >
<font-face units-per-em="2048" ascent="1536" descent="-512" />
<missing-glyph horiz-adv-x="481" />
<glyph horiz-adv-x="0" />
<glyph horiz-adv-x="682" />
<glyph unicode=" "  horiz-adv-x="481" />
<glyph unicode="&#x09;" horiz-adv-x="481" />
<glyph unicode="&#xa0;" horiz-adv-x="481" />
<glyph unicode="!" horiz-adv-x="659" d="M53 -104q2 4 3 8t3 8l4 8l9 10h4q4 0 10 -4q15 -8 31 -16q10 -8 10 -10q0 -8 -6 -15l-2 -4q0 -2 2 -4v-2q0 -6 -6 -13t-13 -12l-24 -16l-17 31q-2 2 -6 10v2q-2 6 -2 19zM123 -39q80 166 155.5 328t136 294t100.5 222t50 113q10 20 12 26t25 10q12 2 19.5 -4t9.5 -16 t0 -20.5t-4 -18.5q-4 -12 -32 -77.5t-84 -183.5t-147.5 -286t-222.5 -385q-8 -12 -12 -12q-6 0 -6 10z" />
<glyph unicode="$" horiz-adv-x="686" d="M63 330q0 6 6.5 14t10.5 12q4 2 4 4t4 2t4 -4q0 -6 -6 -12t-8 -12h15.5t23.5 4q84 16 169 34.5t152 18.5q29 0 49.5 -3t30.5 -5q-12 12 -29.5 49t-35 80t-32.5 84t-22 61q-14 41 -27.5 80t-13.5 84q0 12 5.5 22.5t21.5 14.5q39 0 76 -18.5t65.5 -49t46 -71.5t17.5 -86 q0 -23 -4 -39t-6 -23v-2q-4 0 -9.5 -4t-13.5 -4q-4 0 -11 3t-7 9v2v-2q2 4 6 13q8 16 8 45q0 27 -9 57.5t-26.5 57t-42 47t-57.5 28.5q-16 2 -19.5 2h-5.5q0 -35 16.5 -97t38 -130t45 -128t37.5 -89q4 -6 4.5 -20.5t-12.5 -14.5q-23 0 -43 4t-49 4q-90 0 -170 -18.5 t-158 -18.5q-18 0 -28.5 2t-10.5 13zM309 248q35 113 67 223.5t56.5 201.5t39.5 151.5t20 76.5q4 12 5 17.5t13 9.5q18 4 21.5 -10.5t0.5 -24.5q-2 -10 -12 -54t-33.5 -124t-63.5 -196t-101 -265q-2 -8 -9 -8z" />
<glyph unicode="'" horiz-adv-x="141" d="M86 541q-4 4 0 10q20 18 28.5 44t11.5 49.5t5 39.5t10 16q4 0 25.5 2.5t34.5 -8.5q14 -14 5 -38.5t-29.5 -49t-45.5 -45t-39 -24.5q-2 0 -6 4z" />
<glyph unicode="*" horiz-adv-x="364" d="M76 915q-2 4 3 13.5t9 9.5l59 -12q-14 16 -20 26.5t-10 14.5q-4 6 -6 6v2q0 8 11 11t17 1q0 2 21 -24l-2 32q-2 0 -2 3t2 3q6 6 14 7v2q2 4 11.5 1t11.5 -7l4 -54l22 39q4 8 15.5 1t13.5 -13q-2 -2 -4 -6q-4 -6 -17 -31l39 14h2q2 0 2 1t2 1q10 -8 10.5 -14t-3.5 -16 q-16 -8 -27.5 -14.5t-24.5 -10.5q23 -6 35 -8t19 -4l8 -2l2 -2q4 -4 -3 -13.5t-11 -11.5q-2 0 -14.5 1t-37.5 7l35 -49q0 -4 -9 -9t-13 -3l-31 37l4 -39q2 -6 -12 -10h-2q-4 -6 -14.5 -2t-14.5 8q0 2 -1 8t-3 20l-14 -24q-2 -2 -2 -4t-3 -2q-10 0 -14 6t-8 14q12 31 25 49 l-50 -20q-6 -4 -12 8t-2 21q2 2 8 4q4 2 13.5 5t25.5 11q-10 4 -23.5 8t-33.5 10z" />
<glyph unicode="+" horiz-adv-x="659" d="M68 367q0 4 4 8q66 0 131 1t123 3q27 72 43 120l20 60q4 10 5.5 13t17.5 -1q14 -4 21 -15t9 -17q-4 -4 -16 -46t-43 -110q125 6 152 10h13t7 -18q4 -20 -6 -33q-6 -8 -12 -12q6 4 -41 -2t-142 -2q-41 -80 -104 -179q-6 -6 -8 -6q-2 2 -6 9l71 178q-49 4 -107.5 11 t-123.5 21q-6 0 -8 7zM442 539h2q0 -2 -2 0z" />
<glyph unicode="," horiz-adv-x="149" d="M-14 -123q20 18 28.5 44t11.5 49.5t5 40t10 16.5q4 0 25.5 2t33.5 -9q14 -14 5 -38.5t-29.5 -49t-45 -45t-38.5 -24.5q-2 0 -6 4t0 10z" />
<glyph unicode="-" horiz-adv-x="696" d="M90 78q0 4 4 8q80 0 159 2t142.5 5t107.5 6t54 5h13.5t7.5 -18q6 -20 -9.5 -34.5t-9.5 -10.5q6 2 -23.5 -1t-90 -4t-148.5 6t-199 30q-6 0 -8 6z" />
<glyph unicode="." horiz-adv-x="149" d="M38 -17.5q-7 17.5 1 40.5q10 18 12 18q10 0 30.5 -10.5t24.5 -20.5q0 -31 -26 -49l-23 -16q-12 20 -19 37.5z" />
<glyph unicode="/" horiz-adv-x="333" d="M-84 -39q80 166 155.5 328t136 294t100.5 222t50 113q10 20 12 26t25 10q12 2 19.5 -4t9.5 -16t0 -20.5t-4 -18.5q-4 -12 -32 -77.5t-84 -183.5t-147 -286t-223 -385q-8 -12 -12 -12q-6 0 -6 10z" />
<glyph unicode="0" horiz-adv-x="808" d="M16 139q0 57 22.5 129t61.5 146.5t90.5 150.5t108.5 141.5t115.5 116.5t113.5 78q-6 0 -12 4h-2q-31 14 -31 35v-2l-2 2q0 2 4 8t16.5 12.5t37 11.5t67.5 5q62 0 103 -31q39 -29 60.5 -82t21.5 -125q0 -70 -24 -154.5t-66 -170.5t-99 -167t-125.5 -143.5t-145.5 -101.5 t-157 -41q-43 2 -73.5 19.5t-49 44t-27 57.5t-8.5 57zM61 129q0 -59 38 -103t104 -36q106 18 201.5 98t167 187.5t112.5 230.5t41 227q0 82 -28.5 130t-94.5 48q-4 0 -14 -1t-15 -3q10 0 20.5 -13t10.5 -26q0 -8 -5 -9t-21 -9q-111 -51 -206.5 -151.5t-164 -211t-107.5 -210 t-39 -148.5z" />
<glyph unicode="1" horiz-adv-x="593" d="M12 -43q0 2 7.5 16.5t13.5 26.5q12 27 48 97.5t87 171t111.5 221t123.5 245.5q-74 -68 -148.5 -144.5t-164.5 -129.5h-2q-4 -2 -6 -2h-10q-10 0 -28.5 5t-18.5 21q0 6 7 12.5t23 18.5q106 72 212 175.5t198 207.5q31 35 46 48.5t19 13.5q41 -4 37 -21.5t-16 -46.5 q-92 -211 -212 -408.5t-239 -400.5l-65 -111q-8 -20 -17 -20l-4 2z" />
<glyph unicode="2" horiz-adv-x="765" d="M12 78q0 14 2 32.5t10.5 35t22.5 26.5t37 10q31 0 54.5 -24.5t39.5 -46.5q57 55 117.5 129.5t118 158.5t109.5 170t93 164q8 18 19.5 43t21 48.5t15.5 41t8 19.5q-39 12 -96.5 -9.5t-115.5 -56.5t-109.5 -77t-77.5 -72l-7 -4q0 -2 -15 -8.5t-32 -6.5q-25 0 -24 17 q0 10 28.5 49t122.5 110q18 14 48 37t68 43.5t83 34.5t94 14q20 0 46 -7t38 -21q20 -23 12 -60q0 -14 -25.5 -67t-68.5 -127t-99 -161t-116.5 -170t-121 -151.5t-111.5 -107.5q53 -72 89 -109.5t77 -37.5q43 0 78.5 31.5t54.5 49.5l10 13q6 6 10 6t4 -8l-6 -15 q-8 -10 -22.5 -30.5t-34 -41t-46 -36t-59.5 -15.5q-37 0 -68.5 16.5t-57 40t-47 49.5t-36.5 46l-4 4q-20 -10 -40.5 -17t-43.5 -7h-2q-45 0 -45 55zM41 82q0 -23 4 -28t6 -5q18 0 36.5 7t35.5 18q-4 4 -15.5 17t-19.5 20q-18 14 -32.5 -0.5t-14.5 -28.5z" />
<glyph unicode="3" horiz-adv-x="706" d="M16 106q0 14 4 25q4 10 11.5 18.5t19.5 8.5q8 0 15 -11q35 -45 84 -81.5t112 -36.5q45 0 93 22.5t87 59t63.5 83t24.5 91.5t-19 67.5t-45 30.5t-51.5 8t-35.5 2q-35 2 -35 10q0 4 8 7h58q86 0 151.5 85t65.5 263q0 16 -2 37.5t-12.5 40t-31 32t-55.5 13.5h-2 q-33 -2 -68.5 -11.5t-78.5 -31.5q-68 -35 -102.5 -67t-38.5 -32h-3q0 -2 -18 -2q-14 0 -27.5 7.5t-13.5 17.5q0 2 21.5 31.5t62.5 63.5t102.5 61.5t139.5 27.5q86 0 136 -37t50 -125q0 -29 -11 -92t-35 -127.5t-60.5 -114t-87.5 -51.5h-3q37 -14 58.5 -49t21.5 -76 q0 -59 -27.5 -115.5t-72.5 -100.5t-100.5 -70.5t-110.5 -26.5q-35 0 -66.5 11.5t-59.5 26.5t-49.5 33.5t-33.5 33.5q-20 23 -25.5 28.5t-5.5 7.5l-2 7v-3z" />
<glyph unicode="4" horiz-adv-x="698" d="M8 346q0 8 12 12q2 2 46.5 44t108 104.5t138 136.5t141 139.5t114.5 113.5t59 58q4 4 20.5 1t28.5 -13q12 -8 2 -31q-6 -18 -20.5 -55t-42 -100.5t-69.5 -159.5t-106 -236q59 -4 72.5 -6t13.5 -6v-4q0 -2 -2 -4h-2q-2 -2 -3 -2h-10t-28.5 -2t-56.5 -8q-39 -86 -80 -171 t-82 -171q-4 -4 -8 -18.5t-10 -14.5h-4q-2 2 -2 10q0 -2 8 23.5t23.5 72.5t40 114t59.5 151q-51 -4 -107.5 -9.5t-106 -8.5t-85 -5t-43.5 -2h-4q-4 4 -9 12q-6 12 -6 35zM53 365q80 0 161 3t171 -1q45 106 87 213.5t89 218.5q-55 -61 -128 -126t-145.5 -124.5t-135 -108.5 t-99.5 -75z" />
<glyph unicode="5" horiz-adv-x="768" d="M18 109q0 23 7.5 32t9.5 9q6 0 6 -9v-2q0 -6 -1 -14t-1 -10q0 -29 22.5 -54.5t58.5 -44t81 -30t90 -11.5q135 0 201.5 82t66.5 224q0 72 -20.5 103.5t-30.5 35.5h-2q-2 0 -3 1t-5 1h-4q-12 4 -32 6t-57.5 6t-98 13.5t-154.5 27.5q-16 16 -20.5 26.5t-4.5 22.5 q0 37 16.5 88.5t38 106.5t45 107.5t37.5 88.5q0 2 2 5q-20 6 -33.5 13t-13.5 11q0 2 26.5 -2t65.5 -12t83 -14.5t81 -6.5q23 0 52.5 4.5t60 6.5t59 -2.5t51.5 -18.5q18 -12 21.5 -32.5t-2.5 -42t-19.5 -42t-25.5 -32.5l-2 -2h-2l-8 1q-9 1 -19 4t-18.5 8t-8.5 13q0 2 4 10 q23 41 28 51.5t5 12.5q-53 0 -108.5 6t-105.5 16.5t-91 21.5t-67 21q-8 -47 -22.5 -95l-29 -96t-27 -96t-14.5 -98l54 -6t78 -9t85 -10t80 -9q61 -8 102.5 -62.5t41.5 -155.5q0 -68 -19.5 -131t-58.5 -112t-97.5 -78t-134.5 -29t-132 20.5t-93 49.5t-55.5 59.5t-18.5 53.5z " />
<glyph unicode="6" horiz-adv-x="636" d="M14 111q0 80 31 171t81 180t111.5 172t122 148.5t115.5 109.5t90 56h2q11 0 23 -4q10 -4 18 -13t8 -22q0 2 -31.5 -19.5t-78.5 -61.5t-103.5 -95t-105.5 -123q-29 -37 -69 -98t-77.5 -132t-64.5 -146.5t-27 -141.5q0 -25 7.5 -50.5t23.5 -46t43 -32.5t66 -12 q53 2 114.5 23.5t113.5 59.5t87 90t35 118q0 70 -33 101.5t-81 38.5t-102 -2t-97 -20h-3l-6 2q-6 3 -14 9t-15.5 14t-7.5 18q0 8 6.5 11.5t12.5 7.5h4q68 18 138.5 22.5t128 -13t94 -59.5t36.5 -114q0 -76 -37.5 -135.5t-97 -102.5t-131.5 -68.5t-139 -31.5 q-100 0 -145.5 53.5t-45.5 137.5z" />
<glyph unicode="7" horiz-adv-x="636" d="M12 748q0 4 2 6l2 2q4 0 7 2q2 0 3 1t3 1q14 6 58 21.5t103.5 36t125 42t122 41t94 31.5t43.5 14h3q2 0 10 -6t15 -13t13.5 -15.5t6.5 -10.5q-2 -16 -19.5 -52t-49.5 -100.5t-78 -162t-107 -236.5q20 0 45.5 -2t51.5 -4t46 -4t29 -2l28 -2q10 -4 14.5 -3t4.5 -7 q0 -4 -4 -4l-13 -5q-8 0 -30.5 -3t-55 -6t-70.5 -7t-77 -6q-18 -43 -42 -92t-47.5 -96.5t-45 -88.5t-35.5 -69q-2 -4 -8 -17.5t-10 -13.5l-5 2q-2 2 -2 10q0 4 35 100.5t105 258.5q-63 -4 -114.5 -8.5t-62.5 -4.5h-4q0 2 -6 13.5t-8 34.5q0 10 3 12t9 4h2q35 4 93.5 10 t113.5 2q31 76 65 153t64.5 144.5t56 122.5t42.5 90q-59 -14 -115.5 -29.5l-113 -31t-116 -28.5t-122.5 -23q-35 -4 -46.5 -5.5t-11.5 3.5z" />
<glyph unicode="8" horiz-adv-x="706" d="M14 160q0 123 44 199.5t98.5 119.5t103.5 60.5t59 19.5q-14 16 -20 39t-6 45q0 41 17.5 85t47 82t69.5 67.5t85 44.5q0 4 -2 7t-2 7t3 5t7 5l2 2q14 6 28.5 10.5t37.5 4.5q27 0 46 -13.5t31.5 -34t18.5 -45t6 -49.5q0 -31 -11 -71.5t-30.5 -80.5t-48.5 -73t-66 -51 q23 -33 33 -77t10 -91q0 -72 -35.5 -153t-94 -148.5t-133 -109.5t-150.5 -36q-70 10 -109 75t-39 155zM70 129q0 -119 86 -160q35 -10 74.5 4.5t79.5 45t76 74.5t64.5 91t45 95.5t16.5 89.5q0 45 -10 82.5t-29 58.5q-41 10 -84 5t-85 -23.5t-79 -48t-67 -66.5 q-12 -14 -26.5 -39t-29 -56.5t-23.5 -70.5t-9 -82zM344 618q0 -4 2 -22t6 -18l8 2q41 10 87.5 8t64.5 -21q35 25 63.5 75t38.5 103q4 16 7.5 41t1.5 48.5t-13.5 41t-36.5 19.5q0 -4 1 -6t1 -6q0 -8 -12 -13l-10 -4q-45 -18 -83 -46.5t-65.5 -62.5t-44 -70t-16.5 -69z" />
<glyph unicode="9" horiz-adv-x="649" d="M14 -35q0 12 8.5 13.5t22.5 9.5q51 25 137 98.5t166 179.5q31 43 73 108.5t80 137.5t64.5 143.5t26.5 124.5q0 76 -38 109t-94.5 32t-122 -29t-121.5 -72t-94 -99t-38 -109q0 -63 49 -104t127 -41q49 2 83 9t50 16l21 6q0 -2 20.5 -11.5t20.5 -31.5q0 -10 -17 -17l-10 -4 q-37 -18 -82 -26.5t-96 -8.5q-37 2 -77 13.5t-73.5 36t-55 63.5t-21.5 94q0 70 37.5 134.5t98 113.5t133 78t140.5 29q84 0 144.5 -46.5t60.5 -142.5q0 -59 -23.5 -138t-64.5 -163t-96.5 -169t-119 -158.5t-132 -131t-133.5 -84.5h-2h-5q-12 0 -29.5 10.5t-17.5 26.5z" />
<glyph unicode=":" horiz-adv-x="192" d="M57.5 -19q-4.5 17 5.5 39q6 8 8.5 13.5t6.5 3.5q10 -2 28.5 -14.5t22.5 -22.5q-4 -31 -33 -45l-24 -14q-10 23 -14.5 40zM90 192q-4 17 6 39q11 19 15 17q10 -2 28.5 -14.5t22.5 -22.5q-4 -29 -33 -45l-25 -14q-10 23 -14 40z" />
<glyph unicode=";" horiz-adv-x="270" d="M33 -125q-4 4 2 10q25 12 39 35t22 45.5t13.5 37.5t13.5 13q4 0 25.5 -3t31.5 -15q10 -16 -5 -37.5t-40.5 -42t-54.5 -34t-43 -15.5q-4 2 -4 6zM154 158q-2 18 10 39q14 14 16 14q10 -2 27.5 -16.5t19.5 -24.5q-6 -31 -37 -43l-26 -10q-8 23 -10 41z" />
<glyph unicode="=" horiz-adv-x="641" d="M82 295q0 4 4 8q80 0 159 2t142.5 5t107.5 6t54 6q10 0 13 -0.5t7 -18.5q6 -20 -9 -34.5t-9 -10.5q6 2 -23.5 -1t-90 -4t-148.5 6t-199 30q-6 0 -8 6zM111 410q0 4 4 8q80 0 158.5 2t142 5t107.5 6t55 5h13t7 -18q6 -20 -9.5 -34.5t-8.5 -10.5q6 2 -24 -1t-90 -4 t-148.5 6t-198.5 29q-6 0 -8 7z" />
<glyph unicode="?" horiz-adv-x="903" d="M77 -128.5q-7 17.5 1 40.5q10 18 12 18q10 0 30.5 -10t24.5 -20q0 -31 -26 -50l-23 -16q-12 20 -19 37.5zM129 -16q6 14 12 26.5t13.5 26.5t17.5 33.5t27 48.5q29 51 74.5 119.5t100 146.5t115 163t115.5 169q12 18 29.5 43.5t33 50.5t25.5 45.5t6 28.5q-6 14 -36.5 8 t-73.5 -25.5t-92.5 -48t-92.5 -58.5t-73.5 -57.5t-34.5 -41.5l-4 -3q-4 -2 -12 -4q-16 -4 -27 -4q-29 0 -29 17q0 4 6.5 14t14.5 20q14 18 55 61.5t98.5 86.5t126 75.5t138.5 32.5q35 0 69.5 -10t34.5 -49q0 -47 -39 -115.5t-91 -139.5t-105.5 -134.5t-84.5 -101.5 q-47 -59 -99 -130t-96 -134.5t-74 -107.5t-32 -52q-2 -12 -12 -13l-2 2q-2 2 -2 11z" />
<glyph unicode="A" horiz-adv-x="829" d="M10 242q0 12 4 15t15 3q41 4 92 5q17 0 35 -1q72 -2 143 -2q164 217 295 337t229.5 176t164 66.5t95.5 10.5q29 0 53.5 -5t28.5 -22q2 -10 -2 -22q-2 -6 -4 -10q-4 -6 -26.5 -40t-68.5 -101.5t-120 -172t-180 -250.5q8 -2 22.5 -3t67.5 -7q4 0 9 -2t5 -6q0 -8 -26 -8h-36 t-63 -2q-66 -94 -108.5 -154.5t-67 -95.5t-33.5 -49l-10 -13l-4 2q-2 2 -2 11q41 82 83 152.5t87 146.5q-84 -4 -194.5 -6t-202.5 -2q-59 -72 -106.5 -124.5t-80.5 -80.5q-18 -18 -26 -19q-6 0 -6 6q0 4 2 5.5t10 11.5q8 8 53 62.5t111 140.5h-217l-2 2q-2 0 -10.5 11 t-8.5 34zM350 260l152.5 -10t206.5 -17q43 72 95 153t101 156.5t91 139t69 102.5h-16q-14 0 -50 -6t-90 -28q-78 -35 -166 -100.5t-180 -157.5q-59 -59 -113.5 -120t-99.5 -112z" />
<glyph unicode="B" horiz-adv-x="739" d="M-180 10q0 8 2 16.5t12 8.5q12 0 29 -8l6 -2q59 -35 147 -49.5t160 -22.5q19 -3 39 -3q43 0 89 12q67 18 131.5 49.5t121.5 73.5t100 84t67 80q20 31 20 53q0 5 -1 9q-31 27 -90 41.5t-122.5 20.5t-120 8t-80.5 6h-31q-27 -31 -58.5 -66.5t-61 -67.5t-54.5 -58.5 t-35 -38.5l-41 -45q-8 -8 -12 -9q-6 0 -6 4t2 7l10 16q6 10 24.5 34.5t43 59.5t55.5 77t63 87h-30h-125h-6q-2 0 -2 2h-3h-9t-5 6t8 6l193 15q33 43 68.5 93t69.5 98t62.5 87t45.5 62q-31 10 -68 13t-66 3q-49 0 -78.5 -10t-33.5 -10h-2l-10 1q-9 1 -20 4t-19.5 10t-8.5 17 q0 2 7.5 10.5t27 18.5t55 18.5t91.5 8.5q72 0 155.5 -20.5t155.5 -57.5q20 -12 53 -32.5t61.5 -49.5t50 -64.5t21.5 -74.5q-4 -45 -29.5 -70t-65.5 -38t-90 -19t-105 -15q41 0 89 -7t81.5 -26.5t39.5 -54.5l2 -10q0 -32 -36 -78q-55 -72 -121 -134t-138.5 -107t-152.5 -71 t-164 -26q-78 0 -147.5 17.5t-153.5 46.5l-8 4q-16 8 -29 12v2q-2 0 -11 13.5t-9 29.5zM328 422l51 4q51 4 116.5 10t127 16.5t110.5 26t72 37.5l2 2v4v2q0 53 -61.5 114.5t-182.5 98.5q-47 -82 -108.5 -158.5t-126.5 -156.5z" />
<glyph unicode="C" horiz-adv-x="561" d="M35 49q0 51 27.5 104.5t66.5 100.5t82 88t74 70q100 90 199.5 166.5t181.5 134t138 93.5t73 46v2h8q16 0 38.5 -7t18.5 -24q-41 -53 -78 -105t-64.5 -94t-45 -70t-17.5 -34h-2q-2 -2 -6 -2h-14q-12 0 -26.5 1t-14.5 16v2q0 4 6 16t6 20l2 2q10 20 36 59.5t67 80.5l-9 -6 q-123 -82 -242.5 -171t-236.5 -190q-39 -35 -79 -70.5t-73.5 -73.5t-55 -78t-21.5 -81q0 -53 34 -81q34 -26 86 -38q41 -9 84 -10q11 0 22 1q54 3 95 11q31 6 64 18.5t59.5 25t44 21.5t19.5 9l2 2h-2q0 -2 19.5 -10t19.5 -27q0 -6 -6.5 -11t-14.5 -9q-4 -4 -20.5 -15.5 t-45 -23.5t-70.5 -22.5t-97 -10.5q-35 0 -77 4t-83 13.5t-78.5 26.5t-62.5 46q-31 33 -31 84z" />
<glyph unicode="D" horiz-adv-x="1110" d="M29 55q0 8 3 20.5t13 12.5q8 0 18 -6l5 -2q8 -4 17 -8t19 -9q51 -23 108.5 -50t115.5 -31q8 16 40.5 68t79 127t100.5 162t108.5 170t101.5 155.5t78 117.5q-12 0 -23.5 1t-24.5 1q-82 0 -142 -11t-102 -25.5t-64.5 -26.5t-26.5 -14l-2 -2h-23h-4q-10 0 -26.5 3t-16.5 15 q0 8 6 14q-2 -2 21.5 15.5t75 40t131 41t190.5 18.5t186.5 -25.5t121.5 -68.5t65.5 -102.5t19.5 -127.5q0 -131 -55.5 -248.5t-151.5 -205.5t-224 -138q-108 -42 -227 -41q-22 0 -44 1q-53 4 -97.5 8t-85.5 12q-4 -4 -4 -6t-2 -4t-2 -4l-2 -4q-2 -8 -8 -9l-4 2q0 2 -1 2.5 t-1 2.5q0 4 2 9l6 15q-10 2 -22.5 6t-35 11.5t-57.5 20.5t-92 38q-23 10 -35 18.5t-16 8.5h-2v2q-2 2 -4 8q-4 12 -4 22zM352 -25q70 -20 144 -21h12q67 0 129 10q68 11 123 28.5t88 34.5q61 39 112.5 92t90.5 115.5t61.5 131t26.5 138.5q0 121 -52.5 180t-177.5 92 q8 6 -16.5 -31.5t-70.5 -105.5t-107.5 -155t-126 -178t-127 -178t-109.5 -153z" />
<glyph unicode="E" horiz-adv-x="585" d="M53.5 154.5q30.5 50.5 55.5 83.5q-16 4 -22.5 5t-6.5 9q0 2 4 6h41q68 82 157 165t188 161t200.5 146.5t193.5 121.5l2 2h11q6 0 16 -1t19.5 -5t15.5 -10.5t2 -14.5q-6 -8 -37 -51t-66.5 -94t-66.5 -97t-35 -61h-2q0 -2 -4 -2h-17q-16 0 -27 2t-11 15v2q0 6 2 14 q4 16 10 22l2 2q8 23 34.5 61t67.5 79l-10 -6q-41 -27 -97.5 -68t-135.5 -100l-23 -17q-35 -25 -76 -57.5t-84 -68.5t-85 -71.5t-74 -68.5q43 0 92 -1t91 -3t71.5 -4t35.5 -4l2 -2q6 0 7 -37q0 -16 -2.5 -20.5t-8.5 -4.5h-2h-20q-76 0 -148.5 12.5t-150.5 28.5 q-37 -41 -68 -89t-31 -101q0 -10 5.5 -29.5t28 -38t65.5 -33t121 -14.5q45 0 91 10.5t84 24.5t67.5 28.5t45.5 22.5q0 -2 19.5 -10t19.5 -27q0 -6 -7 -11t-13 -9q-53 -39 -127 -57q-64 -16 -129 -16h-22q-76 3 -146 25.5t-111 65.5q-32 28 -32 77q0 62 30.5 112.5z" />
<glyph unicode="F" horiz-adv-x="555" d="M2 -100l4 22q4 21 23.5 61t60.5 100t115 140q-16 4 -32.5 7t-43.5 12q-14 0 -14 10q0 4 4 4l2 2h6h2h109q88 92 196.5 190.5t206.5 182.5t171 144.5t93 76.5h2q10 2 22.5 0t22 -6t12.5 -13.5t-6 -21.5q-6 -6 -37.5 -47t-66.5 -89t-63.5 -93t-28.5 -62h-2q-2 -2 -6 -2h-15 q-12 0 -26.5 1t-14.5 16v2q0 25 19.5 53t32.5 49q-31 -27 -79 -67t-106.5 -89t-126 -106.5t-135.5 -118.5q10 -2 31 -2q33 -2 64.5 -3t57 -3t43 -3t21.5 -1l4 -2q0 -4 2 -11q4 -12 4 -28t-3 -19.5t-9 -3.5h-2q-47 0 -96 3t-111 16q-14 4 -27.5 5t-27.5 5 q-115 -115 -176.5 -196t-61.5 -113v-2q-4 -4 -4 -7.5t-4 -3.5q-6 0 -6 11z" />
<glyph unicode="G" horiz-adv-x="757" d="M88.5 204q63.5 87 157.5 178t204.5 177t204 152.5t154.5 105.5t57 37h2h6q14 0 37 -6t21 -25q-10 -12 -43 -56t-69 -94t-64.5 -94t-28.5 -59h-2q-2 -2 -6 -2h-14q-10 0 -25.5 1t-15.5 16v2q0 18 13 43.5t31.5 51t39 48t32.5 35.5l-2 -2q-31 -25 -100.5 -73t-155.5 -110.5 t-175 -135t-159 -142.5q-18 -18 -40.5 -44t-41 -54.5t-31 -58t-12.5 -56.5q0 -37 26 -60.5t67 -44.5q40 -11 94 -11h9q60 1 120.5 14.5t112 42t73.5 75.5q-51 8 -104 18.5t-107 26.5l-24 6q-14 6 -15 11q0 2 4 6h11q29 1 66 1h40q64 -1 124.5 -3t105.5 -4t55 -4l4 -2 q0 -2 3 -11.5t3 -27.5q0 -23 -12 -25h-2h-27.5t-58.5 4q-2 -2 -2 -6q-20 -41 -56 -71.5t-81.5 -50t-98.5 -29t-110 -9.5q-10 0 -37 2t-60.5 10.5t-67.5 23.5t-61 42q-32 34 -32 83q0 71 63.5 158z" />
<glyph unicode="H" horiz-adv-x="888" d="M20 256q0 14 21 14h4q6 0 15.5 1t33 1h68.5h125q51 72 108.5 151t105.5 145.5t81.5 112.5t38.5 54l2 2h4q2 0 5 1t7 1h2q4 0 22.5 -2t18.5 -14q0 -8 -6 -21l-2 -2q-10 -18 -26.5 -45.5t-51.5 -76t-93.5 -122t-152.5 -186.5q68 -2 165 -9t226 -17q63 96 130 196.5 t122.5 184.5t94 141t47.5 68v2q4 0 8 2q8 4 18 4q12 0 24.5 -6.5t12.5 -14.5q0 -6 -8 -18l-2 -4q-10 -18 -35 -58.5t-71 -108t-114.5 -164.5t-166.5 -228q8 -2 22.5 -3t67.5 -8q14 0 14 -8q0 -4 -6 -6l-20 -2h-36t-63 -2q-6 -8 -18 -24.5t-53 -73.5q-23 -33 -53.5 -76 t-60.5 -84t-51.5 -72t-27.5 -39l-4 2q-2 0 -2 2q0 4 2 9q4 14 6 18l4 8q8 18 26.5 51t44 77t58.5 95.5t70 106.5q-47 -2 -100.5 -3t-109.5 -2t-111.5 -1h-104.5q-39 -47 -75 -89t-63.5 -73t-44.5 -51l-18 -19l-4 -4q-2 -2 -6 -2q-6 0 -6 4q0 2 19.5 31t45 66.5t52 75.5 t43.5 61h-136.5t-58.5 2h-2q-6 4 -10 12q-10 14 -11 37z" />
<glyph unicode="I" horiz-adv-x="190" d="M18 -51q4 51 64 155q25 45 64.5 105.5t86 125t93.5 129t87 116t66.5 85t32.5 40.5l2 2h12q6 0 25.5 -5.5t19.5 -17.5q0 -8 -6 -16l-2 -2q-37 -49 -90 -117t-111.5 -141.5t-116 -148.5t-103.5 -139.5t-74.5 -112.5t-28.5 -68q0 -10 7 -18.5t13 -10.5q4 0 9 -4q2 -2 2 -4 q0 -4 -4.5 -5t-6.5 -1h-2q-39 14 -39 53zM569 793q0 10 6.5 24.5t16.5 16.5q6 0 29.5 -12.5t23.5 -20.5q0 -12 -8 -23.5t-19 -21.5l-24 -19q-16 29 -20.5 39t-4.5 17z" />
<glyph unicode="J" horiz-adv-x="395" d="M25 -88q0 20 5 39.5t11 40.5q12 35 21.5 61.5t20.5 54t22.5 59.5t25.5 75h2q0 2 2 3t17 3q4 0 13 1t16 -1t12.5 -6t1.5 -15v-2q-4 -18 -15.5 -50t-40.5 -107q-10 -29 -28.5 -65t-26.5 -62q16 16 52 60t83 105.5t102.5 134t110.5 147.5t106.5 146.5t92.5 129.5 q-74 -10 -142.5 -20.5t-124 -19t-92 -14.5t-45.5 -6h-2q-8 4 -14 12q-14 14 -14 37q0 10 18 15l2 2q111 25 227.5 36t233.5 21q23 31 36 51.5t17 24.5l2 2q10 4 36 3t26 -20q0 -6 -11 -22q-4 -6 -9 -14.5t-11 -18.5q57 4 110.5 7t96.5 5.5t72.5 3.5t37.5 1q4 0 12.5 -4.5 t-1.5 -10.5q-41 -8 -135.5 -21.5t-231.5 -35.5q-12 -6 -61.5 -77t-131 -181.5t-195.5 -251.5t-255 -291l-4 -4q-16 -12 -34.5 3t-18.5 36z" />
<glyph unicode="K" horiz-adv-x="458" d="M-55 -98l6 14q4 8 4 10q2 4 42 66.5t99.5 157t130 204t136 210t116.5 175t70 97.5l2 2q2 0 6 2q4 0 8 1t10 1q12 0 24.5 -6.5t12.5 -14.5q0 -10 -6 -18q-12 -18 -34.5 -54t-65.5 -97.5t-108.5 -152.5t-159.5 -218q49 53 113.5 113.5t133 122t136 118.5t123 103t93 77 t48.5 39l2 2h2q10 0 22.5 -3t21.5 -9t10 -14.5t-11 -18.5q-35 -49 -69 -97t-62.5 -88t-46 -69t-17.5 -37h-2q-12 -4 -34.5 -4t-26.5 19v2q0 4 6 16t6 20l2 2q6 12 14.5 26.5t24.5 37.5q-43 -37 -101.5 -84t-123 -99.5t-131 -107.5t-125.5 -108q-4 6 7 -17.5t32.5 -63.5 t50.5 -88t57.5 -93.5t55 -79t43.5 -43.5l-3 -2q-2 -2 -4 -3l-16 5q-14 4 -52 37.5t-81 83t-83 106.5t-58 111q-25 -20 -62 -65.5t-72.5 -92.5t-64.5 -87t-37 -50h-2q-2 -8 -6 -9l-4 2q-2 2 -2 11z" />
<glyph unicode="L" horiz-adv-x="542" d="M6 -51q0 18 16.5 26.5t38 11.5t44 2t34.5 -1q41 41 92.5 107.5t105.5 146.5t108.5 165t101.5 161.5t83 137t54 91.5l8 10q-4 4 17.5 13t35.5 9q4 0 11.5 -2t7.5 -12t-16 -39v-2q-14 -29 -48 -86t-79.5 -129t-98.5 -153.5t-107.5 -158.5t-105.5 -144.5t-92 -112.5l-2 -4 q121 -2 230.5 -16.5t175.5 -24.5l141 -21q4 0 16.5 -3t12.5 -7t-4.5 -5t-8.5 -1l-43 4q2 0 -51 5t-135 10t-180.5 10.5t-190.5 5.5h-4q-18 -16 -38.5 -34t-49.5 -18q-18 0 -49 16.5t-31 41.5z" />
<glyph unicode="M" horiz-adv-x="1222" d="M-10 -104q-4 0 19.5 50t77.5 147t144.5 237.5t223.5 318.5q-47 -25 -95.5 -36t-74.5 -11h-13.5t-9.5 2l-2 2q-2 2 -4 8t-2 25q0 20 3 24.5t11 4.5h2q2 2 4 2h2q29 0 92.5 13t157.5 65q29 41 49.5 67.5t24.5 32.5h2q-2 0 6 3t19.5 3t21.5 -4t15 -16q0 -4 -1 -9.5 t-10 -15.5q-10 -12 -20 -28.5t-29 -39.5q43 27 80 51.5t74 43t75.5 30t86.5 11.5q53 -10 63 -47q5 -18 5 -39t-5 -43q-10 -46 -33.5 -90t-38.5 -70l23 20q24 21 64 46.5t94.5 47t115.5 25.5q55 0 96.5 -31.5t41.5 -99.5q0 -57 -26 -125t-62.5 -133.5t-77.5 -123.5t-70 -95 l-2 -4q-16 -23 -31.5 -45.5t-15.5 -38.5t11 -32.5t36 -16.5q27 0 58.5 10t52.5 24q4 4 15 3t3 -9q-41 -23 -69.5 -38t-55.5 -15q-35 0 -57.5 16.5t-24.5 51.5q0 31 18.5 69.5t43 77.5t49 74t37.5 57q14 27 32.5 63.5t35 75.5t26.5 77t10 71q0 69 -61 69h-2q-29 0 -71 -12 t-89 -39q-92 -51 -126 -91t-38 -40h-2q-8 -12 -32.5 -43t-56.5 -70.5t-68 -83.5t-66.5 -83t-53 -70t-26.5 -43q-6 -6 -8 -6q-4 0 -7 6v2q0 20 18.5 53t51.5 84t78 123t100 170q8 14 35 63.5t49.5 102.5t27.5 95t-28 42q-31 0 -75 -19.5t-93 -51t-99 -69.5t-94 -75t-78 -68.5 t-48 -48.5q-164 -229 -277.5 -380.5t-148.5 -215.5q-4 0 -4 5z" />
<glyph unicode="N" horiz-adv-x="761" d="M0 -98q2 2 6 12v2q4 8 4 10l2 2q10 23 58.5 103t117 187.5t148.5 229t156 228.5q-61 -31 -118 -52.5t-102 -21.5h-12t-12 2q-2 2 -5 10.5t-3 24.5q0 20 4 24.5t10 4.5h2q68 0 136.5 25.5t139.5 66.5q8 4 19.5 16t22 24.5t18.5 23.5l8 10l2 2q2 0 6 2q4 0 8.5 1t8.5 1 q10 0 25.5 -5.5t13.5 -15.5q0 -8 -11.5 -26.5t-26 -40t-29.5 -43t-26 -35.5q12 8 35 22.5t53.5 28.5t68.5 24.5t81 10.5q61 0 90 -37t29 -84q0 -53 -21.5 -112.5t-53.5 -118t-68.5 -111.5t-69.5 -94q-4 -4 -31 -40t-49.5 -76t-24.5 -72.5t45 -32.5q27 0 49.5 9t34.5 15 q35 16 39 17q4 0 6 -5.5t-4 -7.5q-29 -18 -62.5 -35.5t-72.5 -17.5q-16 0 -36.5 11.5t-30.5 39.5q-2 8 -3 21q0 27 19.5 65.5t47.5 80.5t56.5 83t46.5 72q18 33 40 72.5t39.5 79.5t28.5 79t11 72q0 35 -13 47t-48 12q-37 -4 -84 -22.5t-103 -46.5q-49 -31 -81.5 -56.5 t-53 -45t-30 -31t-11.5 -11.5v-2q-45 -55 -97 -124.5t-105 -141.5l-48 -64q-47 -61 -77.5 -105t-50 -72.5t-29.5 -45t-17 -22.5h-2v-4h-2q-2 -8 -6 -9h-2l-2 2q-2 2 -2 11z" />
<glyph unicode="O" horiz-adv-x="675" d="M20 66q0 55 31 125.5t82 145.5t117.5 147.5t138.5 133t145.5 103.5t137.5 55h-2h-4q-16 12 -26.5 16.5t-14.5 20.5q0 10 12 16.5t47 6.5q92 0 151.5 -44t59.5 -151q0 -66 -30.5 -152t-83 -173t-123 -163.5t-150.5 -125.5q41 -23 75.5 -32t61.5 -13q2 -2 10.5 -14.5 t8.5 -30.5q0 -14 -5.5 -17.5t-9.5 -3.5q-49 0 -105.5 21.5t-99.5 50.5q-31 -14 -67.5 -31.5t-77.5 -30t-86 -16.5q-10 -1 -20 -1l-70 11q-41 14 -72 53t-31 93zM61 68q0 -49 29 -86t92 -45q11 -1 22 -1q46 0 98 20q65 24 116 52q-86 80 -86 193q2 55 18.5 105t38 94t47 81 t47.5 64q41 49 88 90t93 70q-143 -63 -254 -153.5t-188 -183t-118 -174t-43 -126.5zM397 209q0 -59 23.5 -99t56.5 -63q72 51 136.5 127t113.5 158t79 162.5t30 146.5q0 137 -138 137q29 -14 35 -43q0 -12 -11 -19t-22 -11q-4 -4 -47 -34t-94 -93q-78 -98 -120 -194.5 t-42 -174.5z" />
<glyph unicode="P" horiz-adv-x="794" d="M2 -152q0 2 1 3.5t1 3.5q33 68 66.5 126t74.5 121q-47 33 -63 70t-19 66q-2 29 8.5 60.5t28.5 33.5q6 0 2 -15q-12 -29 -16 -41t-4 -28q0 -31 18.5 -64.5t59.5 -56.5q37 59 85 134t99 150.5t99.5 149.5t87 132.5t65.5 96t31 44.5l2 2q2 0 6 2q8 4 20 4q10 0 22.5 -6.5 t12.5 -14.5q0 -6 -10 -22q-6 -10 -13.5 -21.5t-17.5 -27.5q20 12 50 28.5t64 30.5t67.5 23.5t64.5 9.5q43 0 67.5 -12.5t38 -31t16.5 -41t3 -42.5q-2 -61 -25.5 -136t-65.5 -152t-96.5 -149.5t-118 -131t-131 -94.5t-134.5 -38q-70 0 -136.5 15.5t-136.5 50.5 q-78 -104 -119 -171t-49 -67h-4q0 2 -1 2t-1 4zM195 104q47 -23 101 -37t122 -14q70 0 136.5 40t125.5 101.5t109.5 138.5t86 150.5t56 135t20.5 96.5q0 27 -10 43t-41 16q-35 0 -87 -21.5t-105.5 -52t-99.5 -64.5t-66 -61l-4 -4q-25 -25 -57.5 -67.5t-70.5 -96t-79 -114 t-84 -117.5l-47 -63q-4 -4 -6 -9z" />
<glyph unicode="Q" horiz-adv-x="751" d="M37 74q0 66 40 148.5t105.5 166.5t148.5 162t169 135q37 25 65.5 40t49 24.5t37 14.5t28.5 9q-12 0 -23.5 14.5t-15.5 26.5q0 14 21.5 19.5t37.5 5.5q117 0 166 -55.5t49 -143.5q0 -74 -40.5 -177.5t-110.5 -202.5t-160 -181t-190 -115q37 -18 76.5 -30.5t74.5 -12.5 q59 0 104.5 32t65.5 83q2 6 7.5 23.5t11.5 36t12 33.5t10 15q6 0 6 -8q-25 -141 -80 -204.5t-153 -63.5q-53 0 -111.5 19.5t-103.5 43.5q-12 -4 -27 -8q-12 -4 -27.5 -8t-29.5 -6q-20 -4 -44 -3t-65 13q-47 14 -75.5 59.5t-28.5 94.5zM78 68q0 -47 28.5 -85t90.5 -46 q23 -4 48 2t54 14q-84 47 -127 96t-51 64v4q2 12 8 22q4 8 12.5 15.5t18.5 7.5q4 0 19.5 -15.5t42 -40t65.5 -57.5t92 -67q78 37 161 110.5t152.5 165.5t113.5 192.5t44 186.5q0 70 -33 102.5t-92 32.5q10 0 17.5 -14.5t7.5 -22.5q0 -10 -10.5 -14t-20.5 -4 q-78 -20 -168 -78.5t-173 -134.5t-150.5 -155t-102.5 -140q-20 -41 -33.5 -76t-13.5 -65z" />
<glyph unicode="R" horiz-adv-x="722" d="M-23 -145q0 4 4.5 12t8.5 14q10 23 38.5 73t69.5 114q35 57 85 134t103.5 159.5t108 163.5t98.5 147.5t72.5 109.5t34.5 52l2 2q4 0 8 2q8 4 19 4q10 0 22.5 -6.5t12.5 -14.5q0 -10 -11 -22q-4 -10 -12 -21.5t-18 -27.5q16 8 39.5 24.5t54.5 30.5t68.5 25.5t82.5 11.5h2 q59 0 93 -37t34 -103q0 -55 -22.5 -118.5t-65.5 -137.5q-35 -57 -84 -128.5t-110.5 -135t-134 -106.5t-150.5 -43q-23 0 -53.5 10t-57.5 37q10 -16 19.5 -32.5t21.5 -39.5q8 -16 24.5 -45t37 -55.5t45.5 -46t53 -19.5q25 0 53.5 18.5t44.5 39.5l13 12q10 0 10 -8 q-6 -12 -16.5 -28.5t-26.5 -32t-38.5 -27t-51.5 -11.5t-52.5 11.5t-44 29t-36 36t-27.5 34.5q-49 61 -83 121.5t-56 93.5l-2 2q-2 4 -4 6t-4 6l-25 -32q-92 -123 -138 -199q-44 -72 -53 -72h-1h-2q-2 2 -3 13zM244 205l3 -3t5 -9q12 -12 30.5 -35t40 -43.5t47 -36 t52.5 -15.5q90 6 146.5 46.5t121.5 117.5q131 154 186.5 271.5t55.5 203.5q0 29 -12.5 50.5t-47.5 21.5q-59 0 -149 -45q-29 -14 -59.5 -34.5t-61.5 -43t-56.5 -45t-39.5 -41.5q-43 -53 -112.5 -152.5t-149.5 -207.5z" />
<glyph unicode="S" horiz-adv-x="880" d="M25 -72q0 10 11 24.5t17 20.5q10 10 15 11q6 0 6 -7q0 -10 -10.5 -20t-14.5 -23q27 1 68 9q72 12 144.5 28.5t143 30.5t137 23.5t126.5 9.5q49 0 84.5 -5t52.5 -10q-20 20 -50 83t-59.5 137.5t-55.5 145.5t-38 106q-25 72 -48.5 138t-23.5 142q0 23 10.5 41t34.5 25 q68 0 131.5 -32t113.5 -85t80 -124t30 -146q0 -41 -8.5 -69t-12.5 -38v-2q-4 -2 -14 -8t-23 -6q-10 0 -21 4t-11 14q0 2 1 3t1 3q-2 -2 -2 -4q6 8 12 23q4 12 8 29.5t4 43.5q0 47 -15 99.5t-45 98.5t-73 81t-98 49q-27 4 -32 4h-9q0 -41 12 -103.5t33.5 -136t47.5 -151.5 t51.5 -149.5t50 -131t40.5 -92.5q2 -4 4.5 -14t1 -20.5t-5.5 -17.5t-14 -7q-37 0 -75 7t-85 7q-78 0 -149.5 -9t-141 -21.5t-137 -21.5t-135.5 -9q-31 0 -48 2t-17 20z" />
<glyph unicode="T" horiz-adv-x="249" d="M-510 553q0 10 8 12t23 2q223 -6 426 -8t413 -10q45 63 87 119.5t76 99.5t56.5 70.5t28.5 33.5h2q2 0 6 2q4 0 7.5 1.5t7.5 1.5h2q12 0 25.5 -7.5t13.5 -17.5q0 -4 -10 -18l-5 -5q-10 -12 -25.5 -31.5t-40 -51t-60 -78.5t-87.5 -117q-4 -4 -4 -6q205 -8 322 -14.5 t175 -12.5t72.5 -10t14.5 -6q0 -8 -10 -8h-25h-10h-228.5t-347.5 2q-59 -78 -134.5 -179.5t-137.5 -199.5l-2 -2q-18 -31 -37.5 -66t-19.5 -63q0 -18 25.5 -23.5t47.5 -5.5q45 0 71 16.5t38 16.5q6 0 6 -6q0 -3 -4 -7q-4 -10 -18.5 -18t-33 -14t-39 -10.5t-38.5 -4.5 q-31 0 -59.5 12.5t-28.5 51.5q0 37 23.5 91t62.5 119.5t90 139.5t109 152q-139 0 -275.5 1t-247 3t-185.5 3t-89 1h-2q-10 4 -19 12q-16 16 -16 37z" />
<glyph unicode="U" horiz-adv-x="643" d="M41 496q18 14 51 36.5t69 48t72.5 56.5t65.5 63q6 6 16.5 9.5t21.5 0.5t19.5 -9.5t8.5 -18.5q0 -10 -16.5 -39t-31.5 -49l-30 -47q-20 -31 -45 -77t-60 -110q-18 -47 -43.5 -102t-25.5 -127q0 -47 28.5 -63.5t67.5 -16.5q29 0 74 10q61 16 105 38t75 44.5t49 45t29 38.5 q33 51 78 118t94 135.5t98 136t89 122t67.5 90t36.5 43.5q2 0 7 2.5t15 2.5h2q12 0 25.5 -7.5t13.5 -17.5q0 -6 -14 -23q-10 -12 -25.5 -31.5t-41 -51t-61.5 -78.5t-85 -117q-31 -41 -70 -92t-81 -107.5t-84 -117t-79 -117.5l-2 -2q-18 -31 -37.5 -66t-19.5 -63 q0 -18 23.5 -24.5t48.5 -6.5q47 0 72.5 15.5t27.5 13.5l10 6q6 0 6 -6q0 -8 -13 -17.5t-33.5 -17.5t-44 -13.5t-42.5 -5.5q-31 0 -59.5 12.5t-28.5 51.5q0 31 17.5 66.5t35.5 68.5q-29 -23 -65.5 -45.5t-76.5 -39.5t-80 -28.5t-72 -11.5h-5q-43 0 -68.5 14.5t-41 37 t-20.5 53t-5 63.5q6 63 27.5 121.5t46.5 108t47.5 87t34.5 60.5q-27 -12 -64 -27l-86 -33q-8 -4 -8 -3t-2 1q-8 0 -8 9z" />
<glyph unicode="V" horiz-adv-x="487" d="M10 563q0 111 49 197q10 18 28.5 39.5t41.5 25.5h2q16 0 24.5 -9t12.5 -13q8 -12 12 -23.5t8 -25.5q6 -20 13 -45q23 -102 38 -201.5t24 -189t14.5 -163t9.5 -122.5l6 -82q6 37 32.5 89t67.5 114.5t92.5 131t104.5 136.5l14 18q43 55 83 109.5t72 102.5t51 88t19 65 q0 12 -12 12q-14 6 -16 24.5t-2 28.5q0 6 6 9.5t10 3.5q2 0 14.5 -2t27.5 -9.5t27.5 -24t12.5 -44.5q0 -49 -38 -115.5t-100.5 -147.5t-142 -175.5t-163.5 -198.5q-41 -49 -72 -99.5t-51 -91.5q-25 -47 -41 -90q-4 0 -6 9q0 6 -1 19t-6.5 43t-13.5 80t-20 132q-6 0 -11 2 l-22 6q-39 12 -75 50t-63.5 90.5t-44 116t-16.5 130.5zM76 571q0 -72 16.5 -129t40 -99t50 -69.5t48.5 -37.5q-10 66 -18 121t-18 106l-2 6q-12 63 -25.5 126.5t-32.5 125.5q-4 10 -8 19t-8 -5q-43 -66 -43 -164z" />
<glyph unicode="W" horiz-adv-x="854" d="M16 571q0 104 52 189q14 23 30.5 41t38.5 24h2q18 0 29.5 -12t19 -29.5t12.5 -38t9 -36.5q25 -102 39 -201.5t23.5 -189t14.5 -163t9 -122.5l4 -78q25 76 86 182.5t141 222.5q-16 98 -26.5 160t-10.5 96q0 12 6.5 27.5t24.5 15.5q10 0 21.5 -7t15.5 -23q4 -18 7 -60.5 t18 -128.5q37 55 71.5 108.5t61 101.5t43 88t16.5 65q-4 10 -11 14t-15 21q-8 12 -9 26q0 12 4.5 15.5t12.5 3.5q2 0 14 -2t26.5 -9.5t28 -22.5t17.5 -42q0 -86 -65.5 -190.5t-182.5 -260.5q4 -39 9 -92t9 -108.5t8.5 -106.5t6.5 -86q12 33 41.5 86t72.5 116.5t93.5 131.5 t101.5 131l25 33q45 57 89 113.5t77.5 105.5t54 87t20.5 56l-2 2l-2 4q0 8 -6 14.5t-6 26.5q0 14 10 19q27 0 48.5 -14.5t25.5 -49.5q0 -47 -35 -105.5t-117 -164.5q-43 -57 -108.5 -133t-133 -154t-126 -150.5t-86.5 -123.5q-8 -14 -14.5 -31.5t-12.5 -33t-11 -25.5t-8 -10 q-6 0 -6 6v2q-2 2 -2 6v8q-2 20 -18.5 98t-34.5 181l-16 90v4q-55 -74 -101.5 -142.5t-78 -123t-49 -91t-17.5 -45.5q0 -2 -4 -1t-2 1q-4 0 -5 29t-5 51l-3 31q-2 31 -7 67.5t-12 68.5t-19 36l-21 6q-41 14 -77 52t-63.5 92.5t-44 119t-16.5 131.5zM84 569q0 -104 30.5 -178 t71.5 -117q18 -20 32.5 -27t21.5 -11q-6 43 -16.5 102t-22.5 125q-14 76 -31.5 145.5t-34.5 139.5v-3q-12 -6 -21.5 -26.5t-16.5 -46t-10 -54t-3 -49.5z" />
<glyph unicode="X" horiz-adv-x="460" d="M-126 -231.5q3 6.5 11 10.5q-4 0 37 43t108.5 122t156.5 189.5t186 245.5q-12 92 -33 194.5t-74 180.5h-2q-2 0 -2 -2t-2 -4q-25 -51 -38 -95.5t-13 -91.5q0 -35 4 -54.5t4 -29.5v-2q2 -4 -14.5 -23.5t-30.5 -19.5q-8 0 -11 8.5t-7 22.5q-10 24 -10 79v6q0 60 13 122.5 t39.5 110.5t69.5 48q31 0 48.5 -27.5t27.5 -45.5q25 -55 45.5 -141.5t30.5 -180.5q70 86 131 158t110.5 126t81 87t39.5 39q12 4 39 4t27 -21q0 -6 -5 -11t-10 -13q-76 -80 -134 -143.5t-105 -119t-88 -103.5t-80 -95q2 -23 2 -47.5v-46.5q0 -59 -8 -115.5t-20.5 -103.5 t-26 -82t-23.5 -51l-4 2q-2 0 -2 2q0 4 2 6q0 8 20.5 78.5t20.5 210.5q0 23 -1 47t-3 49q-70 -84 -148.5 -178.5t-150.5 -174.5q-72 -78 -128 -130q-54 -50 -77 -50h-2q-4 4 -1 10.5z" />
<glyph unicode="Y" horiz-adv-x="436" d="M-49 696q0 8 12 17q6 4 38 25.5t83 21.5q31 0 58 -14q25 -13 25 -48q0 -5 -1 -10l-2 -41l-23 -260q-4 -41 -5 -85t-1 -87q0 -23 2 -54.5t10.5 -60t24.5 -48t45 -19.5q10 0 20.5 3t20.5 7q49 72 103.5 154t106.5 163.5t99 157.5t85 137.5t64.5 103.5t35.5 54q2 2 11 6 t23 4q6 0 18.5 -4t12.5 -14q0 -6 -10 -27q-12 -27 -38 -62.5t-69 -107.5q-25 -39 -67.5 -108.5t-101 -154.5t-127 -180t-142.5 -188q-27 -33 -57.5 -69.5t-61 -68.5t-59.5 -53.5t-47 -21.5h-2q-10 0 -11 7.5t-4 13.5q0 14 1.5 16t5.5 2q8 0 7 -8t3 -12q16 0 68.5 58.5 t130.5 168.5q-6 -2 -23 -2q-47 0 -72.5 35t-39 87t-16.5 113.5t-3 112.5q0 47 1 98.5t7 116.5l6 76q0 10 1 27.5t-15 17.5q-6 0 -19.5 -5t-28 -12t-26.5 -12.5t-14 -5.5q-16 -8 -29.5 3.5t-13.5 35.5z" />
<glyph unicode="Z" horiz-adv-x="845" d="M35 0q0 10 18 16h2q12 31 55.5 83.5t110 121t151.5 149.5t179 167l135 125q29 29 58.5 56t56.5 56q-121 -20 -236.5 -72.5t-209 -115t-155 -123t-73.5 -92.5v-2q-8 -6 -12 -15.5t-9 -17.5h-2q-8 -20 -16 -21q-10 0 -18.5 13.5t-8.5 38.5q0 39 37 89t101.5 103 t152.5 105.5t191 99.5q49 23 131 48.5t176 25.5q20 0 30.5 -10.5t10.5 -20.5q0 -8 -1 -16.5t-7 -14.5q-63 -78 -148.5 -148.5t-163.5 -135.5q-154 -131 -255 -221.5t-158 -151.5q-10 -12 -23.5 -28.5t-26 -32t-21.5 -25.5l-9 -10q23 4 61.5 8t73.5 4q86 0 208 -24.5 t255 -65.5q47 -14 84 -25.5t59 -11.5q10 0 20.5 3t10.5 19q0 20 -14 43q-10 14 -10.5 16.5t-2.5 6.5q0 10 4 10q6 0 14.5 -9t15.5 -21.5t12 -24.5t5 -21q0 -31 -22.5 -41t-50.5 -10q-68 6 -143.5 20.5t-152.5 30t-149.5 26.5t-134.5 11q-61 0 -101 -7t-50 -7q-14 -2 -19 4 l-8 16q-8 16 -8 27z" />
<glyph unicode="\" horiz-adv-x="362" d="M-79 913.5q-1 10.5 1 20.5t9.5 16t19.5 4q23 -4 24.5 -10t12.5 -26q8 -23 49 -113t101.5 -222t136 -294t155.5 -328q0 -10 -6 -10q-4 0 -12 12q-131 217 -222.5 385t-147.5 286t-84 183.5t-32 77.5q-4 8 -5 18.5z" />
<glyph unicode="_" horiz-adv-x="1271" d="M90 -86q0 4 4 8q53 0 151.5 1t215.5 3t238.5 4t222 4.5t167 3.5t74.5 3q10 0 13.5 -0.5t7.5 -18.5q6 -20 -9.5 -34.5t-9.5 -10.5q4 2 -53 1t-151.5 -3t-212 -3t-237.5 2t-229.5 10t-183.5 24q-6 0 -8 6z" />
<glyph unicode="`" horiz-adv-x="430" d="M125 356q0 16 15.5 29.5t19.5 17.5q6 6 19.5 -4t32.5 -24.5t44 -25.5t51 -7q8 -2 8 -8q0 -4 -2 -6q-12 -8 -43.5 -12.5t-63.5 -1.5t-56.5 12.5t-24.5 29.5z" />
<glyph unicode="a" d="M-25 66q6 45 33 79.5t62.5 58t75.5 36t73 12.5q18 0 45 -10.5t27 -26.5q0 -6 -10.5 -17.5t-16.5 -19.5q0 -2 -8 -13t-19.5 -26.5t-19.5 -33t-8 -33.5q0 -29 31 -29q25 2 55.5 12.5t48.5 16.5l29 10q10 4 9 4t3 0q6 0 6 -8l-2 -2l-8 -6q-2 -2 -15.5 -13.5t-35 -24 t-48 -22.5t-55.5 -10q-27 0 -44 16.5t-25 42.5q-29 -18 -60.5 -40.5t-72.5 -22.5q-27 0 -40.5 22.5t-9.5 47.5zM34 63.5q-3 -8.5 1 -12.5q2 -4 22 4q41 14 62.5 28.5t34 31t20.5 33t21 34.5q-23 0 -64 -20t-90 -86q-4 -4 -7 -12.5z" />
<glyph unicode="b" horiz-adv-x="430" d="M-63 43q0 10 19 16.5t60 31t104.5 77.5t153.5 158q6 6 14.5 15t8.5 13q47 61 90 117.5t78 108.5l82 116q2 0 8 2t16 2t22.5 -5t16.5 -11q-6 -18 -27.5 -52t-50 -77t-63.5 -89t-67.5 -89t-61.5 -77t-45 -50q23 -6 41 -28.5t18 -55.5q0 -47 -24 -92q-4 -4 -4 -8 q16 -4 30 -5q25 0 37.5 1t24.5 6l16 4q2 0 2 1t2 1h2q12 0 13 -4v2q0 -10 -13 -19q-10 -8 -33.5 -13t-68.5 -5q-10 0 -17.5 1t-17.5 1q-6 -4 -11 -9.5t-13 -9.5q-32 -26 -91 -26h-4q-6 0 -18 1t-25.5 5t-24 9t-10.5 16q-27 -29 -28 -35q-10 0 -31.5 9t-21.5 26q0 14 19 34.5 t34 36.5q-66 -33 -94.5 -43t-40.5 -12q-6 0 -6 4zM141 57q18 -18 50 -9t51 24q-20 16 -24.5 35.5t-8.5 42.5l-11 -12q-12 -11 -24 -25.5t-22.5 -29.5t-10.5 -24v-2zM252 141q0 -27 14 -43q10 16 15.5 32.5t5.5 29.5q0 32 -27 22q-8 -18 -8 -41z" />
<glyph unicode="c" horiz-adv-x="296" d="M-18 80q0 39 23.5 70.5t58 53t74.5 34t75 14.5q14 0 27 -6q10 -4 18 -14.5t8 -32.5q0 -20 -16.5 -34.5t-36.5 -24t-37.5 -13.5t-21.5 -4l-2 2q-4 0 -5 8v2l11 10q4 4 16 17.5t16 21.5h-6q-6 0 -22.5 -4t-37 -14t-42 -27.5t-37.5 -44.5q-4 -10 -3 -12t1 -4v-2q2 -2 4 -7.5 t11.5 -10.5t30 -9t58.5 -4q74 0 123 17.5t52 21.5q8 0 10 -2q0 -4 -2 -10q-27 -20 -60 -35q-29 -14 -68.5 -24.5t-90.5 -14.5h-11q-16 0 -36.5 4t-39 14.5t-30.5 25.5t-12 38z" />
<glyph unicode="d" horiz-adv-x="423" d="M-31 66q0 35 35 68.5t79 59t85 41t55 15.5l2 -2q10 -8 13.5 -16.5t7.5 -24.5q16 23 38.5 54.5t44 60t37 50t19.5 25.5q35 47 63.5 90t49.5 74l69 105h17q10 0 26.5 -4.5t16.5 -14.5q0 -2 -4 -14h-2q-10 -23 -41 -66t-80 -118q-59 -90 -123 -175.5t-115 -191.5 q-8 -23 12.5 -38t38.5 -15q16 0 42 14t71 39q12 6 13 5t3 -1q4 0 7 -2q0 -12 -16.5 -27.5t-40 -31t-49.5 -24.5t-44 -9q-45 0 -66 26q-18 20 -18 48q0 25 6 43q-10 -10 -21.5 -23.5t-27.5 -28.5q-20 -18 -48 -39.5t-69 -27.5q-8 0 -23.5 1t-31.5 17q-10 10 -20.5 23.5 t-10.5 34.5zM29 61q0 -20 22 -20q23 0 64 20q12 10 26 27q12 14 29.5 32.5t40.5 45.5q10 10 14 16q-12 -4 -37 -12q-6 -2 -31.5 -13.5t-54 -27.5t-51 -34.5t-22.5 -33.5z" />
<glyph unicode="e" horiz-adv-x="303" d="M-27 66v2q0 31 20.5 63.5t52.5 59t69 44t67 17.5q23 0 50.5 -10.5t27.5 -42.5q0 -35 -25.5 -60.5t-61.5 -42t-75 -25t-65 -8.5q0 -8 12 -13t27.5 -7t31 -3t23.5 -1q35 0 72 7t65 15q33 10 41 16.5t10 6.5q8 0 9 -6v-4l-2 -2q-29 -18 -64 -37t-73 -30t-80 -14 q-8 -1 -17 -1q-33 0 -63 10q-23 10 -35.5 24.5t-16.5 41.5zM53 98q8 2 29.5 12.5t36.5 18.5l20 14q12 10 25.5 22.5t17.5 20.5q-4 0 -17 -5t-26 -11l-10 -6q-14 -10 -28.5 -20.5t-30.5 -26.5q-4 -4 -13.5 -12.5t-3.5 -6.5z" />
<glyph unicode="f" horiz-adv-x="372" d="M-215 -412q0 6 8 21.5t18.5 36t24.5 43t27 43.5q88 135 163.5 240.5t141.5 197.5q-39 -29 -78 -56.5t-86 -47.5q-23 -10 -30 -13.5l-11 -5.5q-14 -4 -18 -6t-8 -2q-6 0 -7 2v4q0 6 7.5 9t11.5 7q25 16 49.5 30.5t75.5 55.5q41 35 91 82t99 105q41 45 102.5 120.5 t137.5 184.5q4 6 9 12t30 39q4 4 21.5 17.5t41.5 13.5q6 0 12.5 -3t6.5 -9q0 -14 -29 -56q-27 -45 -74 -107.5t-129 -176.5l-129 -183q6 -18 6 -34q0 -23 -6 -46.5t-12 -42.5q6 -6 13 -9t24 -3q6 0 22.5 5t32.5 11.5t30.5 11.5t18.5 5h2q6 0 6 -10l-6 -4q-4 -4 -17 -14.5 t-31.5 -20.5t-40 -19.5t-40.5 -9.5q-20 0 -35 6q-23 -53 -57.5 -108.5t-76.5 -110.5t-89 -108.5t-92 -98.5q-10 -10 -32.5 -30.5t-55.5 -20.5q-25 0 -34 17.5t-9 21.5v4v6v4zM-141 -389q53 41 103 95t95 112.5t81 115t61 103.5q-12 20 -17 39q-6 -10 -12 -17.5t-12 -17.5 l-174 -244q-33 -47 -63.5 -90t-57.5 -88q-4 -4 -4 -8z" />
<glyph unicode="g" horiz-adv-x="299" d="M-274 -416q0 16 4 29.5t8 26.5q18 45 51 93t74 93t88 83t98 66l25 35q-14 -8 -35 -10t-37 2q-20 4 -26.5 22.5t-6.5 28.5q0 43 23.5 79t60.5 61.5t80 41t82 17.5q16 -4 20.5 -8t6.5 -13q4 2 14 5.5t18 3.5q10 0 21.5 -4.5t11.5 -14.5q0 -8 -6 -16t-12 -17l-117 -157 q23 6 47.5 12t38.5 10l41 10q10 4 13 4.5t7 0.5q6 0 7 -5v-2q0 -8 -27 -15t-41 -13l-14 -4q-16 -4 -44 -13.5t-57 -23.5l-131 -180q-23 -29 -44 -60t-48 -61l-88 -109q-12 -16 -26 -29.5t-37 -13.5q-43 0 -43 45zM-207 -371q39 49 75 101.5t73 97.5l41 55 q-57 -53 -108.5 -116.5t-80.5 -137.5zM29 51q6 0 22 4q33 10 55.5 25.5t40 33t29.5 36t27 34.5q-2 0 -18.5 -3t-41 -13t-52.5 -31.5t-54 -60.5q-8 -14 -8 -25z" />
<glyph unicode="h" horiz-adv-x="395" d="M-74 39q0 8 15.5 13t33.5 18q20 43 65.5 108.5t109 148.5t144.5 179t177 201q12 12 30.5 31.5t47.5 19.5q35 0 44 -23.5t9 -52.5q0 -37 -28.5 -90t-74.5 -111.5t-103.5 -117t-114.5 -107.5l2 2l12 -4q2 -2 20.5 -13.5t16.5 -13.5q0 -6 -2 -8v-2q-16 -45 -45 -82t-49 -84 q0 -12 24.5 -12t54 6t57 13.5t34.5 11.5q2 2 6 2q8 0 4 -4q0 -12 -21.5 -24.5t-50.5 -24t-57.5 -18.5t-40.5 -7q-18 0 -44 12t-26 49q0 20 7 37t18 35q-16 -10 -46 -24.5t-58.5 -28t-49 -26.5t-20.5 -23q-4 -4 -23.5 -16.5t-36.5 -16.5h-2q-10 0 -10 22q2 8 4 15.5t6 15.5 q-25 -8 -25.5 -9t-7.5 -1q-2 0 -6 4zM106 154q57 43 126 107.5t132.5 136t112 144.5t64.5 134q4 12 4 16q-49 -49 -108.5 -118.5t-120 -143.5t-115 -146.5t-95.5 -129.5z" />
<glyph unicode="i" horiz-adv-x="290" d="M-39 68q0 2 1 2t1 2h2q0 4 4 4t8 4q20 10 50 35.5t60 53.5t51.5 50.5t25.5 26.5l4 2q-4 0 4 -2t19.5 -7.5t20.5 -11.5t5 -14q-10 -18 -23.5 -35.5t-25.5 -36t-21.5 -38t-7.5 -44.5q0 -4 10.5 -7t22.5 -3q25 2 56.5 8t52.5 11l32 8q2 0 4 1t7 1h2l5 -10t-9 -9 q-49 -25 -84 -42t-86 -17q-23 0 -43 10q-33 20 -33 66v10q-6 -4 -20.5 -8t-30 -8t-30.5 -7.5t-24 -3.5q-2 0 -6 2t-4 7zM240 391q0 6 2 11.5t4 11.5l4 8q2 0 2 2t2 4l4 4h4q-4 0 3 -3t17.5 -7t20.5 -10t10 -13q0 -4 -2 -6q0 -2 -4 -6l-2 -4q0 -2 2 -4v-2q0 -6 -6 -13.5 t-12 -11.5l-25 -16l-16 31q-8 14 -8 24z" />
<glyph unicode="j" horiz-adv-x="260" d="M-305 -414q0 53 33.5 111.5t83 113t105.5 100.5t99 73q8 4 11 6l22 28q10 14 19.5 27.5t17.5 26.5q-47 -16 -100.5 -30.5t-108.5 -14.5h-4q-2 2 -2 6q-4 6 2 6l12 4q37 14 84 33.5t103 52.5l28 16q16 10 34 24.5t34 25.5l4 4q16 12 32.5 26.5t39.5 14.5q10 0 21 -5.5 t9 -15.5q-2 -6 -12 -20.5t-20 -28.5l-92 -127q33 10 67.5 17.5t61.5 11.5q2 0 6 -1t4 -5q0 -8 -10.5 -11.5t-31 -8.5t-52 -13t-72.5 -27l-143 -194q-35 -47 -79 -102.5t-112 -141.5q-10 -10 -21.5 -20.5t-27.5 -10.5q-29 0 -37 17.5t-8 31.5zM-242 -373q37 49 86 110 t117 163q-37 -35 -71.5 -73t-63.5 -81q-20 -31 -36.5 -65.5t-31.5 -53.5zM287 391q0 6 2 11.5t4 11.5l4 8q2 0 2 2t2 4l4 4h4q2 0 10 -4q4 -4 12.5 -8t18.5 -8q10 -8 10 -13q0 -6 -6 -12l-2 -4q0 -2 2 -4v-2q0 -6 -6 -13.5t-12 -11.5l-25 -16l-16 31q-8 14 -8 24z" />
<glyph unicode="k" d="M-80 39l8 5q9 5 19 11t18 12.5t10 6.5q16 33 58.5 99.5t106 152.5t147.5 185t182 198q18 23 38.5 36t51.5 11q23 -8 33 -32.5t2 -47.5q-6 -35 -32.5 -83t-68.5 -103.5t-95.5 -113t-112.5 -112.5q12 0 24.5 -13t12.5 -26q0 -14 -12.5 -28.5t-22.5 -24.5 q-16 -16 -30.5 -32.5t-37.5 -39.5q6 -10 6 -30q0 -4 -3 -12.5t-1 -12.5q4 -8 15.5 -8t27.5 4q14 2 34.5 8t39 12.5t32 10.5t17.5 4q8 0 8 -6q0 -8 -25.5 -26.5t-103.5 -43.5q-8 -2 -15 -3t-18 -1q-29 0 -43 9t-18 20.5t-4 22.5v18q-6 -2 -12 -3h-2q-18 2 -25.5 14.5 t-7.5 28.5l2 11q-12 -8 -27.5 -17.5t-42.5 -25.5q-12 -20 -18 -31.5t-12.5 -20t-17.5 -13.5t-36 -13h-2q-6 0 -8 8t-2 14q0 10 8 31q-14 -6 -20 -9t-8.5 -4t-4.5 -1h-6q-2 0 -6 4zM131 193q35 27 61.5 42t43.5 35q51 47 99 102.5t89 110t70 104.5t41 87q4 12 4 18 q-41 -41 -94.5 -103.5t-108.5 -131t-108.5 -139t-96.5 -125.5z" />
<glyph unicode="l" horiz-adv-x="286" d="M-86 41q0 2 4 4t16.5 7t33 17.5t52.5 34.5q0 10 3.5 21.5t7.5 21.5q12 31 60 101.5t115.5 157t145.5 178.5t152 166q4 4 12 6t25 2q18 0 34.5 -14.5t16.5 -43.5q0 -53 -47 -130.5t-121 -159.5t-161 -159t-167 -128q-4 -6 -5 -14.5t-3 -16.5v-13t6 -13.5t20.5 -10.5 t41.5 -2q92 6 126.5 21.5t36.5 15.5q8 0 9 -10l-11 -8q-4 -4 -21 -13.5t-43 -20.5t-56.5 -21.5t-63.5 -16.5q-20 0 -44.5 3t-51.5 32q-14 20 -14 45q-20 -10 -49 -26.5t-54 -18.5q-6 0 -6 6zM125 178q23 16 61.5 52t83.5 81t91.5 97.5t84 103.5t62 98t24.5 82 q-96 -96 -161.5 -178t-128.5 -166q-33 -41 -61.5 -82t-55.5 -86v-2z" />
<glyph unicode="m" horiz-adv-x="544" d="M-76 158q8 12 27.5 26.5t44 25.5t50.5 19.5t44 10.5q8 0 19.5 -10.5t13.5 -26.5q0 -6 -4 -12.5t-4 -8.5l-41 -57q16 12 31.5 24.5t29.5 22.5l8 6q10 10 26.5 21.5t33.5 21.5q18 12 37 27q20 10 43.5 0t23.5 -33q-4 -12 -15 -38.5t-36 -76.5l168 105q10 14 13 20t5 8h10 q9 0 20 -2t20.5 -7t9.5 -13q0 -10 -13.5 -31.5t-29 -46t-30.5 -48.5t-17 -36l4 -4t8 -2q66 0 106.5 17.5t44.5 17.5q12 0 9 -10q-6 -6 -19.5 -18.5t-35 -25t-49 -21.5t-62.5 -9q-4 0 -14.5 1t-21.5 6t-20.5 17.5t-9.5 34.5q0 12 11.5 38t15.5 36q-14 -10 -29.5 -23.5 t-32.5 -23.5l-36 -29q-14 -12 -41 -32.5t-50 -20.5q-20 0 -25 15.5t-5 21.5q4 20 8 29.5t8 17.5l23 53q-14 -10 -45 -33.5t-65 -48t-65.5 -43t-48.5 -18.5q-8 0 -18 9t-12 15q0 12 12 34t30.5 46.5t39 48t36.5 39.5l19 19q-14 0 -33.5 -5t-39 -12.5t-35 -14.5t-21.5 -9 q-12 -4 -16.5 -7t-8.5 -3t-4 6z" />
<glyph unicode="n" horiz-adv-x="380" d="M-51 25q4 16 6 18q10 27 32.5 52.5t43.5 47.5q23 27 33 36t14 18q0 4 -6 4q-29 0 -56.5 -11.5t-48.5 -19.5q-6 0 -6 6q0 16 68 43q10 4 25.5 8t25.5 2q8 0 19.5 -9t11.5 -21q0 -8 -14.5 -32t-37.5 -56q76 51 133.5 93t67.5 48q12 4 38 -5t26 -20q0 -6 -2 -10 q-6 -16 -29 -50t-62 -106q-2 -4 -4 -10q0 -8 33 -8q70 0 108 19.5t35 19.5h5q10 0 6 -7t-8 -12q-4 -4 -19.5 -15t-39 -23.5t-51.5 -21.5t-58 -9q-4 0 -15.5 1t-24 7t-21.5 18.5t-9 34.5q0 16 9 36t16 32q-10 -8 -40 -28.5t-63 -42t-62.5 -39t-41.5 -17.5q-37 0 -37 29z" />
<glyph unicode="o" horiz-adv-x="389" d="M-84 41q0 4 8 8q41 16 84 42t76 59q53 53 87 74.5t46 21.5h2h2l4 -4q4 4 11.5 4h11.5q39 0 55 -29t16 -57q0 -45 -22 -86q6 -4 19.5 -5t27.5 -1q33 0 50.5 6t19.5 6q8 -4 8 -8l-2 -2l-8 -7q-10 -8 -44 -19t-81 -11h-2q-4 0 -8.5 1t-8.5 1q-29 -27 -63.5 -39t-67.5 -12 q-27 0 -59.5 15t-32.5 54q0 16 6 33q-23 -14 -46 -22.5t-42 -14.5q-23 -8 -41 -12q-2 0 -6 4zM113 59q0 -6 6 -11t28 -5q16 0 33 2t31 12q-25 16 -33 41t-8 41l-8 -7t-19.5 -18.5t-20.5 -26t-9 -28.5zM229 139q0 -8 4.5 -21.5t20.5 -27.5q16 16 24.5 40t8.5 44 q0 16 -11.5 32.5t-31.5 16.5q0 -4 5 -10t5 -14t-12 -13h-2q0 -2 -1 -3t-1 -3q-8 -16 -9 -41z" />
<glyph unicode="p" horiz-adv-x="421" d="M-305 -426q0 29 20.5 71t52 88t73.5 95t85 94t84 83t72 63q-35 -10 -68 -20q-21 -5 -48 -5q-17 0 -36 2q-14 0 -14 8q0 4 4 8q49 0 90 21.5t90 54.5q29 18 37 26.5t17 12.5q23 16 50 44t42 38l2 2q0 -2 7 -4t17 -10q55 0 96.5 -25.5t41.5 -73.5q0 -25 -12.5 -51 t-35.5 -37q14 0 39 8.5t33 8.5q4 2 15 -4q2 -4 4 -6l-19 -6q-20 -7 -48 -16t-59.5 -21.5t-54.5 -24.5q-10 -6 -19 5t-9 22q6 25 23.5 31t35.5 24q29 23 36 40t7 25q0 16 -20.5 24.5t-38.5 8.5h-13.5t-11.5 -4l-74 -111q-6 -10 -35.5 -55t-71.5 -107.5t-92 -133t-102 -134.5 q-12 -12 -28.5 -30.5t-36 -35t-41 -27.5t-41.5 -11q-16 0 -25.5 5t-13.5 13.5t-5 15.5t-1 11zM-244 -406q12 10 37 33t47 49q27 29 49.5 63t44.5 66q35 47 66 94.5t57 88.5l11 16q8 10 15 20.5t13 20.5q-59 -53 -128.5 -137t-139.5 -180l-37 -54q-14 -18 -22.5 -39.5 t-12.5 -40.5z" />
<glyph unicode="q" horiz-adv-x="411" d="M-172 -403q12 41 36.5 77.5t49.5 77.5t47.5 75t44 64.5t43 63.5t47.5 70q-4 -4 -12 -9q-6 -4 -18.5 -7t-25.5 -6t-23.5 -4t-12.5 1q-12 0 -20.5 9t-11.5 19.5t-4 21.5t1 16q20 55 51 91t66 57.5t68.5 29.5t58.5 8q16 -4 21.5 -10t7.5 -17q12 14 18 25l12 4q12 4 25 4 q10 0 20.5 -3t10.5 -13q0 -4 -4.5 -11.5t-8.5 -15.5q-8 -10 -13 -18.5t-11 -16.5q-6 -16 -8 -40.5t4 -53.5q6 -16 16 -25.5t43 -9.5q8 0 22.5 3t29 7.5t24.5 7.5t12 3h2q14 0 7 -10.5t-27.5 -22.5t-46 -23.5t-43.5 -11.5q-16 0 -33 2t-31 12q-37 -78 -96.5 -171t-128.5 -175 q-16 -20 -36.5 -43.5t-43.5 -45t-46.5 -35t-43.5 -13.5q-25 2 -36 20.5t-3 41.5zM-104 -393q10 4 31.5 23.5t48 47t55 60t55.5 63.5q51 66 91 125.5t65 108.5q-10 10 -14.5 23.5t-6.5 23.5q-29 -41 -69.5 -98.5t-96.5 -139.5l-82 -118q-10 -16 -22 -34t-25 -34v-2zM27 51 q6 0 22 4q37 12 63.5 27.5t45 34t31 36t24.5 31.5h-14q-4 0 -26.5 -6t-50.5 -20.5t-55.5 -41t-39.5 -65.5z" />
<glyph unicode="r" horiz-adv-x="356" d="M-45 66l6 6q4 4 37 25.5t63 56.5q8 8 18.5 23.5t20 30.5t17.5 27.5t12 16.5q-4 0 5 -2t21.5 -5t22.5 -7.5t10 -10.5v-17t7 -15q4 -2 5 -2t5 -3q31 31 35 33h2q10 0 29.5 -13t19.5 -24q0 -10 -15.5 -22t-27.5 -25q-16 -16 -40 -38.5t-28 -49.5q8 -8 29.5 -7t47.5 5t50.5 9 t36.5 10q29 8 32 9t7 1q6 0 6 -12l-10 -7q-6 -4 -24.5 -15t-44 -22.5t-56.5 -20.5t-64 -9q-18 0 -42.5 11t-28.5 44q-4 27 4 43t16 29l2 2q4 8 10.5 14t10.5 10q-4 2 -10.5 4.5t-10.5 6.5q-16 -16 -39.5 -34t-49 -33t-49 -25.5t-38.5 -12.5q-10 8 -10 15z" />
<glyph unicode="s" horiz-adv-x="321" d="M-117 31q0 2 1 3t12 5q49 16 93 43t80.5 55.5t65.5 56t45 44.5q4 10 9.5 21t17.5 11q10 0 28.5 -8t18.5 -14q-4 -16 -1 -27.5t9 -40.5q5 -20 5 -38t-5 -34q-10 -30 -39 -63h2h4q27 0 43.5 3t28.5 8t22.5 11.5t26.5 12.5q6 0 6 -4q0 -2 -4 -6q0 -2 -11 -12.5t-28.5 -22.5 t-40 -21.5t-49.5 -9.5q-29 0 -39 10q-25 -16 -47 -21t-45 -5q-47 0 -66.5 16t-23.5 33q-12 0 -28.5 -5t-33 -9.5t-33 -4.5t-24.5 13zM25 45q14 -16 45 -16q16 0 38.5 9t43 23.5t35 34t14.5 37.5v23q-29 -25 -70 -56.5t-106 -54.5z" />
<glyph unicode="t" horiz-adv-x="282" d="M-225 377q0 14 5 16t15 4h2h36t70 -1t133 -3t228 -8q35 49 65.5 90t51.5 64q10 16 17.5 22t11.5 10q-2 0 6 -1t18 -4t18.5 -8t8.5 -13q0 -12 -6 -21q-10 -14 -32 -44.5t-75 -102.5q141 -10 210 -17.5t95.5 -11.5t25.5 -7t-1 -5q-2 0 -2 -2l-4 -4h-2q-4 0 -92.5 -1 t-268.5 -1q-23 -23 -50.5 -55.5t-54 -70.5t-50 -76t-35.5 -69q-6 -16 16 -16q25 0 52.5 5t51 12.5t39 13.5t17.5 8q4 4 13 -2t5 -12q0 -4 -10 -9q-4 -4 -8 -6l-15 -8q-14 -8 -37.5 -17.5t-54 -17.5t-65.5 -8h-6q-12 0 -29.5 10t-17.5 27q0 23 10 45t20 45v2q2 2 2 3t2 3 q-14 -10 -37.5 -28.5t-46 -35t-41 -24.5t-22.5 2q0 4 2 8q12 6 41 31t65.5 61.5t77.5 83t82 95.5q-74 0 -146.5 1t-133 1t-100.5 1t-48 1h-2q-2 2 -11 13t-9 32z" />
<glyph unicode="u" horiz-adv-x="354" d="M-31 51q0 33 19.5 69t44.5 64q27 35 63 68l2 2q14 0 33 -6t23 -23q-8 -14 -18.5 -28.5t-24.5 -30.5q-4 -4 -15.5 -18.5t-26 -33t-24.5 -37t-10 -28.5h2h12q14 2 37 15.5t47.5 34t49 43t44.5 42.5q18 20 27.5 33.5t26.5 28.5q10 8 29.5 -3.5t19.5 -19.5q0 -10 -6.5 -20 t-12.5 -23q-41 -66 -62.5 -93.5t-21.5 -37.5q6 -6 19 -6q6 0 27.5 4t46 10t43 13.5t18.5 13.5h2q8 0 8 -6q0 8 -1 1t-14.5 -21.5t-43 -32t-84.5 -29.5q-29 -6 -45.5 4t-24.5 24.5t-9 29t5 20.5q-29 -29 -63.5 -56.5t-85.5 -27.5q-20 0 -38 18.5t-18 42.5z" />
<glyph unicode="v" horiz-adv-x="290" d="M-10 176q0 -2 4 6q-4 -4 6 3.5t27.5 16.5t40 17t45.5 10h2q6 0 15 -10t9 -22q0 -27 -22.5 -57.5t-32.5 -57.5q37 25 71.5 53.5t62.5 54t48.5 43t26.5 21.5h2h4q2 0 5 -2t7 -4t14.5 -13.5t10.5 -21.5q0 -6 -1 -9t-14.5 -14.5t-44 -36t-88.5 -73.5q-31 -27 -114 -74 q-16 -10 -24.5 -10h-14.5q-16 0 -21.5 9t-4.5 21.5t7.5 27t12.5 26.5q10 23 26.5 48.5t34.5 47.5q10 12 12 17.5t2 7.5h-8q-2 0 -16 -5.5t-30.5 -10.5l-33 -10t-20.5 -5q-6 0 -6 6z" />
<glyph unicode="w" horiz-adv-x="468" d="M-23 176q0 6 30 23.5t69 29.5q16 4 33.5 -2t17.5 -30q0 -6 -1 -9.5t-1 -7.5q-10 -18 -26.5 -46t-26.5 -50l10 6q45 35 89 67.5t91 73.5q10 10 19 11q4 0 6 -2q10 -4 18 -9q6 -4 12.5 -9t6.5 -15q0 -6 -9 -12q-16 -16 -32.5 -42t-26.5 -77q53 41 105.5 85t107.5 85h4h-2 q12 -4 23 -10q10 -4 17 -12.5t7 -18.5q0 -2 -8 -10q-4 -4 -12.5 -11.5t-20.5 -17.5l-86 -72q-37 -31 -83 -57.5t-79 -36.5q-16 0 -22 9t-6 16q0 31 11 54t24 44h-3q-23 -18 -52 -41t-59 -43.5t-54.5 -32.5t-36.5 -12h-2q-23 10 -26 17t-3 18q0 20 13.5 50t30.5 56.5t30.5 46 t13.5 21.5q0 6 -4 4q-35 -10 -62.5 -23.5t-37.5 -13.5q-4 0 -4 4v-2q-2 0 -3 4z" />
<glyph unicode="x" horiz-adv-x="307" d="M-113 -12q0 4 7 10q-2 -2 32.5 28.5t87.5 77.5q-12 45 -14 59.5t-2 31.5l2 4q4 4 12 6q10 2 35 6q10 0 12 -3t4 -7v-2q0 -12 7 -45q39 33 77.5 66.5t71.5 61t54.5 45t25.5 21.5q12 0 30.5 -11t18.5 -28q0 -4 -6 -10q-10 -10 -27.5 -25.5t-56.5 -48.5l-35 -28 q-23 -20 -57.5 -45t-73.5 -50q0 -18 38 -38.5t83 -20.5q35 0 70.5 9t58.5 18q6 0 10 -4q0 -5 -2 -7q-12 -12 -51 -38.5t-123 -26.5q-53 0 -80.5 19.5t-60.5 52.5q-66 -41 -105 -62.5t-34 -21.5q-4 0 -7 2q-2 2 -2 4z" />
<glyph unicode="y" horiz-adv-x="315" d="M-264 -422q0 43 29.5 95.5t74.5 104.5t100.5 99t104.5 82l35 49q-16 -12 -51 -12t-47.5 19.5t-12.5 35.5q0 27 10.5 54.5t27 54t35.5 51.5t38 43q2 2 12 1t19.5 -5t17.5 -10.5t8 -12.5q0 -4 -4 -8l-2 -2q-23 -29 -48.5 -66.5t-45.5 -93.5q31 0 62.5 20.5t58.5 43.5 q37 37 53 60.5t25.5 35.5t17.5 17.5t29 5.5q10 0 20 -5.5t10 -15.5q0 -6 -2 -10t-11 -17.5t-30.5 -41t-58.5 -78.5l-29 -37h6q55 23 88 30t35 7h6q8 0 9 -6q0 -4 -3.5 -5.5t-5.5 -3.5h-2q-8 -2 -17 -4t-22.5 -7t-34 -13t-51.5 -23q-25 -10 -53 -41.5t-61 -75t-70 -95.5 t-76 -103q-29 -37 -48 -60.5t-31.5 -39t-19.5 -23.5t-15 -16q-10 -10 -15.5 -12.5t-9.5 -4.5h-4q-29 0 -40 10.5t-11 28.5zM-176 -340q27 35 51.5 67.5t48.5 67.5l13 17q-35 -37 -63 -78t-50 -74z" />
<glyph unicode="z" horiz-adv-x="315" d="M-248 -424q0 47 30 98.5t75 102.5t100 98t109 88q8 10 20 27.5t26.5 34t27 30t18.5 15.5q-14 6 -21.5 24.5t-7.5 34.5q0 8 4 16q-31 -25 -60.5 -45t-72.5 -32l-18 -7h-9h-2q-4 0 -4 2q-2 2 -2 5q0 4 4 6t16.5 11t37 30.5t65.5 68.5q23 29 47.5 62t38.5 67h4h-2 q14 -4 27 -8q10 -4 19 -9t9 -11t-6 -19.5t-8 -21.5h2q10 10 14 10q10 0 29 -16.5t19 -22.5q0 -14 -21.5 -27.5t-32.5 -23.5q2 0 5.5 2t11.5 2q14 0 21 -9t7 -16q0 -29 -18 -53t-47 -33q0 -12 -8 -22q41 10 79.5 26.5t55.5 18.5h2h2h2q8 0 8 -6q0 -4 -3 -5t-5 -3h-2 q-4 0 -14.5 -4.5t-12.5 -4.5q-35 -16 -60.5 -27.5t-60 -44t-89 -98t-148.5 -190.5q-14 -18 -35.5 -45t-43 -52.5t-40 -44t-27.5 -20.5q-16 0 -35.5 9.5t-19.5 31.5zM-152 -332q10 12 18.5 24.5t18.5 22.5l64 86q-12 -6 -26.5 -23.5t-29 -38t-26.5 -39.5t-19 -32zM195 127 q0 -2 2 -4q4 4 7 13t7 14q-4 -4 -9 -13.5t-7 -9.5z" />
<glyph unicode="|" horiz-adv-x="323" d="M131 -100q8 184 14.5 362t9.5 324.5t4 245t1 122.5q2 23 2 30t18 17q23 14 34 -7t11 -38q0 -12 2 -83.5t-4 -201.5t-23.5 -319.5t-52.5 -441.5q0 -14 -6 -16q-4 -2 -10 6z" />
<glyph unicode="&#xa1;" horiz-adv-x="659" d="M59 -311.5q2 10.5 4 18.5q4 12 32 77.5t84 183.5t147.5 286t222.5 385q8 12 12 12q6 0 6 -10q-80 -166 -155.5 -328t-136 -294t-100.5 -222t-50 -113q-10 -20 -12 -26t-25 -10q-12 -2 -19.5 4t-9.5 16t0 20.5zM563 702q0 8 6 15l2 4q0 2 -2 4v2q0 6 6 13t13 12l24 16 l17 -31q2 -2 6 -10v-2q2 -6 2 -19q-2 -4 -3 -8t-3 -8l-4 -8l-9 -10h-4q-4 0 -10 4q-15 8 -31 16q-10 8 -10 10z" />
<glyph unicode="&#xa8;" horiz-adv-x="415" d="M148.5 338.5q-7.5 17.5 1.5 40.5q10 18 12 18q10 0 30.5 -10t24.5 -20q0 -31 -27 -50l-22 -16q-12 20 -19.5 37.5zM271.5 338.5q-7.5 17.5 0.5 40.5q11 18 13 18q10 0 30.5 -10t24.5 -20q0 -31 -27 -50l-22 -16q-12 20 -19.5 37.5z" />
<glyph unicode="&#xad;" horiz-adv-x="696" d="M90 78q0 4 4 8q80 0 159 2t142.5 5t107.5 6t54 5h13.5t7.5 -18q6 -20 -9.5 -34.5t-9.5 -10.5q6 2 -23.5 -1t-90 -4t-148.5 6t-199 30q-6 0 -8 6z" />
<glyph unicode="&#xb4;" horiz-adv-x="411" d="M125 334q0 6 8 8q27 -4 51.5 7t44 25.5t32.5 25t20 3.5q4 -4 19 -17t15 -30q0 -20 -24.5 -29.5t-56 -12.5t-63.5 1.5t-44 12.5q-2 2 -2 6z" />
<glyph unicode="&#xb8;" horiz-adv-x="83" d="M-59 -51q0 6 6 6q16 -4 33.5 -9t35.5 -5q20 0 25 2q4 0 4 2q-4 4 -15.5 5t-17.5 3q-4 2 -8 8q-6 8 -6 29q0 2 4 10t10 17.5t12.5 16.5t10.5 7q2 0 16.5 -4t30.5 -21q0 -4 -6 -16l-2 -4q4 -4 17 -16.5t13 -34.5q0 -20 -16 -37t-41 -17q-10 0 -27.5 3.5t-35 10.5t-30.5 18 t-13 26z" />
<glyph unicode="&#xbf;" horiz-adv-x="903" d="M67 -291q0 47 39 115.5t91 139.5t105.5 134.5t84.5 101.5q47 59 99 130t96 134.5t74 107.5t32 52q2 12 12 13l2 -2q2 -2 2 -11q-6 -14 -12 -26.5t-13.5 -26.5t-17.5 -33.5t-27 -48.5q-29 -51 -74.5 -119.5t-100 -146.5t-115 -163t-115.5 -169q-12 -18 -29.5 -43.5 t-33 -50.5t-25.5 -45.5t-6 -28.5q6 -14 36.5 -8t73.5 25.5t92.5 48t92.5 58.5t73.5 57.5t34.5 41.5l4 3q4 2 12 4q16 4 27 4q29 0 29 -17q0 -4 -6.5 -14t-14.5 -20q-14 -18 -55 -61.5t-98.5 -86.5t-126 -75.5t-138.5 -32.5q-35 0 -69.5 10t-34.5 49zM688 708q0 31 26 50 l23 16q12 -20 19 -37.5t-1 -40.5q-10 -18 -12 -18q-10 0 -30.5 10t-24.5 20z" />
<glyph unicode="&#xc0;" horiz-adv-x="829" d="M10 242q0 12 4 15t15 3q55 6 127.5 4t142.5 -2q164 217 295 337t229.5 176t164 66.5t95.5 10.5q29 0 53.5 -5t28.5 -22q2 -10 -2 -22q-2 -6 -4 -10q-4 -6 -26.5 -40t-68.5 -101.5t-120 -172t-180 -250.5q8 -2 22.5 -3t67.5 -7q4 0 9 -2t5 -6q0 -8 -26 -8h-36t-63 -2 q-66 -94 -108.5 -154.5t-67 -95.5t-33.5 -49l-10 -13l-4 2q-2 2 -2 11q41 82 83 152.5t87 146.5q-84 -4 -194.5 -6t-202.5 -2q-59 -72 -106.5 -124.5t-80.5 -80.5q-18 -18 -26 -19q-6 0 -6 6q0 4 2 5.5t10 11.5q8 8 53 62.5t111 140.5h-217l-2 2q-2 0 -10.5 11t-8.5 34z M350 260l152.5 -10t206.5 -17q43 72 95 153t101 156.5t91 139t69 102.5h-16q-14 0 -50 -6t-90 -28q-78 -35 -166 -100.5t-180 -157.5q-59 -59 -113.5 -120t-99.5 -112zM985 931q0 16 15.5 29.5t19.5 17.5q6 6 19.5 -4t32.5 -24.5t44 -25.5t51 -7q8 -2 8 -8q0 -4 -2 -6 q-12 -8 -43.5 -12.5t-63.5 -1.5t-56.5 12.5t-24.5 29.5z" />
<glyph unicode="&#xc1;" horiz-adv-x="829" d="M10 242q0 12 4 15t15 3q55 6 127.5 4t142.5 -2q164 217 295 337t229.5 176t164 66.5t95.5 10.5q29 0 53.5 -5t28.5 -22q2 -10 -2 -22q-2 -6 -4 -10q-4 -6 -26.5 -40t-68.5 -101.5t-120 -172t-180 -250.5q8 -2 22.5 -3t67.5 -7q4 0 9 -2t5 -6q0 -8 -26 -8h-36t-63 -2 q-66 -94 -108.5 -154.5t-67 -95.5t-33.5 -49l-10 -13l-4 2q-2 2 -2 11q41 82 83 152.5t87 146.5q-84 -4 -194.5 -6t-202.5 -2q-59 -72 -106.5 -124.5t-80.5 -80.5q-18 -18 -26 -19q-6 0 -6 6q0 4 2 5.5t10 11.5q8 8 53 62.5t111 140.5h-217l-2 2q-2 0 -10.5 11t-8.5 34z M350 260l152.5 -10t206.5 -17q43 72 95 153t101 156.5t91 139t69 102.5h-16q-14 0 -50 -6t-90 -28q-78 -35 -166 -100.5t-180 -157.5q-59 -59 -113.5 -120t-99.5 -112zM959 903q0 6 8 8q27 -4 51.5 7t44 25.5t32.5 25t20 3.5q4 -4 19 -17t15 -30q0 -20 -24.5 -29.5 t-56 -12.5t-63.5 1.5t-44 12.5q-2 2 -2 6z" />
<glyph unicode="&#xc2;" horiz-adv-x="829" d="M10 242q0 12 4 15t15 3q55 6 127.5 4t142.5 -2q164 217 295 337t229.5 176t164 66.5t95.5 10.5q29 0 53.5 -5t28.5 -22q2 -10 -2 -22q-2 -6 -4 -10q-4 -6 -26.5 -40t-68.5 -101.5t-120 -172t-180 -250.5q8 -2 22.5 -3t67.5 -7q4 0 9 -2t5 -6q0 -8 -26 -8h-36t-63 -2 q-66 -94 -108.5 -154.5t-67 -95.5t-33.5 -49l-10 -13l-4 2q-2 2 -2 11q41 82 83 152.5t87 146.5q-84 -4 -194.5 -6t-202.5 -2q-59 -72 -106.5 -124.5t-80.5 -80.5q-18 -18 -26 -19q-6 0 -6 6q0 4 2 5.5t10 11.5q8 8 53 62.5t111 140.5h-217l-2 2q-2 0 -10.5 11t-8.5 34z M350 260l152.5 -10t206.5 -17q43 72 95 153t101 156.5t91 139t69 102.5h-16q-14 0 -50 -6t-90 -28q-78 -35 -166 -100.5t-180 -157.5q-59 -59 -113.5 -120t-99.5 -112zM916 916q0 4 3 4t5 2q59 14 82.5 25.5t40.5 23.5q27 16 30 17q6 0 24.5 -11.5t57.5 -42.5 q45 -35 60.5 -41t15.5 -14t-10 -8q-29 0 -74 10t-76 29q-12 -6 -32.5 -10.5t-44 -5.5t-45 2.5t-33.5 11.5z" />
<glyph unicode="&#xc3;" horiz-adv-x="829" d="M10 242q0 12 4 15t15 3q55 6 127.5 4t142.5 -2q164 217 295 337t229.5 176t164 66.5t95.5 10.5q29 0 53.5 -5t28.5 -22q2 -10 -2 -22q-2 -6 -4 -10q-4 -6 -26.5 -40t-68.5 -101.5t-120 -172t-180 -250.5q8 -2 22.5 -3t67.5 -7q4 0 9 -2t5 -6q0 -8 -26 -8h-36t-63 -2 q-66 -94 -108.5 -154.5t-67 -95.5t-33.5 -49l-10 -13l-4 2q-2 2 -2 11q41 82 83 152.5t87 146.5q-84 -4 -194.5 -6t-202.5 -2q-59 -72 -106.5 -124.5t-80.5 -80.5q-18 -18 -26 -19q-6 0 -6 6q0 4 2 5.5t10 11.5q8 8 53 62.5t111 140.5h-217l-2 2q-2 0 -10.5 11t-8.5 34z M350 260l152.5 -10t206.5 -17q43 72 95 153t101 156.5t91 139t69 102.5h-16q-14 0 -50 -6t-90 -28q-78 -35 -166 -100.5t-180 -157.5q-59 -59 -113.5 -120t-99.5 -112zM979 969q-6 35 22 41q18 -4 21 -6q27 -8 55.5 -29t50.5 -39q29 -20 38 -29.5t20 -13.5q2 2 2 8 q-2 31 1 32t13 11q4 4 7 -2t5 -15t3 -18.5t1 -15.5t-8 -18.5t-20 -14.5q-4 0 -20.5 8.5t-39 19.5t-46 24.5t-40.5 23.5q-8 0 -9 -7t-1 -14.5t-3 -11.5t-17 2q-16 20 -24.5 29.5t-10.5 34.5z" />
<glyph unicode="&#xc4;" horiz-adv-x="829" d="M10 242q0 12 4 15t15 3q55 6 127.5 4t142.5 -2q164 217 295 337t229.5 176t164 66.5t95.5 10.5q29 0 53.5 -5t28.5 -22q2 -10 -2 -22q-2 -6 -4 -10q-4 -6 -26.5 -40t-68.5 -101.5t-120 -172t-180 -250.5q8 -2 22.5 -3t67.5 -7q4 0 9 -2t5 -6q0 -8 -26 -8h-36t-63 -2 q-66 -94 -108.5 -154.5t-67 -95.5t-33.5 -49l-10 -13l-4 2q-2 2 -2 11q41 82 83 152.5t87 146.5q-84 -4 -194.5 -6t-202.5 -2q-59 -72 -106.5 -124.5t-80.5 -80.5q-18 -18 -26 -19q-6 0 -6 6q0 4 2 5.5t10 11.5q8 8 53 62.5t111 140.5h-217l-2 2q-2 0 -10.5 11t-8.5 34z M350 260l152.5 -10t206.5 -17q43 72 95 153t101 156.5t91 139t69 102.5h-16q-14 0 -50 -6t-90 -28q-78 -35 -166 -100.5t-180 -157.5q-59 -59 -113.5 -120t-99.5 -112zM990.5 909.5q-7.5 17.5 1.5 40.5q10 18 12 18q10 0 30.5 -10t24.5 -20q0 -31 -27 -50l-22 -16 q-12 20 -19.5 37.5zM1113.5 909.5q-7.5 17.5 0.5 40.5q11 18 13 18q10 0 30.5 -10t24.5 -20q0 -31 -27 -50l-22 -16q-12 20 -19.5 37.5z" />
<glyph unicode="&#xc5;" horiz-adv-x="829" d="M10 242q0 12 4 15t15 3q55 6 127.5 4t142.5 -2q164 217 295 337t229.5 176t164 66.5t95.5 10.5q29 0 53.5 -5t28.5 -22q2 -10 -2 -22q-2 -6 -4 -10q-4 -6 -26.5 -40t-68.5 -101.5t-120 -172t-180 -250.5q8 -2 22.5 -3t67.5 -7q4 0 9 -2t5 -6q0 -8 -26 -8h-36t-63 -2 q-66 -94 -108.5 -154.5t-67 -95.5t-33.5 -49l-10 -13l-4 2q-2 2 -2 11q41 82 83 152.5t87 146.5q-84 -4 -194.5 -6t-202.5 -2q-59 -72 -106.5 -124.5t-80.5 -80.5q-18 -18 -26 -19q-6 0 -6 6q0 4 2 5.5t10 11.5q8 8 53 62.5t111 140.5h-217l-2 2q-2 0 -10.5 11t-8.5 34z M350 260l152.5 -10t206.5 -17q43 72 95 153t101 156.5t91 139t69 102.5h-16q-14 0 -50 -6t-90 -28q-78 -35 -166 -100.5t-180 -157.5q-59 -59 -113.5 -120t-99.5 -112zM1068 916.5q-7 17.5 1 39.5q10 19 12 19q10 0 30.5 -10.5t24.5 -20.5q0 -31 -26 -49l-23 -16 q-12 20 -19 37.5zM1086 922.5q3 -5.5 7 -13.5l9 6q8 6 8 17q-6 10 -19 10l-2 -2q0 -2 -1 -2t-1 -2q-4 -8 -1 -13.5z" />
<glyph unicode="&#xc6;" horiz-adv-x="1177" d="M10 242q0 12 4 15t15 3q55 6 127.5 4t142.5 -2q164 217 295 337t229.5 176t164 66.5t95.5 10.5q29 0 53.5 -5t28.5 -22q2 -10 -2 -22q-2 -6 -4 -10q-4 -4 -16.5 -24.5t-39 -60.5t-68.5 -101.5t-103 -147.5q127 115 270.5 218t272.5 175l2 2h10q6 0 16 -1t19.5 -5 t15.5 -10.5t2 -14.5q-6 -8 -36.5 -51t-66.5 -94t-67 -97t-35 -61h-2q0 -2 -4 -2h-16q-16 0 -27.5 2t-11.5 15v2q0 6 2 14q4 16 10 22l2 2q8 23 35 61t68 79l-11 -6q-41 -27 -97 -68t-136 -100l-23 -17q-35 -25 -75.5 -57.5t-83.5 -68.5t-85 -71.5t-75 -68.5q43 0 92 -1 t91 -3t72 -4t36 -4l2 -2q6 0 6 -37q0 -16 -2 -20.5t-8 -4.5h-23q-76 0 -148.5 12.5t-150.5 28.5q-37 -41 -67.5 -89t-30.5 -101q0 -10 5 -29.5t27.5 -38t65.5 -33t121 -14.5q45 0 91 10.5t84 24.5t67.5 28.5t46.5 22.5q0 -2 19.5 -10t19.5 -27q0 -6 -7.5 -11l-13.5 -9 q-53 -39 -127 -57.5t-150.5 -15.5t-146 25.5t-110.5 65.5q-33 29 -33 78q-33 -45 -54.5 -74.5t-34 -47t-16.5 -25.5l-4 -7l-4 2q-2 2 -2 11q41 82 83 152.5t87 146.5q-84 -4 -194.5 -6t-202.5 -2q-59 -72 -106.5 -124.5t-80.5 -80.5q-18 -18 -26 -19q-6 0 -6 6q0 4 2 5.5 t10 11.5q8 8 53 62.5t111 140.5h-217l-2 2q-2 0 -10.5 11t-8.5 34zM350 260l152.5 -10t206.5 -17l12 19q-4 4 2 4q43 70 92 147.5t96 150.5t88 133.5t66 96.5h-16q-14 0 -50 -6t-90 -28q-78 -35 -166 -100.5t-180 -157.5q-59 -59 -113.5 -120t-99.5 -112z" />
<glyph unicode="&#xc7;" horiz-adv-x="561" d="M35 49q0 51 27.5 104.5t66.5 100.5t82 88t74 70q100 90 199.5 166.5t181.5 134t138 93.5t73 46v2h8q16 0 38.5 -7t18.5 -24q-41 -53 -78 -105t-64.5 -94t-45 -70t-17.5 -34h-2q-2 -2 -6 -2h-14q-12 0 -26.5 1t-14.5 16v2q0 4 6 16t6 20l2 2q10 20 36 59.5t67 80.5l-9 -6 q-123 -82 -242.5 -171t-236.5 -190q-39 -35 -79 -70.5t-73.5 -73.5t-55 -78t-21.5 -81q0 -53 34.5 -80.5t86 -39t105.5 -8.5t95 11q31 6 64 18.5t59.5 25t44 21.5t19.5 9q4 -2 21.5 -9t17.5 -26q0 -6 -6.5 -11t-14.5 -9q-4 -4 -20.5 -15.5t-45 -23.5t-70.5 -22.5t-97 -10.5 q-33 0 -73 3t-81 13l-6 -14l-2 -4q4 -4 17.5 -16.5t13.5 -34.5q0 -20 -16.5 -36.5t-41.5 -16.5q-10 0 -27.5 3t-35 10t-30.5 18.5t-13 25.5q0 6 6 6q16 -4 33.5 -9t35.5 -5q20 0 25 2q4 0 4 2q-4 4 -15 5t-18 3q-4 2 -8 8q-6 8 -6 29q0 4 7 17.5t18 23.5q-57 22 -88 57 q-31 33 -31 84zM582 2v2h2z" />
<glyph unicode="&#xc8;" horiz-adv-x="585" d="M23 45q0 59 30.5 109.5t55.5 83.5q-16 4 -22.5 5t-6.5 9q0 2 4 6h41q68 82 157 165t188 161t200.5 146.5t193.5 121.5l2 2h11q6 0 16 -1t19.5 -5t15.5 -10.5t2 -14.5q-6 -8 -37 -51t-66.5 -94t-66.5 -97t-35 -61h-2q0 -2 -4 -2h-17q-16 0 -27 2t-11 15v2q0 6 2 14 q4 16 10 22l2 2q8 23 34.5 61t67.5 79l-10 -6q-41 -27 -97.5 -68t-135.5 -100l-23 -17q-35 -25 -76 -57.5t-84 -68.5t-85 -71.5t-74 -68.5q43 0 92 -1t91 -3t71.5 -4t35.5 -4l2 -2q6 0 7 -37q0 -16 -2.5 -20.5t-8.5 -4.5h-2h-20q-76 0 -148.5 12.5t-150.5 28.5 q-37 -41 -68 -89t-31 -101q0 -10 5.5 -29.5t28 -38t65.5 -33t121 -14.5q45 0 91 10.5t84 24.5t67.5 28.5t45.5 22.5q0 -2 19.5 -10t19.5 -27q0 -6 -7 -11t-13 -9q-53 -39 -127 -57.5t-150.5 -15.5t-146.5 25.5t-111 65.5q-33 29 -32 80zM807 919q0 16 15.5 29.5t19.5 17.5 q6 6 19.5 -4t32.5 -24.5t44 -25.5t51 -7q8 -2 8 -8q0 -4 -2 -6q-12 -8 -43.5 -12.5t-63.5 -1.5t-56.5 12.5t-24.5 29.5z" />
<glyph unicode="&#xc9;" horiz-adv-x="585" d="M23 45q0 59 30.5 109.5t55.5 83.5q-16 4 -22.5 5t-6.5 9q0 2 4 6h41q68 82 157 165t188 161t200.5 146.5t193.5 121.5l2 2h11q6 0 16 -1t19.5 -5t15.5 -10.5t2 -14.5q-6 -8 -37 -51t-66.5 -94t-66.5 -97t-35 -61h-2q0 -2 -4 -2h-17q-16 0 -27 2t-11 15v2q0 6 2 14 q4 16 10 22l2 2q8 23 34.5 61t67.5 79l-10 -6q-41 -27 -97.5 -68t-135.5 -100l-23 -17q-35 -25 -76 -57.5t-84 -68.5t-85 -71.5t-74 -68.5q43 0 92 -1t91 -3t71.5 -4t35.5 -4l2 -2q6 0 7 -37q0 -16 -2.5 -20.5t-8.5 -4.5h-2h-20q-76 0 -148.5 12.5t-150.5 28.5 q-37 -41 -68 -89t-31 -101q0 -10 5.5 -29.5t28 -38t65.5 -33t121 -14.5q45 0 91 10.5t84 24.5t67.5 28.5t45.5 22.5q0 -2 19.5 -10t19.5 -27q0 -6 -7 -11t-13 -9q-53 -39 -127 -57.5t-150.5 -15.5t-146.5 25.5t-111 65.5q-33 29 -32 80zM811 903q0 6 8 8q27 -4 51.5 7 t44 25.5t32.5 25t20 3.5q4 -4 19 -17t15 -30q0 -20 -24.5 -29.5t-56 -12.5t-63.5 1.5t-44 12.5q-2 2 -2 6z" />
<glyph unicode="&#xca;" horiz-adv-x="585" d="M23 45q0 59 30.5 109.5t55.5 83.5q-16 4 -22.5 5t-6.5 9q0 2 4 6h41q68 82 157 165t188 161t200.5 146.5t193.5 121.5l2 2h11q6 0 16 -1t19.5 -5t15.5 -10.5t2 -14.5q-6 -8 -37 -51t-66.5 -94t-66.5 -97t-35 -61h-2q0 -2 -4 -2h-17q-16 0 -27 2t-11 15v2q0 6 2 14 q4 16 10 22l2 2q8 23 34.5 61t67.5 79l-10 -6q-41 -27 -97.5 -68t-135.5 -100l-23 -17q-35 -25 -76 -57.5t-84 -68.5t-85 -71.5t-74 -68.5q43 0 92 -1t91 -3t71.5 -4t35.5 -4l2 -2q6 0 7 -37q0 -16 -2.5 -20.5t-8.5 -4.5h-2h-20q-76 0 -148.5 12.5t-150.5 28.5 q-37 -41 -68 -89t-31 -101q0 -10 5.5 -29.5t28 -38t65.5 -33t121 -14.5q45 0 91 10.5t84 24.5t67.5 28.5t45.5 22.5q0 -2 19.5 -10t19.5 -27q0 -6 -7 -11t-13 -9q-53 -39 -127 -57.5t-150.5 -15.5t-146.5 25.5t-111 65.5q-33 29 -32 80zM740 903q0 4 3 4t5 2 q59 14 82.5 25.5t40.5 23.5q27 16 30 17q6 0 24.5 -11.5t57.5 -42.5q45 -35 60.5 -41t15.5 -14t-10 -8q-29 0 -74 10t-76 29q-12 -6 -32.5 -10.5t-44 -5.5t-45 2.5t-33.5 11.5z" />
<glyph unicode="&#xcb;" horiz-adv-x="585" d="M23 45q0 59 30.5 109.5t55.5 83.5q-16 4 -22.5 5t-6.5 9q0 2 4 6h41q68 82 157 165t188 161t200.5 146.5t193.5 121.5l2 2h11q6 0 16 -1t19.5 -5t15.5 -10.5t2 -14.5q-6 -8 -37 -51t-66.5 -94t-66.5 -97t-35 -61h-2q0 -2 -4 -2h-17q-16 0 -27 2t-11 15v2q0 6 2 14 q4 16 10 22l2 2q8 23 34.5 61t67.5 79l-10 -6q-41 -27 -97.5 -68t-135.5 -100l-23 -17q-35 -25 -76 -57.5t-84 -68.5t-85 -71.5t-74 -68.5q43 0 92 -1t91 -3t71.5 -4t35.5 -4l2 -2q6 0 7 -37q0 -16 -2.5 -20.5t-8.5 -4.5h-2h-20q-76 0 -148.5 12.5t-150.5 28.5 q-37 -41 -68 -89t-31 -101q0 -10 5.5 -29.5t28 -38t65.5 -33t121 -14.5q45 0 91 10.5t84 24.5t67.5 28.5t45.5 22.5q0 -2 19.5 -10t19.5 -27q0 -6 -7 -11t-13 -9q-53 -39 -127 -57.5t-150.5 -15.5t-146.5 25.5t-111 65.5q-33 29 -32 80zM812.5 907.5q-7.5 17.5 1.5 40.5 q10 18 12 18q10 0 30.5 -10t24.5 -20q0 -31 -27 -50l-22 -16q-12 20 -19.5 37.5zM935.5 907.5q-7.5 17.5 0.5 40.5q11 18 13 18q10 0 30.5 -10t24.5 -20q0 -31 -27 -50l-22 -16q-12 20 -19.5 37.5z" />
<glyph unicode="&#xcc;" horiz-adv-x="190" d="M18 -51q4 51 64 155q25 45 64.5 105.5t86 125t93.5 129t87 116t66.5 85t32.5 40.5l2 2h12q6 0 25.5 -5.5t19.5 -17.5q0 -8 -6 -16l-2 -2q-37 -49 -90 -117t-111.5 -141.5t-116 -148.5t-103.5 -139.5t-74.5 -112.5t-28.5 -68q0 -10 7 -18.5t13 -10.5q4 0 9 -4q2 -2 2 -4 q0 -4 -4.5 -5t-6.5 -1h-2q-39 14 -39 53zM518 809q0 16 15.5 29.5t19.5 17.5q6 6 19.5 -4t33 -24.5t44 -25.5t50.5 -7q8 -2 9 -9q0 -4 -2 -6q-12 -8 -44 -12t-64 -1t-56.5 12t-24.5 30z" />
<glyph unicode="&#xcd;" horiz-adv-x="190" d="M18 -51q4 51 64 155q25 45 64.5 105.5t86 125t93.5 129t87 116t66.5 85t32.5 40.5l2 2h12q6 0 25.5 -5.5t19.5 -17.5q0 -8 -6 -16l-2 -2q-37 -49 -90 -117t-111.5 -141.5t-116 -148.5t-103.5 -139.5t-74.5 -112.5t-28.5 -68q0 -10 7 -18.5t13 -10.5q4 0 9 -4q2 -2 2 -4 q0 -4 -4.5 -5t-6.5 -1h-2q-39 14 -39 53zM506 774q0 6 8 8q27 -4 51.5 7.5t44 25.5t32.5 24.5t20 4.5q4 -4 19 -17.5t15 -29.5q0 -20 -24.5 -29.5t-56 -12.5t-63.5 1t-44 12q-2 2 -2 6z" />
<glyph unicode="&#xce;" horiz-adv-x="190" d="M18 -51q4 51 64 155q25 45 64.5 105.5t86 125t93.5 129t87 116t66.5 85t32.5 40.5l2 2h12q6 0 25.5 -5.5t19.5 -17.5q0 -8 -6 -16l-2 -2q-37 -49 -90 -117t-111.5 -141.5t-116 -148.5t-103.5 -139.5t-74.5 -112.5t-28.5 -68q0 -10 7 -18.5t13 -10.5q4 0 9 -4q2 -2 2 -4 q0 -4 -4.5 -5t-6.5 -1h-2q-39 14 -39 53zM432 776q0 4 3 4t5 2q59 14 83 25.5t40 23.5q27 16 31 17q6 0 24.5 -11.5t57.5 -41.5q45 -35 60.5 -41t15.5 -15q0 -8 -11 -8q-29 0 -73.5 10.5t-75.5 28.5q-12 -6 -32.5 -10t-44 -5t-45.5 2t-34 11z" />
<glyph unicode="&#xcf;" horiz-adv-x="190" d="M18 -51q4 51 64 155q25 45 64.5 105.5t86 125t93.5 129t87 116t66.5 85t32.5 40.5l2 2h12q6 0 25.5 -5.5t19.5 -17.5q0 -8 -6 -16l-2 -2q-37 -49 -90 -117t-111.5 -141.5t-116 -148.5t-103.5 -139.5t-74.5 -112.5t-28.5 -68q0 -10 7 -18.5t13 -10.5q4 0 9 -4q2 -2 2 -4 q0 -4 -4.5 -5t-6.5 -1h-2q-39 14 -39 53zM486.5 775q-7.5 18 0.5 40q11 19 13 19q10 0 30.5 -10.5t24.5 -20.5q0 -31 -27 -49l-22 -17q-12 20 -19.5 38zM609.5 775q-7.5 18 0.5 40q11 19 13 19q10 0 30.5 -10.5t24.5 -20.5q0 -31 -27 -49l-22 -17q-12 20 -19.5 38z" />
<glyph unicode="&#xd0;" horiz-adv-x="1110" d="M29 55q0 8 3 20.5t13 12.5q8 0 18 -6l5 -2l36 -17q51 -23 108.5 -50t115.5 -31q6 10 24.5 40.5t45 73.5t60.5 97.5t70 113.5q-41 4 -87 11.5t-97 17.5q-6 0 -8 6q0 4 4 8q55 0 110.5 1t106.5 3q39 61 79 124t77 119t68.5 104.5t54.5 80.5q-12 0 -23.5 1t-24.5 1 q-82 0 -142 -11t-102 -25.5t-64.5 -26.5t-26.5 -14l-2 -2h-27q-10 0 -26.5 3t-16.5 15q0 8 6 14q-2 -2 21.5 15.5t75 40t131 41t190.5 18.5t186.5 -25.5t121.5 -68.5t65.5 -102.5t19.5 -127.5q0 -131 -55.5 -248.5t-151.5 -205.5t-224 -137.5t-271 -40.5q-53 4 -97.5 8 t-85.5 12q-4 -4 -4 -6t-2 -4t-2 -4l-2 -4q-2 -8 -8 -9l-4 2q0 2 -1 2.5t-1 2.5q0 4 2 9l6 15q-10 2 -22.5 6t-35 11.5t-57.5 20.5t-92 38q-23 10 -35 18.5t-16 8.5h-2v2q-2 2 -4 8q-4 12 -4 22zM352 -25q70 -20 143.5 -21t141.5 10t123 28.5t88 34.5q61 39 112.5 92 t90.5 115.5t61.5 131t26.5 138.5q0 119 -52.5 179t-175.5 93q-2 -6 -25.5 -44t-63.5 -95t-91 -130t-106 -151q72 4 119 7.5t59 5.5q10 0 13 -0.5t7 -18.5q4 -20 -6 -33q-6 -8 -12 -12q8 4 -49.5 -2t-167.5 0q-66 -92 -127.5 -177t-108.5 -151z" />
<glyph unicode="&#xd1;" horiz-adv-x="761" d="M0 -98q2 2 6 12v2q4 8 4 10l2 2q10 23 58.5 103t117 187.5t148.5 229t156 228.5q-61 -31 -118 -52.5t-102 -21.5h-12t-12 2q-2 2 -5 10.5t-3 24.5q0 20 4 24.5t10 4.5h2q68 0 136.5 25.5t139.5 66.5q8 4 19.5 16t22 24.5t18.5 23.5l8 10l2 2q2 0 6 2q4 0 8.5 1t8.5 1 q10 0 25.5 -5.5t13.5 -15.5q0 -8 -11.5 -26.5t-26 -40t-29.5 -43t-26 -35.5q12 8 35 22.5t53.5 28.5t68.5 24.5t81 10.5q61 0 90 -37t29 -84q0 -53 -21.5 -112.5t-53.5 -118t-68.5 -111.5t-69.5 -94q-4 -4 -31 -40t-49.5 -76t-24.5 -72.5t45 -32.5q27 0 49.5 9t34.5 15 q35 16 39 17q4 0 6 -5.5t-4 -7.5q-29 -18 -62.5 -35.5t-72.5 -17.5q-16 0 -36.5 11.5t-30.5 39.5q-2 8 -3 21q0 27 19.5 65.5t47.5 80.5t56.5 83t46.5 72q18 33 40 72.5t39.5 79.5t28.5 79t11 72q0 35 -13 47t-48 12q-37 -4 -84 -22.5t-103 -46.5q-49 -31 -81.5 -56.5 t-53 -45t-30 -31t-11.5 -11.5v-2q-45 -55 -97 -124.5t-105 -141.5l-48 -64q-47 -61 -77.5 -105t-50 -72.5t-29.5 -45t-17 -22.5h-2v-4h-2q-2 -8 -6 -9h-2l-2 2q-2 2 -2 11zM727 930q-6 35 22 41q18 -4 21 -6q27 -8 55.5 -29t50.5 -39q29 -20 38 -29.5t20 -13.5q2 2 2 8 q-2 31 1 32t13 11q4 4 7 -2t5 -15t3 -18.5t1 -15.5t-8 -18.5t-20 -14.5q-4 0 -20.5 8.5t-39 19.5t-46 24.5t-40.5 23.5q-8 0 -9 -7t-1 -14.5t-3 -11.5t-17 2q-16 20 -24.5 29.5t-10.5 34.5z" />
<glyph unicode="&#xd2;" horiz-adv-x="675" d="M20 66q0 55 31 125.5t82 145.5t117.5 147.5t138.5 133t145.5 103.5t137.5 55h-2h-4q-16 12 -26.5 16.5t-14.5 20.5q0 10 12 16.5t47 6.5q92 0 151.5 -44t59.5 -151q0 -66 -30.5 -152t-83 -173t-123 -163.5t-150.5 -125.5q41 -23 75.5 -32t61.5 -13q2 -2 10.5 -14.5 t8.5 -30.5q0 -14 -5.5 -17.5t-9.5 -3.5q-49 0 -105.5 21.5t-99.5 50.5q-31 -14 -67.5 -31.5t-77.5 -30t-86 -16.5t-90 10q-41 14 -72 53t-31 93zM61 68q0 -49 29 -86t92 -45q55 -6 120 18.5t116 52.5q-86 80 -86 193q2 55 18.5 105t38 94t47 81t47.5 64q41 49 88 90t93 70 q-143 -63 -254 -153.5t-188 -183t-118 -174t-43 -126.5zM397 209q0 -59 23.5 -99t56.5 -63q72 51 136.5 127t113.5 158t79 162.5t30 146.5q0 137 -138 137q29 -14 35 -43q0 -12 -11 -19t-22 -11q-4 -4 -47 -34t-94 -93q-78 -98 -120 -194.5t-42 -174.5zM723 905 q0 16 15.5 29.5t19.5 17.5q6 6 19.5 -4t32.5 -24.5t44 -25.5t51 -7q8 -2 8 -8q0 -4 -2 -6q-12 -8 -43.5 -12.5t-63.5 -1.5t-56.5 12.5t-24.5 29.5z" />
<glyph unicode="&#xd3;" horiz-adv-x="675" d="M20 66q0 55 31 125.5t82 145.5t117.5 147.5t138.5 133t145.5 103.5t137.5 55h-2h-4q-16 12 -26.5 16.5t-14.5 20.5q0 10 12 16.5t47 6.5q92 0 151.5 -44t59.5 -151q0 -66 -30.5 -152t-83 -173t-123 -163.5t-150.5 -125.5q41 -23 75.5 -32t61.5 -13q2 -2 10.5 -14.5 t8.5 -30.5q0 -14 -5.5 -17.5t-9.5 -3.5q-49 0 -105.5 21.5t-99.5 50.5q-31 -14 -67.5 -31.5t-77.5 -30t-86 -16.5t-90 10q-41 14 -72 53t-31 93zM61 68q0 -49 29 -86t92 -45q55 -6 120 18.5t116 52.5q-86 80 -86 193q2 55 18.5 105t38 94t47 81t47.5 64q41 49 88 90t93 70 q-143 -63 -254 -153.5t-188 -183t-118 -174t-43 -126.5zM397 209q0 -59 23.5 -99t56.5 -63q72 51 136.5 127t113.5 158t79 162.5t30 146.5q0 137 -138 137q29 -14 35 -43q0 -12 -11 -19t-22 -11q-4 -4 -47 -34t-94 -93q-78 -98 -120 -194.5t-42 -174.5zM731 895q0 6 8 8 q27 -4 51.5 7t44 25.5t32.5 25t20 3.5q4 -4 19 -17t15 -30q0 -20 -24.5 -29.5t-56 -12.5t-63.5 1.5t-44 12.5q-2 2 -2 6z" />
<glyph unicode="&#xd4;" horiz-adv-x="675" d="M20 66q0 55 31 125.5t82 145.5t117.5 147.5t138.5 133t145.5 103.5t137.5 55h-2h-4q-16 12 -26.5 16.5t-14.5 20.5q0 10 12 16.5t47 6.5q92 0 151.5 -44t59.5 -151q0 -66 -30.5 -152t-83 -173t-123 -163.5t-150.5 -125.5q41 -23 75.5 -32t61.5 -13q2 -2 10.5 -14.5 t8.5 -30.5q0 -14 -5.5 -17.5t-9.5 -3.5q-49 0 -105.5 21.5t-99.5 50.5q-31 -14 -67.5 -31.5t-77.5 -30t-86 -16.5t-90 10q-41 14 -72 53t-31 93zM61 68q0 -49 29 -86t92 -45q55 -6 120 18.5t116 52.5q-86 80 -86 193q2 55 18.5 105t38 94t47 81t47.5 64q41 49 88 90t93 70 q-143 -63 -254 -153.5t-188 -183t-118 -174t-43 -126.5zM397 209q0 -59 23.5 -99t56.5 -63q72 51 136.5 127t113.5 158t79 162.5t30 146.5q0 137 -138 137q29 -14 35 -43q0 -12 -11 -19t-22 -11q-4 -4 -47 -34t-94 -93q-78 -98 -120 -194.5t-42 -174.5zM670 909q0 4 3 4t5 2 q59 14 82.5 25.5t40.5 23.5q27 16 30 17q6 0 24.5 -11.5t57.5 -42.5q45 -35 60.5 -41t15.5 -14t-10 -8q-29 0 -74 10t-76 29q-12 -6 -32.5 -10.5t-44 -5.5t-45 2.5t-33.5 11.5z" />
<glyph unicode="&#xd5;" horiz-adv-x="675" d="M20 66q0 55 31 125.5t82 145.5t117.5 147.5t138.5 133t145.5 103.5t137.5 55h-2h-4q-16 12 -26.5 16.5t-14.5 20.5q0 10 12 16.5t47 6.5q92 0 151.5 -44t59.5 -151q0 -66 -30.5 -152t-83 -173t-123 -163.5t-150.5 -125.5q41 -23 75.5 -32t61.5 -13q2 -2 10.5 -14.5 t8.5 -30.5q0 -14 -5.5 -17.5t-9.5 -3.5q-49 0 -105.5 21.5t-99.5 50.5q-31 -14 -67.5 -31.5t-77.5 -30t-86 -16.5t-90 10q-41 14 -72 53t-31 93zM61 68q0 -49 29 -86t92 -45q55 -6 120 18.5t116 52.5q-86 80 -86 193q2 55 18.5 105t38 94t47 81t47.5 64q41 49 88 90t93 70 q-143 -63 -254 -153.5t-188 -183t-118 -174t-43 -126.5zM397 209q0 -59 23.5 -99t56.5 -63q72 51 136.5 127t113.5 158t79 162.5t30 146.5q0 137 -138 137q29 -14 35 -43q0 -12 -11 -19t-22 -11q-4 -4 -47 -34t-94 -93q-78 -98 -120 -194.5t-42 -174.5zM719 948q-6 35 22 41 q18 -4 21 -6q27 -8 55.5 -29t50.5 -39q29 -20 38 -29.5t20 -13.5q2 2 2 8q-2 31 1 32t13 11q4 4 7 -2t5 -15t3 -18.5t1 -15.5t-8 -18.5t-20 -14.5q-4 0 -20.5 8.5t-39 19.5t-46 24.5t-40.5 23.5q-8 0 -9 -7t-1 -14.5t-3 -11.5t-17 2q-16 20 -24.5 29.5t-10.5 34.5z" />
<glyph unicode="&#xd6;" horiz-adv-x="675" d="M20 66q0 55 31 125.5t82 145.5t117.5 147.5t138.5 133t145.5 103.5t137.5 55h-2h-4q-16 12 -26.5 16.5t-14.5 20.5q0 10 12 16.5t47 6.5q92 0 151.5 -44t59.5 -151q0 -66 -30.5 -152t-83 -173t-123 -163.5t-150.5 -125.5q41 -23 75.5 -32t61.5 -13q2 -2 10.5 -14.5 t8.5 -30.5q0 -14 -5.5 -17.5t-9.5 -3.5q-49 0 -105.5 21.5t-99.5 50.5q-31 -14 -67.5 -31.5t-77.5 -30t-86 -16.5t-90 10q-41 14 -72 53t-31 93zM61 68q0 -49 29 -86t92 -45q55 -6 120 18.5t116 52.5q-86 80 -86 193q2 55 18.5 105t38 94t47 81t47.5 64q41 49 88 90t93 70 q-143 -63 -254 -153.5t-188 -183t-118 -174t-43 -126.5zM397 209q0 -59 23.5 -99t56.5 -63q72 51 136.5 127t113.5 158t79 162.5t30 146.5q0 137 -138 137q29 -14 35 -43q0 -12 -11 -19t-22 -11q-4 -4 -47 -34t-94 -93q-78 -98 -120 -194.5t-42 -174.5zM740.5 901.5 q-7.5 17.5 1.5 40.5q10 18 12 18q10 0 30.5 -10t24.5 -20q0 -31 -27 -50l-22 -16q-12 20 -19.5 37.5zM863.5 901.5q-7.5 17.5 0.5 40.5q11 18 13 18q10 0 30.5 -10t24.5 -20q0 -31 -27 -50l-22 -16q-12 20 -19.5 37.5z" />
<glyph unicode="&#xd7;" horiz-adv-x="563" d="M131 199q47 47 92 94t84 88q-31 70 -54.5 116t-27.5 56t-6 12.5t12 12.5q12 8 26.5 6t18.5 -6q2 -6 22.5 -44t47.5 -108q41 45 66.5 74.5t31.5 38.5q8 8 10.5 10t18.5 -8q12 -8 16 -27q2 -8 3 -18q2 6 -28 -30t-99 -101q16 -43 28.5 -92.5t24.5 -108.5q0 -2 1 -4t-3 -6 q-6 0 -10 2l-76 176q-37 -33 -83 -68t-104 -71q0 -8 -10 -3q-2 2 -2 9zM276 578h3h-3z" />
<glyph unicode="&#xd8;" horiz-adv-x="675" d="M20 66q0 55 31 125.5t82 145.5t117.5 147.5t138.5 133t145.5 103.5t137.5 55h-6q-16 12 -26.5 16.5t-14.5 20.5q0 10 12 16.5t47 6.5q76 0 129 -31l21 26q16 18 22 24.5t35 4.5q35 -2 34 -26.5t-12 -40.5l-39 -54q20 -39 21 -98q0 -66 -30.5 -152t-83 -173t-123 -163.5 t-150.5 -125.5q41 -23 75.5 -32t61.5 -13q2 -2 10.5 -14.5t8.5 -30.5q0 -14 -5.5 -17.5t-9.5 -3.5q-49 0 -105.5 21.5t-99.5 50.5q-31 -14 -67.5 -31.5t-77.5 -30t-86 -16.5t-90 10l-17 6l-28 -26q-14 -10 -19 -11q-12 2 -8 13l33 39q-29 20 -46.5 52t-17.5 73zM61 68 q0 -66 45 -103q59 66 116 131.5t112 130.5q6 51 22.5 97.5t38 87.5t45 74.5t43.5 58.5q41 49 88 90t93 70q-143 -63 -254 -153.5t-188 -183t-118 -174t-43 -126.5zM131 -49q10 -4 22.5 -8t28.5 -6q55 -6 120 18.5t116 52.5q-63 57 -82 139q-47 -47 -97.5 -96t-107.5 -100z M397 207q0 -57 23.5 -97t56.5 -63q72 51 136.5 127t113.5 158t79 162.5t30 146.5q0 12 -1 23.5t-4 21.5q-59 -74 -164.5 -193.5t-269.5 -285.5zM416 326q121 141 215 254.5t147 179.5q-31 18 -80 18q29 -14 35 -43q0 -12 -11 -19t-22 -11q-4 -4 -47 -34t-94 -93 q-53 -66 -88 -129.5t-55 -122.5z" />
<glyph unicode="&#xd9;" horiz-adv-x="643" d="M41 496q18 14 51 36.5t69 48t72.5 56.5t65.5 63q6 6 16.5 9.5t21.5 0.5t19.5 -9.5t8.5 -18.5q0 -10 -16.5 -39t-31.5 -49l-30 -47q-20 -31 -45 -77t-60 -110q-18 -47 -43.5 -102t-25.5 -127q0 -47 28.5 -63.5t67.5 -16.5q29 0 74 10q61 16 105 38t75 44.5t49 45t29 38.5 q33 51 78 118t94 135.5t98 136t89 122t67.5 90t36.5 43.5q2 0 7 2.5t15 2.5h2q12 0 25.5 -7.5t13.5 -17.5q0 -6 -14 -23q-10 -12 -25.5 -31.5t-41 -51t-61.5 -78.5t-85 -117q-31 -41 -70 -92t-81 -107.5t-84 -117t-79 -117.5l-2 -2q-18 -31 -37.5 -66t-19.5 -63 q0 -18 23.5 -24.5t48.5 -6.5q47 0 72.5 15.5t27.5 13.5l10 6q6 0 6 -6q0 -8 -13 -17.5t-33.5 -17.5t-44 -13.5t-42.5 -5.5q-31 0 -59.5 12.5t-28.5 51.5q0 31 17.5 66.5t35.5 68.5q-29 -23 -65.5 -45.5t-76.5 -39.5t-80 -28.5t-72 -11.5h-5q-43 0 -68.5 14.5t-41 37 t-20.5 53t-5 63.5q6 63 27.5 121.5t46.5 108t47.5 87t34.5 60.5q-27 -12 -64 -27l-86 -33q-8 -4 -8 -3t-2 1q-8 0 -8 9zM533 897q0 16 15.5 29.5t19.5 17.5q6 6 19.5 -4t32.5 -24.5t44 -25.5t51 -7q8 -2 8 -8q0 -4 -2 -6q-12 -8 -43.5 -12.5t-63.5 -1.5t-56.5 12.5 t-24.5 29.5z" />
<glyph unicode="&#xda;" horiz-adv-x="643" d="M41 496q18 14 51 36.5t69 48t72.5 56.5t65.5 63q6 6 16.5 9.5t21.5 0.5t19.5 -9.5t8.5 -18.5q0 -10 -16.5 -39t-31.5 -49l-30 -47q-20 -31 -45 -77t-60 -110q-18 -47 -43.5 -102t-25.5 -127q0 -47 28.5 -63.5t67.5 -16.5q29 0 74 10q61 16 105 38t75 44.5t49 45t29 38.5 q33 51 78 118t94 135.5t98 136t89 122t67.5 90t36.5 43.5q2 0 7 2.5t15 2.5h2q12 0 25.5 -7.5t13.5 -17.5q0 -6 -14 -23q-10 -12 -25.5 -31.5t-41 -51t-61.5 -78.5t-85 -117q-31 -41 -70 -92t-81 -107.5t-84 -117t-79 -117.5l-2 -2q-18 -31 -37.5 -66t-19.5 -63 q0 -18 23.5 -24.5t48.5 -6.5q47 0 72.5 15.5t27.5 13.5l10 6q6 0 6 -6q0 -8 -13 -17.5t-33.5 -17.5t-44 -13.5t-42.5 -5.5q-31 0 -59.5 12.5t-28.5 51.5q0 31 17.5 66.5t35.5 68.5q-29 -23 -65.5 -45.5t-76.5 -39.5t-80 -28.5t-72 -11.5h-5q-43 0 -68.5 14.5t-41 37 t-20.5 53t-5 63.5q6 63 27.5 121.5t46.5 108t47.5 87t34.5 60.5q-27 -12 -64 -27l-86 -33q-8 -4 -8 -3t-2 1q-8 0 -8 9zM557 877q0 6 8 8q27 -4 51.5 7t44 25.5t32.5 25t20 3.5q4 -4 19 -17t15 -30q0 -20 -24.5 -29.5t-56 -12.5t-63.5 1.5t-44 12.5q-2 2 -2 6z" />
<glyph unicode="&#xdb;" horiz-adv-x="643" d="M41 496q18 14 51 36.5t69 48t72.5 56.5t65.5 63q6 6 16.5 9.5t21.5 0.5t19.5 -9.5t8.5 -18.5q0 -10 -16.5 -39t-31.5 -49l-30 -47q-20 -31 -45 -77t-60 -110q-18 -47 -43.5 -102t-25.5 -127q0 -47 28.5 -63.5t67.5 -16.5q29 0 74 10q61 16 105 38t75 44.5t49 45t29 38.5 q33 51 78 118t94 135.5t98 136t89 122t67.5 90t36.5 43.5q2 0 7 2.5t15 2.5h2q12 0 25.5 -7.5t13.5 -17.5q0 -6 -14 -23q-10 -12 -25.5 -31.5t-41 -51t-61.5 -78.5t-85 -117q-31 -41 -70 -92t-81 -107.5t-84 -117t-79 -117.5l-2 -2q-18 -31 -37.5 -66t-19.5 -63 q0 -18 23.5 -24.5t48.5 -6.5q47 0 72.5 15.5t27.5 13.5l10 6q6 0 6 -6q0 -8 -13 -17.5t-33.5 -17.5t-44 -13.5t-42.5 -5.5q-31 0 -59.5 12.5t-28.5 51.5q0 31 17.5 66.5t35.5 68.5q-29 -23 -65.5 -45.5t-76.5 -39.5t-80 -28.5t-72 -11.5h-5q-43 0 -68.5 14.5t-41 37 t-20.5 53t-5 63.5q6 63 27.5 121.5t46.5 108t47.5 87t34.5 60.5q-27 -12 -64 -27l-86 -33q-8 -4 -8 -3t-2 1q-8 0 -8 9zM480 887q0 4 3 4t5 2q59 14 82.5 25.5t40.5 23.5q27 16 30 17q6 0 24.5 -11.5t57.5 -42.5q45 -35 60.5 -41t15.5 -14t-10 -8q-29 0 -74 10t-76 29 q-12 -6 -32.5 -10.5t-44 -5.5t-45 2.5t-33.5 11.5z" />
<glyph unicode="&#xdc;" horiz-adv-x="643" d="M41 496q18 14 51 36.5t69 48t72.5 56.5t65.5 63q6 6 16.5 9.5t21.5 0.5t19.5 -9.5t8.5 -18.5q0 -10 -16.5 -39t-31.5 -49l-30 -47q-20 -31 -45 -77t-60 -110q-18 -47 -43.5 -102t-25.5 -127q0 -47 28.5 -63.5t67.5 -16.5q29 0 74 10q61 16 105 38t75 44.5t49 45t29 38.5 q33 51 78 118t94 135.5t98 136t89 122t67.5 90t36.5 43.5q2 0 7 2.5t15 2.5h2q12 0 25.5 -7.5t13.5 -17.5q0 -6 -14 -23q-10 -12 -25.5 -31.5t-41 -51t-61.5 -78.5t-85 -117q-31 -41 -70 -92t-81 -107.5t-84 -117t-79 -117.5l-2 -2q-18 -31 -37.5 -66t-19.5 -63 q0 -18 23.5 -24.5t48.5 -6.5q47 0 72.5 15.5t27.5 13.5l10 6q6 0 6 -6q0 -8 -13 -17.5t-33.5 -17.5t-44 -13.5t-42.5 -5.5q-31 0 -59.5 12.5t-28.5 51.5q0 31 17.5 66.5t35.5 68.5q-29 -23 -65.5 -45.5t-76.5 -39.5t-80 -28.5t-72 -11.5h-5q-43 0 -68.5 14.5t-41 37 t-20.5 53t-5 63.5q6 63 27.5 121.5t46.5 108t47.5 87t34.5 60.5q-27 -12 -64 -27l-86 -33q-8 -4 -8 -3t-2 1q-8 0 -8 9zM547.5 895.5q-7.5 17.5 1.5 40.5q10 18 12 18q10 0 30.5 -10t24.5 -20q0 -31 -27 -50l-22 -16q-12 20 -19.5 37.5zM670.5 895.5q-7.5 17.5 0.5 40.5 q11 18 13 18q10 0 30.5 -10t24.5 -20q0 -31 -27 -50l-22 -16q-12 20 -19.5 37.5z" />
<glyph unicode="&#xdd;" horiz-adv-x="436" d="M-49 696q0 8 12 17q6 4 38 25.5t83 21.5q31 0 58.5 -14.5t23.5 -57.5l-2 -41l-23 -260q-4 -41 -5 -85t-1 -87q0 -23 2 -54.5t10.5 -60t24.5 -48t45 -19.5q10 0 20.5 3t20.5 7q49 72 103.5 154t106.5 163.5t99 157.5t85 137.5t64.5 103.5t35.5 54q2 2 11 6t23 4 q6 0 18.5 -4t12.5 -14q0 -6 -10 -27q-12 -27 -38 -62.5t-69 -107.5q-25 -39 -67.5 -108.5t-101 -154.5t-127 -180t-142.5 -188q-27 -33 -57.5 -69.5t-61 -68.5t-59.5 -53.5t-47 -21.5h-2q-10 0 -11 7.5t-4 13.5q0 14 1.5 16t5.5 2q8 0 7 -8t3 -12q16 0 68.5 58.5 t130.5 168.5q-6 -2 -23 -2q-47 0 -72.5 35t-39 87t-16.5 113.5t-3 112.5q0 47 1 98.5t7 116.5l6 76q0 10 1 27.5t-15 17.5q-6 0 -19.5 -5t-28 -12t-26.5 -12.5t-14 -5.5q-16 -8 -29.5 3.5t-13.5 35.5zM344 885q0 6 8 8q27 -4 51.5 7t44 25.5t32.5 25t20 3.5q4 -4 19 -17 t15 -30q0 -20 -24.5 -29.5t-56 -12.5t-63.5 1.5t-44 12.5q-2 2 -2 6z" />
<glyph unicode="&#xe0;" d="M-25 66q6 45 33 79.5t62.5 58t75.5 36t73 12.5q18 0 45 -10.5t27 -26.5q0 -6 -10.5 -17.5t-16.5 -19.5q0 -2 -8 -13t-19.5 -26.5t-19.5 -33t-8 -33.5q0 -29 31 -29q25 2 55.5 12.5t48.5 16.5l29 10q10 4 9 4t3 0q6 0 6 -8l-2 -2l-8 -6q-2 -2 -15.5 -13.5t-35 -24 t-48 -22.5t-55.5 -10q-27 0 -44 16.5t-25 42.5q-29 -18 -60.5 -40.5t-72.5 -22.5q-27 0 -40.5 22.5t-9.5 47.5zM34 63.5q-3 -8.5 1 -12.5q2 -4 22 4q41 14 62.5 28.5t34 31t20.5 33t21 34.5q-23 0 -64 -20t-90 -86q-4 -4 -7 -12.5zM156 356q0 16 15.5 29.5t19.5 17.5 q6 6 19.5 -4t32.5 -24.5t44 -25.5t51 -7q8 -2 8 -8q0 -4 -2 -6q-12 -8 -43.5 -12.5t-63.5 -1.5t-56.5 12.5t-24.5 29.5z" />
<glyph unicode="&#xe1;" d="M-25 66q6 45 33 79.5t62.5 58t75.5 36t73 12.5q18 0 45 -10.5t27 -26.5q0 -6 -10.5 -17.5t-16.5 -19.5q0 -2 -8 -13t-19.5 -26.5t-19.5 -33t-8 -33.5q0 -29 31 -29q25 2 55.5 12.5t48.5 16.5l29 10q10 4 9 4t3 0q6 0 6 -8l-2 -2l-8 -6q-2 -2 -15.5 -13.5t-35 -24 t-48 -22.5t-55.5 -10q-27 0 -44 16.5t-25 42.5q-29 -18 -60.5 -40.5t-72.5 -22.5q-27 0 -40.5 22.5t-9.5 47.5zM34 63.5q-3 -8.5 1 -12.5q2 -4 22 4q41 14 62.5 28.5t34 31t20.5 33t21 34.5q-23 0 -64 -20t-90 -86q-4 -4 -7 -12.5zM156 334q0 6 8 8q27 -4 51.5 7t44 25.5 t32.5 25t20 3.5q4 -4 19 -17t15 -30q0 -20 -24.5 -29.5t-56 -12.5t-63.5 1.5t-44 12.5q-2 2 -2 6z" />
<glyph unicode="&#xe2;" d="M-25 66q6 45 33 79.5t62.5 58t75.5 36t73 12.5q18 0 45 -10.5t27 -26.5q0 -6 -10.5 -17.5t-16.5 -19.5q0 -2 -8 -13t-19.5 -26.5t-19.5 -33t-8 -33.5q0 -29 31 -29q25 2 55.5 12.5t48.5 16.5l29 10q10 4 9 4t3 0q6 0 6 -8l-2 -2l-8 -6q-2 -2 -15.5 -13.5t-35 -24 t-48 -22.5t-55.5 -10q-27 0 -44 16.5t-25 42.5q-29 -18 -60.5 -40.5t-72.5 -22.5q-27 0 -40.5 22.5t-9.5 47.5zM34 63.5q-3 -8.5 1 -12.5q2 -4 22 4q41 14 62.5 28.5t34 31t20.5 33t21 34.5q-23 0 -64 -20t-90 -86q-4 -4 -7 -12.5zM82 336q0 4 3 4t5 2q59 14 82.5 25.5 t40.5 23.5q27 16 30 17q6 0 24.5 -11.5t57.5 -42.5q45 -35 60.5 -41t15.5 -14t-10 -8q-29 0 -74 10t-76 29q-12 -6 -32.5 -10.5t-44 -5.5t-45 2.5t-33.5 11.5z" />
<glyph unicode="&#xe3;" d="M-25 66q6 45 33 79.5t62.5 58t75.5 36t73 12.5q18 0 45 -10.5t27 -26.5q0 -6 -10.5 -17.5t-16.5 -19.5q0 -2 -8 -13t-19.5 -26.5t-19.5 -33t-8 -33.5q0 -29 31 -29q25 2 55.5 12.5t48.5 16.5l29 10q10 4 9 4t3 0q6 0 6 -8l-2 -2l-8 -6q-2 -2 -15.5 -13.5t-35 -24 t-48 -22.5t-55.5 -10q-27 0 -44 16.5t-25 42.5q-29 -18 -60.5 -40.5t-72.5 -22.5q-27 0 -40.5 22.5t-9.5 47.5zM34 63.5q-3 -8.5 1 -12.5q2 -4 22 4q41 14 62.5 28.5t34 31t20.5 33t21 34.5q-23 0 -64 -20t-90 -86q-4 -4 -7 -12.5zM135 373q-6 35 22 41q18 -4 21 -6 q27 -8 55.5 -29t50.5 -39q29 -20 38 -29.5t20 -13.5q2 2 2 8q-2 31 1 32t13 11q4 4 7 -2t5 -15t3 -18.5t1 -15.5t-8 -18.5t-20 -14.5q-4 0 -20.5 8.5t-39 19.5t-46 24.5t-40.5 23.5q-8 0 -9 -7t-1 -14.5t-3 -11.5t-17 2q-16 20 -24.5 29.5t-10.5 34.5z" />
<glyph unicode="&#xe4;" d="M-25 66q6 45 33 79.5t62.5 58t75.5 36t73 12.5q18 0 45 -10.5t27 -26.5q0 -6 -10.5 -17.5t-16.5 -19.5q0 -2 -8 -13t-19.5 -26.5t-19.5 -33t-8 -33.5q0 -29 31 -29q25 2 55.5 12.5t48.5 16.5l29 10q10 4 9 4t3 0q6 0 6 -8l-2 -2l-8 -6q-2 -2 -15.5 -13.5t-35 -24 t-48 -22.5t-55.5 -10q-27 0 -44 16.5t-25 42.5q-29 -18 -60.5 -40.5t-72.5 -22.5q-27 0 -40.5 22.5t-9.5 47.5zM34 63.5q-3 -8.5 1 -12.5q2 -4 22 4q41 14 62.5 28.5t34 31t20.5 33t21 34.5q-23 0 -64 -20t-90 -86q-4 -4 -7 -12.5zM160.5 338.5q-7.5 17.5 1.5 40.5 q10 18 12 18q10 0 30.5 -10t24.5 -20q0 -31 -27 -50l-22 -16q-12 20 -19.5 37.5zM283.5 338.5q-7.5 17.5 0.5 40.5q11 18 13 18q10 0 30.5 -10t24.5 -20q0 -31 -27 -50l-22 -16q-12 20 -19.5 37.5z" />
<glyph unicode="&#xe5;" d="M-25 66q6 45 33 79.5t62.5 58t75.5 36t73 12.5q18 0 45 -10.5t27 -26.5q0 -6 -10.5 -17.5t-16.5 -19.5q0 -2 -8 -13t-19.5 -26.5t-19.5 -33t-8 -33.5q0 -29 31 -29q25 2 55.5 12.5t48.5 16.5l29 10q10 4 9 4t3 0q6 0 6 -8l-2 -2l-8 -6q-2 -2 -15.5 -13.5t-35 -24 t-48 -22.5t-55.5 -10q-27 0 -44 16.5t-25 42.5q-29 -18 -60.5 -40.5t-72.5 -22.5q-27 0 -40.5 22.5t-9.5 47.5zM34 63.5q-3 -8.5 1 -12.5q2 -4 22 4q41 14 62.5 28.5t34 31t20.5 33t21 34.5q-23 0 -64 -20t-90 -86q-4 -4 -7 -12.5zM233 316.5q-7 17.5 1 39.5q10 19 12 19 q10 0 30.5 -10.5t24.5 -20.5q0 -31 -26 -49l-23 -16q-12 20 -19 37.5zM251 322.5q3 -5.5 7 -13.5l9 6q8 6 8 17q-6 10 -19 10l-2 -2q0 -2 -1 -2t-1 -2q-4 -8 -1 -13.5z" />
<glyph unicode="&#xe6;" horiz-adv-x="489" d="M-25 66q6 45 33 79.5t62.5 58t75.5 36t73 12.5q16 0 36.5 -7t31.5 -18q20 10 40.5 17.5t41.5 7.5q23 0 50 -10.5t27 -42.5q0 -35 -25.5 -60.5t-61 -42t-74.5 -25t-66 -8.5q0 -8 12.5 -13t27.5 -7t30.5 -3t23.5 -1q35 0 72 7t66 15q33 10 41 16.5t10 6.5q8 0 8 -6v-4 l-2 -2q-29 -18 -63.5 -37t-72.5 -30t-80 -14t-81 9q-35 12 -47 43l-4 8t-2 8q-29 -18 -60.5 -40.5t-72.5 -22.5q-27 0 -40.5 22.5t-9.5 47.5zM34 63.5q-3 -8.5 1 -12.5q2 -4 22 4q41 14 62.5 28.5t34 31t20.5 33t21 34.5q-23 0 -64 -20t-90 -86q-4 -4 -7 -12.5zM240 98 q8 2 29.5 12.5t35.5 18.5l21 14q12 10 25.5 22.5t17.5 20.5q-4 0 -17.5 -5t-25.5 -11l-11 -6q-14 -10 -28.5 -20.5t-30.5 -26.5q-4 -4 -13.5 -12.5t-2.5 -6.5z" />
<glyph unicode="&#xe7;" horiz-adv-x="296" d="M-39 -47q0 6 4 6q14 -4 28.5 -8t31.5 -4h20q2 0 2 2q-4 4 -13 5t-14 3q-4 2 -6 6q-6 6 -6 25q0 2 5 10t12 18q-18 10 -30.5 25.5t-12.5 38.5q0 39 23.5 70.5t58 53t74.5 34t75 14.5q14 0 27 -6q10 -4 18 -14.5t8 -32.5q0 -20 -16.5 -34.5t-36.5 -24t-37.5 -13.5t-21.5 -4 l-2 2q-4 0 -5 8v2l11 10q4 4 16 17.5t16 21.5h-6q-6 0 -22.5 -4t-37 -14t-42 -27.5t-37.5 -44.5q-4 -10 -3 -12t1 -4v-2q2 -2 4 -7.5t11.5 -10.5t30 -9t58.5 -4q74 0 123 17.5t52 21.5q8 0 10 -2q0 -4 -2 -10q-27 -20 -60 -35q-29 -14 -68.5 -24.5t-90.5 -14.5h-11 q-6 0 -12 1t-12 1q-2 0 -2 -4l-2 -4q4 -2 15 -13.5t11 -29.5q0 -16 -13 -29.5t-36 -13.5q-8 0 -22.5 3t-28.5 8t-25.5 14.5t-11.5 21.5z" />
<glyph unicode="&#xe8;" horiz-adv-x="303" d="M-27 66v2q0 31 20.5 63.5t52.5 59t69 44t67 17.5q23 0 50.5 -10.5t27.5 -42.5q0 -35 -25.5 -60.5t-61.5 -42t-75 -25t-65 -8.5q0 -8 12 -13t27.5 -7t31 -3t23.5 -1q35 0 72 7t65 15q33 10 41 16.5t10 6.5q8 0 9 -6v-4l-2 -2q-29 -18 -64 -37t-73 -30t-80 -14t-80 9 q-23 10 -35.5 24.5t-16.5 41.5zM53 98q8 2 29.5 12.5t36.5 18.5l20 14q12 10 25.5 22.5t17.5 20.5q-4 0 -17 -5t-26 -11l-10 -6q-14 -10 -28.5 -20.5t-30.5 -26.5q-4 -4 -13.5 -12.5t-3.5 -6.5zM127 356q0 16 15.5 29.5t19.5 17.5q6 6 19.5 -4t32.5 -24.5t44 -25.5t51 -7 q8 -2 8 -8q0 -4 -2 -6q-12 -8 -43.5 -12.5t-63.5 -1.5t-56.5 12.5t-24.5 29.5z" />
<glyph unicode="&#xe9;" horiz-adv-x="303" d="M-27 66v2q0 31 20.5 63.5t52.5 59t69 44t67 17.5q23 0 50.5 -10.5t27.5 -42.5q0 -35 -25.5 -60.5t-61.5 -42t-75 -25t-65 -8.5q0 -8 12 -13t27.5 -7t31 -3t23.5 -1q35 0 72 7t65 15q33 10 41 16.5t10 6.5q8 0 9 -6v-4l-2 -2q-29 -18 -64 -37t-73 -30t-80 -14t-80 9 q-23 10 -35.5 24.5t-16.5 41.5zM53 98q8 2 29.5 12.5t36.5 18.5l20 14q12 10 25.5 22.5t17.5 20.5q-4 0 -17 -5t-26 -11l-10 -6q-14 -10 -28.5 -20.5t-30.5 -26.5q-4 -4 -13.5 -12.5t-3.5 -6.5zM117 334q0 6 8 8q27 -4 51.5 7t44 25.5t32.5 25t20 3.5q4 -4 19 -17t15 -30 q0 -20 -24.5 -29.5t-56 -12.5t-63.5 1.5t-44 12.5q-2 2 -2 6z" />
<glyph unicode="&#xea;" horiz-adv-x="303" d="M-27 66v2q0 31 20.5 63.5t52.5 59t69 44t67 17.5q23 0 50.5 -10.5t27.5 -42.5q0 -35 -25.5 -60.5t-61.5 -42t-75 -25t-65 -8.5q0 -8 12 -13t27.5 -7t31 -3t23.5 -1q35 0 72 7t65 15q33 10 41 16.5t10 6.5q8 0 9 -6v-4l-2 -2q-29 -18 -64 -37t-73 -30t-80 -14t-80 9 q-23 10 -35.5 24.5t-16.5 41.5zM52 336q0 4 3 4t5 2q59 14 82.5 25.5t40.5 23.5q27 16 30 17q6 0 24.5 -11.5t57.5 -42.5q45 -35 60.5 -41t15.5 -14t-10 -8q-29 0 -74 10t-76 29q-12 -6 -32.5 -10.5t-44 -5.5t-45 2.5t-33.5 11.5zM53 98q8 2 29.5 12.5t36.5 18.5l20 14 q12 10 25.5 22.5t17.5 20.5q-4 0 -17 -5t-26 -11l-10 -6q-14 -10 -28.5 -20.5t-30.5 -26.5q-4 -4 -13.5 -12.5t-3.5 -6.5z" />
<glyph unicode="&#xeb;" horiz-adv-x="303" d="M-27 66v2q0 31 20.5 63.5t52.5 59t69 44t67 17.5q23 0 50.5 -10.5t27.5 -42.5q0 -35 -25.5 -60.5t-61.5 -42t-75 -25t-65 -8.5q0 -8 12 -13t27.5 -7t31 -3t23.5 -1q35 0 72 7t65 15q33 10 41 16.5t10 6.5q8 0 9 -6v-4l-2 -2q-29 -18 -64 -37t-73 -30t-80 -14t-80 9 q-23 10 -35.5 24.5t-16.5 41.5zM53 98q8 2 29.5 12.5t36.5 18.5l20 14q12 10 25.5 22.5t17.5 20.5q-4 0 -17 -5t-26 -11l-10 -6q-14 -10 -28.5 -20.5t-30.5 -26.5q-4 -4 -13.5 -12.5t-3.5 -6.5zM125.5 338.5q-7.5 17.5 1.5 40.5q10 18 12 18q10 0 30.5 -10t24.5 -20 q0 -31 -27 -50l-22 -16q-12 20 -19.5 37.5zM248.5 338.5q-7.5 17.5 0.5 40.5q11 18 13 18q10 0 30.5 -10t24.5 -20q0 -31 -27 -50l-22 -16q-12 20 -19.5 37.5z" />
<glyph unicode="&#xec;" horiz-adv-x="290" d="M-39 68q0 2 1 2t1 2h2q0 4 4 4t8 4q20 10 50 35.5t60 53.5t51.5 50.5t25.5 26.5l4 2q-4 0 4 -2t19.5 -7.5t20.5 -11.5t5 -14q-10 -18 -23.5 -35.5t-25.5 -36t-21.5 -38t-7.5 -44.5q0 -4 10.5 -7t22.5 -3q25 2 56.5 8t52.5 11l32 8q2 0 4 1t7 1h2l5 -10t-9 -9 q-49 -25 -84 -42t-86 -17q-23 0 -43 10q-33 20 -33 66v10q-6 -4 -20.5 -8t-30 -8t-30.5 -7.5t-24 -3.5q-2 0 -6 2t-4 7zM158 356q0 16 15 29.5t20 17.5q6 6 19 -4t32.5 -24.5t44 -25.5t51.5 -7q8 -2 8 -8q0 -4 -2 -6q-12 -8 -44 -12.5t-63.5 -1.5t-56 12.5t-24.5 29.5z" />
<glyph unicode="&#xed;" horiz-adv-x="290" d="M-39 68q0 2 1 2t1 2h2q0 4 4 4t8 4q20 10 50 35.5t60 53.5t51.5 50.5t25.5 26.5l4 2q-4 0 4 -2t19.5 -7.5t20.5 -11.5t5 -14q-10 -18 -23.5 -35.5t-25.5 -36t-21.5 -38t-7.5 -44.5q0 -4 10.5 -7t22.5 -3q25 2 56.5 8t52.5 11l32 8q2 0 4 1t7 1h2l5 -10t-9 -9 q-49 -25 -84 -42t-86 -17q-23 0 -43 10q-33 20 -33 66v10q-6 -4 -20.5 -8t-30 -8t-30.5 -7.5t-24 -3.5q-2 0 -6 2t-4 7zM147 334q0 6 9 8q27 -4 51 7t43.5 25.5t33 25t19.5 3.5q4 -4 19.5 -17t15.5 -30q0 -20 -24.5 -29.5t-56.5 -12.5t-63.5 1.5t-43.5 12.5q-2 2 -3 6z" />
<glyph unicode="&#xee;" horiz-adv-x="290" d="M-39 68q0 2 1 2t1 2h2q0 4 4 4t8 4q20 10 50 35.5t60 53.5t51.5 50.5t25.5 26.5l4 2q-4 0 4 -2t19.5 -7.5t20.5 -11.5t5 -14q-10 -18 -23.5 -35.5t-25.5 -36t-21.5 -38t-7.5 -44.5q0 -4 10.5 -7t22.5 -3q25 2 56.5 8t52.5 11l32 8q2 0 4 1t7 1h2l5 -10t-9 -9 q-49 -25 -84 -42t-86 -17q-23 0 -43 10q-33 20 -33 66v10q-6 -4 -20.5 -8t-30 -8t-30.5 -7.5t-24 -3.5q-2 0 -6 2t-4 7zM88 336q0 4 3 4t5 2q59 14 83 25.5t40 23.5q27 16 31 17q6 0 24.5 -11.5t57.5 -42.5q45 -35 60.5 -41t15.5 -14t-11 -8q-29 0 -73.5 10t-75.5 29 q-12 -6 -32.5 -10.5t-44.5 -5.5t-45.5 2.5t-33.5 11.5z" />
<glyph unicode="&#xef;" horiz-adv-x="290" d="M-39 68q0 2 1 2t1 2h2q0 4 4 4t8 4q20 10 50 35.5t60 53.5t51.5 50.5t25.5 26.5l4 2q-4 0 4 -2t19.5 -7.5t20.5 -11.5t5 -14q-10 -18 -23.5 -35.5t-25.5 -36t-21.5 -38t-7.5 -44.5q0 -4 10.5 -7t22.5 -3q25 2 56.5 8t52.5 11l32 8q2 0 4 1t7 1h2l5 -10t-9 -9 q-49 -25 -84 -42t-86 -17q-23 0 -43 10q-33 20 -33 66v10q-6 -4 -20.5 -8t-30 -8t-30.5 -7.5t-24 -3.5q-2 0 -6 2t-4 7zM144.5 338.5q-7.5 17.5 0.5 40.5q11 18 13 18q10 0 30.5 -10t24.5 -20q0 -31 -27 -50l-22 -16q-12 20 -19.5 37.5zM267.5 338.5q-7.5 17.5 0.5 40.5 q11 18 13 18q10 0 30.5 -10t24.5 -20q0 -31 -27 -50l-22 -16q-12 20 -19.5 37.5z" />
<glyph unicode="&#xf1;" horiz-adv-x="380" d="M-51 25q4 16 6 18q10 27 32.5 52.5t43.5 47.5q23 27 33 36t14 18q0 4 -6 4q-29 0 -56.5 -11.5t-48.5 -19.5q-6 0 -6 6q0 16 68 43q10 4 25.5 8t25.5 2q8 0 19.5 -9t11.5 -21q0 -8 -14.5 -32t-37.5 -56q76 51 133.5 93t67.5 48q12 4 38 -5t26 -20q0 -6 -2 -10 q-6 -16 -29 -50t-62 -106q-2 -4 -4 -10q0 -8 33 -8q70 0 108 19.5t35 19.5h5q10 0 6 -7t-8 -12q-4 -4 -19.5 -15t-39 -23.5t-51.5 -21.5t-58 -9q-4 0 -15.5 1t-24 7t-21.5 18.5t-9 34.5q0 16 9 36t16 32q-10 -8 -40 -28.5t-63 -42t-62.5 -39t-41.5 -17.5q-37 0 -37 29z M74 373q-6 35 22 41q18 -4 21 -6q27 -8 55.5 -29t50.5 -39q29 -20 38 -29.5t20 -13.5q2 2 2 8q-2 31 1 32t13 11q4 4 7 -2t5 -15t3 -18.5t1 -15.5t-8 -18.5t-20 -14.5q-4 0 -20.5 8.5t-39 19.5t-46 24.5t-40.5 23.5q-8 0 -9 -7t-1 -14.5t-3 -11.5t-17 2q-16 20 -24.5 29.5 t-10.5 34.5z" />
<glyph unicode="&#xf2;" horiz-adv-x="389" d="M-84 41q0 4 8 8q41 16 84 42t76 59q53 53 87 74.5t46 21.5h2h2l4 -4q4 4 11.5 4h11.5q39 0 55 -29t16 -57q0 -45 -22 -86q6 -4 19.5 -5t27.5 -1q33 0 50.5 6t19.5 6q8 -4 8 -8l-2 -2l-8 -7q-10 -8 -44 -19t-81 -11h-2q-4 0 -8.5 1t-8.5 1q-29 -27 -63.5 -39t-67.5 -12 q-27 0 -59.5 15t-32.5 54q0 16 6 33q-23 -14 -46 -22.5t-42 -14.5q-23 -8 -41 -12q-2 0 -6 4zM113 59q0 -6 6 -11t28 -5q16 0 33 2t31 12q-25 16 -33 41t-8 41l-8 -7t-19.5 -18.5t-20.5 -26t-9 -28.5zM176 356q0 16 15.5 29.5t19.5 17.5q6 6 19.5 -4t32.5 -24.5t44 -25.5 t51 -7q8 -2 8 -8q0 -4 -2 -6q-12 -8 -43.5 -12.5t-63.5 -1.5t-56.5 12.5t-24.5 29.5zM229 139q0 -8 4.5 -21.5t20.5 -27.5q16 16 24.5 40t8.5 44q0 16 -11.5 32.5t-31.5 16.5q0 -4 5 -10t5 -14t-12 -13h-2q0 -2 -1 -3t-1 -3q-8 -16 -9 -41z" />
<glyph unicode="&#xf3;" horiz-adv-x="389" d="M-84 41q0 4 8 8q41 16 84 42t76 59q53 53 87 74.5t46 21.5h2h2l4 -4q4 4 11.5 4h11.5q39 0 55 -29t16 -57q0 -45 -22 -86q6 -4 19.5 -5t27.5 -1q33 0 50.5 6t19.5 6q8 -4 8 -8l-2 -2l-8 -7q-10 -8 -44 -19t-81 -11h-2q-4 0 -8.5 1t-8.5 1q-29 -27 -63.5 -39t-67.5 -12 q-27 0 -59.5 15t-32.5 54q0 16 6 33q-23 -14 -46 -22.5t-42 -14.5q-23 -8 -41 -12q-2 0 -6 4zM113 59q0 -6 6 -11t28 -5q16 0 33 2t31 12q-25 16 -33 41t-8 41l-8 -7t-19.5 -18.5t-20.5 -26t-9 -28.5zM168 334q0 6 8 8q27 -4 51.5 7t44 25.5t32.5 25t20 3.5q4 -4 19 -17 t15 -30q0 -20 -24.5 -29.5t-56 -12.5t-63.5 1.5t-44 12.5q-2 2 -2 6zM229 139q0 -8 4.5 -21.5t20.5 -27.5q16 16 24.5 40t8.5 44q0 16 -11.5 32.5t-31.5 16.5q0 -4 5 -10t5 -14t-12 -13h-2q0 -2 -1 -3t-1 -3q-8 -16 -9 -41z" />
<glyph unicode="&#xf4;" horiz-adv-x="389" d="M-84 41q0 4 8 8q41 16 84 42t76 59q53 53 87 74.5t46 21.5h2h2l4 -4q4 4 11.5 4h11.5q39 0 55 -29t16 -57q0 -45 -22 -86q6 -4 19.5 -5t27.5 -1q33 0 50.5 6t19.5 6q8 -4 8 -8l-2 -2l-8 -7q-10 -8 -44 -19t-81 -11h-2q-4 0 -8.5 1t-8.5 1q-29 -27 -63.5 -39t-67.5 -12 q-27 0 -59.5 15t-32.5 54q0 16 6 33q-23 -14 -46 -22.5t-42 -14.5q-23 -8 -41 -12q-2 0 -6 4zM109 336q0 4 3 4t5 2q59 14 82.5 25.5t40.5 23.5q27 16 30 17q6 0 24.5 -11.5t57.5 -42.5q45 -35 60.5 -41t15.5 -14t-10 -8q-29 0 -74 10t-76 29q-12 -6 -32.5 -10.5t-44 -5.5 t-45 2.5t-33.5 11.5zM113 59q0 -6 6 -11t28 -5q16 0 33 2t31 12q-25 16 -33 41t-8 41l-8 -7t-19.5 -18.5t-20.5 -26t-9 -28.5zM229 139q0 -8 4.5 -21.5t20.5 -27.5q16 16 24.5 40t8.5 44q0 16 -11.5 32.5t-31.5 16.5q0 -4 5 -10t5 -14t-12 -13h-2q0 -2 -1 -3t-1 -3 q-8 -16 -9 -41z" />
<glyph unicode="&#xf5;" horiz-adv-x="389" d="M-84 41q0 4 8 8q41 16 84 42t76 59q53 53 87 74.5t46 21.5h2h2l4 -4q4 4 11.5 4h11.5q39 0 55 -29t16 -57q0 -45 -22 -86q6 -4 19.5 -5t27.5 -1q33 0 50.5 6t19.5 6q8 -4 8 -8l-2 -2l-8 -7q-10 -8 -44 -19t-81 -11h-2q-4 0 -8.5 1t-8.5 1q-29 -27 -63.5 -39t-67.5 -12 q-27 0 -59.5 15t-32.5 54q0 16 6 33q-23 -14 -46 -22.5t-42 -14.5q-23 -8 -41 -12q-2 0 -6 4zM113 59q0 -6 6 -11t28 -5q16 0 33 2t31 12q-25 16 -33 41t-8 41l-8 -7t-19.5 -18.5t-20.5 -26t-9 -28.5zM156 373q-6 35 22 41q18 -4 21 -6q27 -8 55.5 -29t50.5 -39 q29 -20 38 -29.5t20 -13.5q2 2 2 8q-2 31 1 32t13 11q4 4 7 -2t5 -15t3 -18.5t1 -15.5t-8 -18.5t-20 -14.5q-4 0 -20.5 8.5t-39 19.5t-46 24.5t-40.5 23.5q-8 0 -9 -7t-1 -14.5t-3 -11.5t-17 2q-16 20 -24.5 29.5t-10.5 34.5zM229 139q0 -8 4.5 -21.5t20.5 -27.5 q16 16 24.5 40t8.5 44q0 16 -11.5 32.5t-31.5 16.5q0 -4 5 -10t5 -14t-12 -13h-2q0 -2 -1 -3t-1 -3q-8 -16 -9 -41z" />
<glyph unicode="&#xf6;" horiz-adv-x="389" d="M-84 41q0 4 8 8q41 16 84 42t76 59q53 53 87 74.5t46 21.5h2h2l4 -4q4 4 11.5 4h11.5q39 0 55 -29t16 -57q0 -45 -22 -86q6 -4 19.5 -5t27.5 -1q33 0 50.5 6t19.5 6q8 -4 8 -8l-2 -2l-8 -7q-10 -8 -44 -19t-81 -11h-2q-4 0 -8.5 1t-8.5 1q-29 -27 -63.5 -39t-67.5 -12 q-27 0 -59.5 15t-32.5 54q0 16 6 33q-23 -14 -46 -22.5t-42 -14.5q-23 -8 -41 -12q-2 0 -6 4zM113 59q0 -6 6 -11t28 -5q16 0 33 2t31 12q-25 16 -33 41t-8 41l-8 -7t-19.5 -18.5t-20.5 -26t-9 -28.5zM185.5 338.5q-7.5 17.5 1.5 40.5q10 18 12 18q10 0 30.5 -10t24.5 -20 q0 -31 -27 -50l-22 -16q-12 20 -19.5 37.5zM229 139q0 -8 4.5 -21.5t20.5 -27.5q16 16 24.5 40t8.5 44q0 16 -11.5 32.5t-31.5 16.5q0 -4 5 -10t5 -14t-12 -13h-2q0 -2 -1 -3t-1 -3q-8 -16 -9 -41zM308.5 338.5q-7.5 17.5 0.5 40.5q11 18 13 18q10 0 30.5 -10t24.5 -20 q0 -31 -27 -50l-22 -16q-12 20 -19.5 37.5z" />
<glyph unicode="&#xf7;" horiz-adv-x="669" d="M90 115q0 4 4 8q80 0 159 2t142.5 5t107.5 6t54 5h13.5t7.5 -18q6 -20 -9.5 -34.5t-9.5 -10.5q6 2 -23.5 -1t-90 -4t-148.5 6t-199 30q-6 0 -8 6zM274.5 -19q-4.5 17 6.5 39q6 8 8 13.5t6 3.5q10 -2 28.5 -14.5t22.5 -22.5q-4 -31 -33 -45l-24 -14q-10 23 -14.5 40z M307.5 192q-4.5 17 5.5 39q11 19 15 17q10 -2 28.5 -14.5t22.5 -22.5q-4 -29 -33 -45l-24 -14q-10 23 -14.5 40z" />
<glyph unicode="&#xf8;" horiz-adv-x="389" d="M-84 41q0 4 8 8q41 16 84 42t76 59q53 53 87 74.5t46 21.5h2h2l4 -4q4 4 11.5 4h11.5q14 0 26 -6l23 36l10 12.5t12 2.5q14 -2 13.5 -13.5t-4.5 -19.5l-25 -41q16 -27 16 -57q0 -45 -22 -86q6 -4 19.5 -5t27.5 -1q33 0 50.5 6t19.5 6q8 -4 8 -8l-2 -2l-8 -7 q-10 -8 -44 -19t-81 -11h-2q-4 0 -8.5 1t-8.5 1q-29 -27 -63.5 -39t-67.5 -12q-12 0 -18 2l-66 -76q-2 0 -4 -2t-4 -2q-6 0 -2 6l57 78q-23 8 -39 22t-16 41q0 16 6 33q-23 -14 -46 -22.5t-42 -14.5q-23 -8 -41 -12q-2 0 -6 4zM113 59q0 -6 4 -10t20 -6l41 55q-8 23 -8 41 l-8 -7t-19.5 -18.5t-20.5 -26t-9 -28.5zM168 43q27 4 43 14l-18 15zM231 121q4 -6 8.5 -14.5t14.5 -16.5q16 16 24.5 40t8.5 44q0 10 -2 16q-10 -14 -23.5 -30.5t-30.5 -38.5zM244 223q0 -4 8 -16q4 8 8 12q-12 4 -16 4z" />
<glyph unicode="&#xf9;" horiz-adv-x="354" d="M-31 51q0 33 19.5 69t44.5 64q27 35 63 68l2 2q14 0 33 -6t23 -23q-8 -14 -18.5 -28.5t-24.5 -30.5q-4 -4 -15.5 -18.5t-26 -33t-24.5 -37t-10 -28.5h2h12q14 2 37 15.5t47.5 34t49 43t44.5 42.5q18 20 27.5 33.5t26.5 28.5q10 8 29.5 -3.5t19.5 -19.5q0 -10 -6.5 -20 t-12.5 -23q-41 -66 -62.5 -93.5t-21.5 -37.5q6 -6 19 -6q6 0 27.5 4t46 10t43 13.5t18.5 13.5h2q8 0 8 -6q0 8 -1 1t-14.5 -21.5t-43 -32t-84.5 -29.5q-29 -6 -45.5 4t-24.5 24.5t-9 29t5 20.5q-29 -29 -63.5 -56.5t-85.5 -27.5q-20 0 -38 18.5t-18 42.5zM154 356 q0 16 15.5 29.5t19.5 17.5q6 6 19.5 -4t32.5 -24.5t44 -25.5t51 -7q8 -2 8 -8q0 -4 -2 -6q-12 -8 -43.5 -12.5t-63.5 -1.5t-56.5 12.5t-24.5 29.5z" />
<glyph unicode="&#xfa;" horiz-adv-x="354" d="M-31 51q0 33 19.5 69t44.5 64q27 35 63 68l2 2q14 0 33 -6t23 -23q-8 -14 -18.5 -28.5t-24.5 -30.5q-4 -4 -15.5 -18.5t-26 -33t-24.5 -37t-10 -28.5h2h12q14 2 37 15.5t47.5 34t49 43t44.5 42.5q18 20 27.5 33.5t26.5 28.5q10 8 29.5 -3.5t19.5 -19.5q0 -10 -6.5 -20 t-12.5 -23q-41 -66 -62.5 -93.5t-21.5 -37.5q6 -6 19 -6q6 0 27.5 4t46 10t43 13.5t18.5 13.5h2q8 0 8 -6q0 8 -1 1t-14.5 -21.5t-43 -32t-84.5 -29.5q-29 -6 -45.5 4t-24.5 24.5t-9 29t5 20.5q-29 -29 -63.5 -56.5t-85.5 -27.5q-20 0 -38 18.5t-18 42.5zM154 334q0 6 8 8 q27 -4 51.5 7t44 25.5t32.5 25t20 3.5q4 -4 19 -17t15 -30q0 -20 -24.5 -29.5t-56 -12.5t-63.5 1.5t-44 12.5q-2 2 -2 6z" />
<glyph unicode="&#xfb;" horiz-adv-x="354" d="M-31 51q0 33 19.5 69t44.5 64q27 35 63 68l2 2q14 0 33 -6t23 -23q-8 -14 -18.5 -28.5t-24.5 -30.5q-4 -4 -15.5 -18.5t-26 -33t-24.5 -37t-10 -28.5h2h12q14 2 37 15.5t47.5 34t49 43t44.5 42.5q18 20 27.5 33.5t26.5 28.5q10 8 29.5 -3.5t19.5 -19.5q0 -10 -6.5 -20 t-12.5 -23q-41 -66 -62.5 -93.5t-21.5 -37.5q6 -6 19 -6q6 0 27.5 4t46 10t43 13.5t18.5 13.5h2q8 0 8 -6q0 8 -1 1t-14.5 -21.5t-43 -32t-84.5 -29.5q-29 -6 -45.5 4t-24.5 24.5t-9 29t5 20.5q-29 -29 -63.5 -56.5t-85.5 -27.5q-20 0 -38 18.5t-18 42.5zM86 336q0 4 3 4 t5 2q59 14 82.5 25.5t40.5 23.5q27 16 30 17q6 0 24.5 -11.5t57.5 -42.5q45 -35 60.5 -41t15.5 -14t-10 -8q-29 0 -74 10t-76 29q-12 -6 -32.5 -10.5t-44 -5.5t-45 2.5t-33.5 11.5z" />
<glyph unicode="&#xfc;" horiz-adv-x="354" d="M-31 51q0 33 19.5 69t44.5 64q27 35 63 68l2 2q14 0 33 -6t23 -23q-8 -14 -18.5 -28.5t-24.5 -30.5q-4 -4 -15.5 -18.5t-26 -33t-24.5 -37t-10 -28.5h2h12q14 2 37 15.5t47.5 34t49 43t44.5 42.5q18 20 27.5 33.5t26.5 28.5q10 8 29.5 -3.5t19.5 -19.5q0 -10 -6.5 -20 t-12.5 -23q-41 -66 -62.5 -93.5t-21.5 -37.5q6 -6 19 -6q6 0 27.5 4t46 10t43 13.5t18.5 13.5h2q8 0 8 -6q0 8 -1 1t-14.5 -21.5t-43 -32t-84.5 -29.5q-29 -6 -45.5 4t-24.5 24.5t-9 29t5 20.5q-29 -29 -63.5 -56.5t-85.5 -27.5q-20 0 -38 18.5t-18 42.5zM156.5 338.5 q-7.5 17.5 1.5 40.5q10 18 12 18q10 0 30.5 -10t24.5 -20q0 -31 -27 -50l-22 -16q-12 20 -19.5 37.5zM279.5 338.5q-7.5 17.5 0.5 40.5q11 18 13 18q10 0 30.5 -10t24.5 -20q0 -31 -27 -50l-22 -16q-12 20 -19.5 37.5z" />
<glyph unicode="&#xfd;" horiz-adv-x="315" d="M-264 -422q0 43 29.5 95.5t74.5 104.5t100.5 99t104.5 82l35 49q-16 -12 -51 -12t-47.5 19.5t-12.5 35.5q0 27 10.5 54.5t27 54t35.5 51.5t38 43q2 2 12 1t19.5 -5t17.5 -10.5t8 -12.5q0 -4 -4 -8l-2 -2q-23 -29 -48.5 -66.5t-45.5 -93.5q31 0 62.5 20.5t58.5 43.5 q37 37 53 60.5t25.5 35.5t17.5 17.5t29 5.5q10 0 20 -5.5t10 -15.5q0 -6 -2 -10t-11 -17.5t-30.5 -41t-58.5 -78.5l-29 -37h6q55 23 88 30t35 7h6q8 0 9 -6q0 -4 -3.5 -5.5t-5.5 -3.5h-2q-8 -2 -17 -4t-22.5 -7t-34 -13t-51.5 -23q-25 -10 -53 -41.5t-61 -75t-70 -95.5 t-76 -103q-29 -37 -48 -60.5t-31.5 -39t-19.5 -23.5t-15 -16q-10 -10 -15.5 -12.5t-9.5 -4.5h-4q-29 0 -40 10.5t-11 28.5zM-176 -340q27 35 51.5 67.5t48.5 67.5l13 17q-35 -37 -63 -78t-50 -74zM119 334q0 6 8 8q27 -4 51.5 7t44 25.5t32.5 25t20 3.5q4 -4 19 -17t15 -30 q0 -20 -24.5 -29.5t-56 -12.5t-63.5 1.5t-44 12.5q-2 2 -2 6z" />
<glyph unicode="&#xff;" horiz-adv-x="315" d="M-264 -422q0 43 29.5 95.5t74.5 104.5t100.5 99t104.5 82l35 49q-16 -12 -51 -12t-47.5 19.5t-12.5 35.5q0 27 10.5 54.5t27 54t35.5 51.5t38 43q2 2 12 1t19.5 -5t17.5 -10.5t8 -12.5q0 -4 -4 -8l-2 -2q-23 -29 -48.5 -66.5t-45.5 -93.5q31 0 62.5 20.5t58.5 43.5 q37 37 53 60.5t25.5 35.5t17.5 17.5t29 5.5q10 0 20 -5.5t10 -15.5q0 -6 -2 -10t-11 -17.5t-30.5 -41t-58.5 -78.5l-29 -37h6q55 23 88 30t35 7h6q8 0 9 -6q0 -4 -3.5 -5.5t-5.5 -3.5h-2q-8 -2 -17 -4t-22.5 -7t-34 -13t-51.5 -23q-25 -10 -53 -41.5t-61 -75t-70 -95.5 t-76 -103q-29 -37 -48 -60.5t-31.5 -39t-19.5 -23.5t-15 -16q-10 -10 -15.5 -12.5t-9.5 -4.5h-4q-29 0 -40 10.5t-11 28.5zM-176 -340q27 35 51.5 67.5t48.5 67.5l13 17q-35 -37 -63 -78t-50 -74zM134.5 338.5q-7.5 17.5 1.5 40.5q10 18 12 18q10 0 30.5 -10t24.5 -20 q0 -31 -27 -50l-22 -16q-12 20 -19.5 37.5zM257.5 338.5q-7.5 17.5 0.5 40.5q11 18 13 18q10 0 30.5 -10t24.5 -20q0 -31 -27 -50l-22 -16q-12 20 -19.5 37.5z" />
<glyph unicode="&#x152;" horiz-adv-x="1261" d="M20 66q0 55 31 125.5t82 145.5t117.5 147.5t138.5 133t145.5 103.5t137.5 55h-2h-4q-16 12 -26.5 16.5t-14.5 20.5q0 10 12 16.5t47 6.5q92 0 151.5 -44t59.5 -151q0 -66 -30.5 -152t-83 -173t-123 -163.5t-150.5 -125.5q41 -23 75.5 -32t61.5 -13q2 -2 10.5 -14.5 t8.5 -30.5q0 -14 -5.5 -17.5t-9.5 -3.5q-49 0 -105.5 21.5t-99.5 50.5q-31 -14 -67.5 -31.5t-77.5 -30t-86 -16.5t-90 10q-41 14 -72 53t-31 93zM61 68q0 -49 29 -86t92 -45q55 -6 120 18.5t116 52.5q-86 80 -86 193q2 55 18.5 105t38 94t47 81t47.5 64q41 49 88 90t93 70 q-143 -63 -254 -153.5t-188 -183t-118 -174t-43 -126.5zM397 209q0 -59 23.5 -99t56.5 -63q72 51 136.5 127t113.5 158t79 162.5t30 146.5q0 137 -138 137q29 -14 35 -43q0 -12 -11 -19t-22 -11q-4 -4 -47 -34t-94 -93q-78 -98 -120 -194.5t-42 -174.5zM699 45 q0 59 30.5 109.5t55.5 83.5q-16 4 -22.5 5t-6.5 9q0 2 4 6h41q68 82 157 165t188 161t200.5 146.5t193.5 121.5l2 2h11q6 0 16 -1t19.5 -5t15.5 -10.5t2 -14.5q-6 -8 -37 -51t-66.5 -94t-66.5 -97t-35 -61h-2q0 -2 -4 -2h-17q-16 0 -27 2t-11 15v2q0 6 2 14q4 16 10 22l2 2 q8 23 34.5 61t67.5 79l-10 -6q-41 -27 -97.5 -68t-135.5 -100l-23 -17q-35 -25 -76 -57.5t-84 -68.5t-85 -71.5t-74 -68.5q43 0 92 -1t91 -3t71.5 -4t35.5 -4l2 -2q6 0 7 -37q0 -16 -2.5 -20.5t-8.5 -4.5h-2h-20q-76 0 -148.5 12.5t-150.5 28.5q-37 -41 -68 -89t-31 -101 q0 -10 5.5 -29.5t28 -38t65.5 -33t121 -14.5q45 0 91 10.5t84 24.5t67.5 28.5t45.5 22.5q0 -2 19.5 -10t19.5 -27q0 -6 -7 -11t-13 -9q-53 -39 -127 -57.5t-150.5 -15.5t-146.5 25.5t-111 65.5q-33 29 -32 80z" />
<glyph unicode="&#x153;" horiz-adv-x="575" d="M-84 41q0 4 8 8q41 16 84 42t76 59q53 53 87 74.5t46 21.5h2h2l4 -4q4 4 11.5 4h11.5q31 0 47 -19.5t22 -44.5q33 29 72 49.5t74 20.5q23 0 50.5 -10.5t27.5 -42.5q0 -35 -26 -60.5t-61.5 -42t-74.5 -25t-66 -8.5q0 -8 12.5 -13t28 -7t30.5 -3t24 -1q35 0 71.5 7t65.5 15 q33 10 41 16.5t10 6.5q8 0 8 -6v-4l-2 -2q-29 -18 -63.5 -37t-72.5 -30t-80 -14t-81 9q-25 8 -41 31q-29 -23 -62.5 -35t-64.5 -12q-27 0 -59.5 15t-32.5 54q0 16 6 33q-23 -14 -46 -22.5t-42 -14.5q-23 -8 -41 -12q-2 0 -6 4zM113 59q0 -6 6 -11t28 -5q16 0 33 2t31 12 q-25 16 -33 41t-8 41l-8 -7t-19.5 -18.5t-20.5 -26t-9 -28.5zM229 139q0 -8 4.5 -21.5t20.5 -27.5l2 2q10 27 27 49q2 10 3 17.5t1 15.5q0 16 -11.5 32.5t-31.5 16.5q0 -4 5 -10t5 -14t-12 -13h-2q0 -2 -1 -3t-1 -3q-8 -16 -9 -41zM334 98q8 2 29.5 12.5t35.5 18.5l21 14 q12 10 25.5 22.5t17.5 20.5q-4 0 -17.5 -5t-25.5 -11l-10 -6q-14 -10 -29 -20.5t-31 -26.5q-4 -4 -13 -12.5t-3 -6.5z" />
<glyph unicode="&#x178;" horiz-adv-x="436" d="M-49 696q0 8 12 17q6 4 38 25.5t83 21.5q31 0 58.5 -14.5t23.5 -57.5l-2 -41l-23 -260q-4 -41 -5 -85t-1 -87q0 -23 2 -54.5t10.5 -60t24.5 -48t45 -19.5q10 0 20.5 3t20.5 7q49 72 103.5 154t106.5 163.5t99 157.5t85 137.5t64.5 103.5t35.5 54q2 2 11 6t23 4 q6 0 18.5 -4t12.5 -14q0 -6 -10 -27q-12 -27 -38 -62.5t-69 -107.5q-25 -39 -67.5 -108.5t-101 -154.5t-127 -180t-142.5 -188q-27 -33 -57.5 -69.5t-61 -68.5t-59.5 -53.5t-47 -21.5h-2q-10 0 -11 7.5t-4 13.5q0 14 1.5 16t5.5 2q8 0 7 -8t3 -12q16 0 68.5 58.5 t130.5 168.5q-6 -2 -23 -2q-47 0 -72.5 35t-39 87t-16.5 113.5t-3 112.5q0 47 1 98.5t7 116.5l6 76q0 10 1 27.5t-15 17.5q-6 0 -19.5 -5t-28 -12t-26.5 -12.5t-14 -5.5q-16 -8 -29.5 3.5t-13.5 35.5zM312.5 821.5q-7.5 17.5 1.5 40.5q10 18 12 18q10 0 30.5 -10t24.5 -20 q0 -31 -27 -50l-22 -16q-12 20 -19.5 37.5zM435.5 821.5q-7.5 17.5 0.5 40.5q11 18 13 18q10 0 30.5 -10t24.5 -20q0 -31 -27 -50l-22 -16q-12 20 -19.5 37.5z" />
<glyph unicode="&#x2c6;" horiz-adv-x="458" d="M72 336q0 4 3 4t5 2q59 14 82.5 25.5t40.5 23.5q27 16 30 17q6 0 24.5 -11.5t57.5 -42.5q45 -35 60.5 -41t15.5 -14t-10 -8q-29 0 -74 10t-76 29q-12 -6 -32.5 -10.5t-44 -5.5t-45 2.5t-33.5 11.5z" />
<glyph unicode="&#x2dc;" horiz-adv-x="423" d="M115 373q-6 35 22 41q18 -4 21 -6q27 -8 55.5 -29t50.5 -39q29 -20 38 -29.5t20 -13.5q2 2 2 8q-2 31 1 32t13 11q4 4 7 -2t5 -15t3 -18.5t1 -15.5t-8 -18.5t-20 -14.5q-4 0 -20.5 8.5t-39 19.5t-46 24.5t-40.5 23.5q-8 0 -9 -7t-1 -14.5t-3 -11.5t-17 2 q-16 20 -24.5 29.5t-10.5 34.5z" />
<glyph unicode="&#x2000;" horiz-adv-x="682" />
<glyph unicode="&#x2001;" horiz-adv-x="1365" />
<glyph unicode="&#x2002;" horiz-adv-x="682" />
<glyph unicode="&#x2003;" horiz-adv-x="1365" />
<glyph unicode="&#x2004;" horiz-adv-x="455" />
<glyph unicode="&#x2005;" horiz-adv-x="341" />
<glyph unicode="&#x2006;" horiz-adv-x="227" />
<glyph unicode="&#x2007;" horiz-adv-x="227" />
<glyph unicode="&#x2008;" horiz-adv-x="170" />
<glyph unicode="&#x2009;" horiz-adv-x="273" />
<glyph unicode="&#x200a;" horiz-adv-x="75" />
<glyph unicode="&#x2010;" horiz-adv-x="696" d="M90 78q0 4 4 8q80 0 159 2t142.5 5t107.5 6t54 5h13.5t7.5 -18q6 -20 -9.5 -34.5t-9.5 -10.5q6 2 -23.5 -1t-90 -4t-148.5 6t-199 30q-6 0 -8 6z" />
<glyph unicode="&#x2011;" horiz-adv-x="696" d="M90 78q0 4 4 8q80 0 159 2t142.5 5t107.5 6t54 5h13.5t7.5 -18q6 -20 -9.5 -34.5t-9.5 -10.5q6 2 -23.5 -1t-90 -4t-148.5 6t-199 30q-6 0 -8 6z" />
<glyph unicode="&#x2012;" horiz-adv-x="696" d="M90 78q0 4 4 8q80 0 159 2t142.5 5t107.5 6t54 5h13.5t7.5 -18q6 -20 -9.5 -34.5t-9.5 -10.5q6 2 -23.5 -1t-90 -4t-148.5 6t-199 30q-6 0 -8 6z" />
<glyph unicode="&#x2013;" horiz-adv-x="829" d="M90 84q0 4 4 8q53 0 121 1t138.5 3t138 4t123 4t91 3.5t44.5 3.5q10 0 13 -0.5t7 -18.5q6 -20 -9.5 -34.5t-8.5 -10.5q6 2 -54.5 -1t-156 -4t-214 6t-229.5 30q-6 0 -8 6z" />
<glyph unicode="&#x2014;" horiz-adv-x="1282" d="M90 82q0 4 4 8q53 0 151.5 1t215.5 3t238.5 4t222 4t167 3t74.5 4q10 0 13.5 -0.5t7.5 -18.5q6 -20 -9.5 -34.5t-9.5 -10.5q4 2 -53 1t-151.5 -3t-212 -3t-237.5 2t-229.5 10t-183.5 24q-6 0 -8 6z" />
<glyph unicode="&#x2019;" horiz-adv-x="219" d="M207 541q-4 4 0 10q20 18 28.5 44t11.5 49.5t5 39.5t10 16q4 0 25.5 2.5t34.5 -8.5q14 -14 4.5 -38.5t-30 -49t-45 -45t-38.5 -24.5q-2 0 -6 4z" />
<glyph unicode="&#x202f;" horiz-adv-x="273" />
<glyph unicode="&#x205f;" horiz-adv-x="341" />
<glyph unicode="&#x20ac;" horiz-adv-x="808" d="M129 557q0 6 4 6h113q10 12 22.5 23.5t22.5 21.5q-33 2 -64.5 6t-72.5 15q-4 0 -7 2q0 4 1.5 5t1.5 3q47 0 93 1t85 3q63 57 126.5 105.5t116 85t88 59t46.5 29.5h4q14 0 27.5 -4.5t11.5 -14.5q-27 -35 -50.5 -67.5t-42 -60t-30 -46t-11.5 -24.5h-2q-2 -2 -4 -3h-8 q-10 0 -18.5 1.5t-8.5 11.5q0 2 4.5 10t4.5 14v2q6 12 22.5 38t44.5 52l-6 -4q-63 -41 -125.5 -86t-122.5 -94q23 2 38.5 2t19.5 2q6 0 7 -1t5 -11t-3 -18.5t-9 -12.5q2 2 -30 -1t-79 -3l-12 -10l-33 -29q53 4 90 6t45 4h8t4 -12q2 -6 0 -12t-5 -10t-6 -6.5t-1 0.5 q-4 0 -48 -4.5t-122 1.5q-35 -33 -58.5 -68.5t-23.5 -70.5t22.5 -52t55.5 -24.5t69 -5.5t62 6q20 4 42 13.5t39 17.5t28 14l12 7q4 -2 15.5 -8.5t11.5 -16.5q0 -4 -5.5 -7t-9.5 -7t-42 -24.5t-109 -20.5q-23 0 -49.5 2t-54 8t-52.5 17.5t-41 29.5q-20 23 -20 55 q0 35 18.5 71t46.5 69l-86 16q-2 0 -6 4zM453 608h2h-2z" />
<glyph unicode="&#x2122;" horiz-adv-x="1265" d="M78 770q0 8 22 8q154 -4 294.5 -5t287.5 -7q61 90 110.5 152.5t59.5 72.5h2h4q2 0 4 1t6 1h2q8 0 17.5 -5t9.5 -11q0 -2 -8 -14l-2 -2q-6 -10 -17.5 -23.5t-28 -35t-42 -54.5t-60.5 -80q-2 -2 -2 -4q141 -6 222 -10t121 -8.5t50.5 -7.5t10.5 -5q0 -4 -7.5 -5t-17.5 -1h-6 h-157.5t-241.5 2q-41 -53 -93.5 -123.5t-95.5 -138.5l-2 -2q-12 -23 -25.5 -46.5t-13.5 -41.5q0 -14 17.5 -17.5t33.5 -3.5q31 0 48.5 11.5t27.5 11.5q0 -2 2 -2l2 -2l-4 -4q-6 -12 -34.5 -22.5t-53.5 -10.5q-23 0 -42 8t-19 35t16.5 64.5t43 82.5t62 96.5t74.5 104.5 q-96 0 -190 1t-171 2t-128 2t-62 1h-2q-6 2 -12 8q-12 12 -12 27zM594 375q10 4 21.5 20.5t31 47t50 76.5t81.5 112q-18 -10 -36.5 -14.5t-28.5 -4.5q-8 0 -8 2h-3q-2 2 -2 4v9q0 10 5 10h2l2 2q10 0 35.5 5t62.5 22q25 35 27 36h2q-2 0 9 2.5t13 -6.5q0 -6 -2 -10 q-4 -4 -8 -9l-12 -15q35 20 60.5 34.5t61.5 14.5q20 -4 24.5 -17.5t-0.5 -30t-13 -33t-15 -24.5q14 14 33 25q16 10 36.5 17t43.5 9q23 0 38 -12t15 -35q0 -20 -10 -44.5t-23.5 -49t-29 -45t-25.5 -35.5l-2 -2l-12 -16t-6 -14q0 -4 4 -10.5t14 -6.5t21.5 4t19.5 8q2 2 7 2 t1 -4q-16 -10 -26.5 -14t-20.5 -4q-33 0 -33 25q0 23 22.5 53t33.5 47q12 20 27.5 50t15.5 52q0 27 -27 27q-10 0 -26.5 -4t-32.5 -15q-18 -10 -29.5 -19t-19.5 -15l-15 -15h-2q-4 -6 -22.5 -26.5t-38 -44t-37 -44t-19.5 -26.5l-2 -2l-2 2q0 16 26 51t69 107q2 4 13 21.5 t19.5 37t10.5 34.5t-11 15q-18 0 -45.5 -15t-56.5 -35.5t-53.5 -41t-32.5 -29.5q-61 -82 -104.5 -141t-61.5 -68h-2z" />
<glyph unicode="&#x25fc;" horiz-adv-x="348" d="M0 0v348h348v-348h-348z" />
</font>
</defs>
</svg>
