<svg xmlns="http://www.w3.org/2000/svg"><metadata/><defs><font id="visitor_tt1_brkregular" horiz-adv-x="1228"><font-face ascent="1638" descent="-410" units-per-em="2048"/><glyph horiz-adv-x="2048"/><glyph horiz-adv-x="2048"/><glyph horiz-adv-x="2048"/><glyph/><glyph d="M0 0h205v205h-205v-205zM0 410h205v614h-205v-614z" horiz-adv-x="409" unicode="!"/><glyph d="M0 614h205v410h-205v-410zM410 614h204v410h-204v-410z" horiz-adv-x="819" unicode="&quot;"/><glyph d="M0 205h205v-205h205v205h204v-205h205v205h205v205h-205v204h205v205h-205v205h-205v-205h-204v205h-205v-205h-205v-205h205v-204h-205v-205zM410 410v204h204v-204h-204z" unicode="#"/><glyph d="M0 0h410v-205h204v205h410v614h-819v205h819v205h-410v205h-204v-205h-410v-614h819v-205h-819v-205z" unicode="$"/><glyph d="M0 0h205v205h-205v-205zM0 614h410v-204h204v-410h410v410h-410v204h-204v410h-410v-410zM205 205h205v205h-205v-205zM614 614h205v205h-205v-205zM819 819h205v205h-205v-205z" unicode="%"/><glyph d="M0 0h410v-205h204v205h410v205h-819v205h819v204h-819v205h819v205h-410v205h-204v-205h-410v-1024z" unicode="&amp;"/><glyph d="M0 614h205v410h-205v-410z" horiz-adv-x="409" unicode="'"/><glyph d="M0 205h205v-205h205v205h-205v614h-205v-614zM205 819h205v205h-205v-205z" horiz-adv-x="614" unicode="("/><glyph d="M0 0h205v205h-205v-205zM0 819h205v-614h205v614h-205v205h-205v-205z" horiz-adv-x="614" unicode=")"/><glyph d="M0 410h205v204h-205v-204zM0 819h205v-205h205v-204h204v204h205v-204h205v204h-205v205h-205v205h-204v-205h-205v205h-205v-205zM819 819h205v205h-205v-205z" unicode="*"/><glyph d="M0 410h410v-410h204v410h410v204h-410v410h-204v-410h-410v-204z" unicode="+"/><glyph d="M0 -205h205v410h-205v-410z" horiz-adv-x="409" unicode=","/><glyph d="M0 410v204h614v-204h-614z" horiz-adv-x="819" unicode="-"/><glyph d="M0 0h205v205h-205v-205z" horiz-adv-x="409" unicode="."/><glyph d="M0 0h205v205h-205v-205zM205 205h205v205h-205v-205zM410 410h204v204h-204v-204zM614 614h205v205h-205v-205zM819 819h205v205h-205v-205z" unicode="/"/><glyph d="M0 0h1024v1024h-1024v-1024zM205 205v614h614v-614h-614z" unicode="0"/><glyph d="M0 819h205v-819h205v1024h-410v-205z" horiz-adv-x="614" unicode="1"/><glyph d="M0 0h1024v205h-819v205h819v614h-1024v-205h819v-205h-819v-614z" unicode="2"/><glyph d="M0 0h1024v1024h-1024v-205h819v-205h-409v-204h409v-205h-819v-205z" unicode="3"/><glyph d="M0 410h819v-410h205v1024h-205v-410h-614v410h-205v-614z" unicode="4"/><glyph d="M0 0h1024v614h-819v205h819v205h-1024v-614h819v-205h-819v-205z" unicode="5"/><glyph d="M0 0h1024v614h-819v205h819v205h-1024v-1024zM205 205v205h614v-205h-614z" unicode="6"/><glyph d="M0 819h819v-819h205v1024h-1024v-205z" unicode="7"/><glyph d="M0 0h1024v1024h-1024v-1024zM205 205v205h614v-205h-614zM205 614v205h614v-205h-614z" unicode="8"/><glyph d="M0 410h819v-410h205v1024h-1024v-614zM205 614v205h614v-205h-614z" unicode="9"/><glyph d="M0 0h205v205h-205v-205zM0 819h205v205h-205v-205z" horiz-adv-x="409" unicode=":"/><glyph d="M0 -205h205v410h-205v-410zM0 819h205v205h-205v-205z" horiz-adv-x="409" unicode=";"/><glyph d="M0 410h205v-205h205v-205h204v205h-204v205h-205v204h-205v-204zM205 614h205v205h-205v-205zM410 819h204v205h-204v-205z" horiz-adv-x="819" unicode="&lt;"/><glyph d="M0 205v205h1024v-205h-1024zM0 614v205h1024v-205h-1024z" unicode="="/><glyph d="M0 0h205v205h-205v-205zM0 819h205v-205h205v-204h204v204h-204v205h-205v205h-205v-205zM205 205h205v205h-205v-205z" horiz-adv-x="819" unicode="&gt;"/><glyph d="M0 819h819v-205h-409v-204h614v614h-1024v-205zM410 0h204v205h-204v-205z" unicode="?"/><glyph d="M0 0h205v819h614v-205h-409v-614h614v1024h-1024v-1024zM614 205v205h205v-205h-205z" unicode="@"/><glyph d="M0 0h205v410h614v-410h205v1024h-1024v-1024zM205 614v205h614v-205h-614z" unicode="A"/><glyph d="M0 0h819v205h-614v205h614v-205h205v614h-205v205h-819v-1024zM205 614v205h614v-205h-614z" unicode="B"/><glyph d="M0 0h1024v205h-819v614h819v205h-1024v-1024z" unicode="C"/><glyph d="M0 0h819v205h-614v614h614v-614h205v614h-205v205h-819v-1024z" unicode="D"/><glyph d="M0 0h1024v205h-819v205h409v204h-409v205h819v205h-1024v-1024z" unicode="E"/><glyph d="M0 0h205v410h409v204h-409v205h819v205h-1024v-1024z" unicode="F"/><glyph d="M0 0h1024v614h-614v-204h409v-205h-614v614h819v205h-1024v-1024z" unicode="G"/><glyph d="M0 0h205v410h614v-410h205v1024h-205v-410h-614v410h-205v-1024z" unicode="H"/><glyph d="M0 0h1024v205h-410v614h410v205h-1024v-205h410v-614h-410v-205z" unicode="I"/><glyph d="M0 0h1024v1024h-205v-819h-614v205h-205v-410z" unicode="J"/><glyph d="M0 0h205v410h409v-205h205v-205h205v205h-205v205h-205v204h-409v410h-205v-1024zM614 614h205v205h-205v-205zM819 819h205v205h-205v-205z" unicode="K"/><glyph d="M0 0h1024v205h-819v819h-205v-1024z" unicode="L"/><glyph d="M0 0h205v614h205v-204h204v204h-204v205h-205v205h-205v-1024zM614 614h205v-614h205v1024h-205v-205h-205v-205z" unicode="M"/><glyph d="M0 0h205v614h205v-204h204v-205h205v-205h205v1024h-205v-614h-205v204h-204v205h-205v205h-205v-1024z" unicode="N"/><glyph d="M0 0h1024v1024h-1024v-1024zM205 205v614h614v-614h-614z" unicode="O"/><glyph d="M0 0h205v410h819v409h-205v205h-819v-1024zM205 614v205h614v-205h-614z" unicode="P"/><glyph d="M0 0h410v-205h204v205h410v1024h-1024v-1024zM205 205v614h614v-614h-205v205h-204v-205h-205z" unicode="Q"/><glyph d="M0 0h205v410h409v-205h205v-205h205v205h-205v205h205v409h-205v205h-819v-1024zM205 614v205h614v-205h-614z" unicode="R"/><glyph d="M0 0h1024v614h-819v205h819v205h-1024v-614h819v-205h-819v-205z" unicode="S"/><glyph d="M0 819h410v-819h204v819h410v205h-1024v-205z" unicode="T"/><glyph d="M0 0h1024v1024h-205v-819h-614v819h-205v-1024z" unicode="U"/><glyph d="M0 410h205v-205h205v-205h204v205h-204v205h-205v614h-205v-614zM614 205h205v205h-205v-205zM819 410h205v614h-205v-614z" unicode="V"/><glyph d="M0 0h205v205h205v205h-205v614h-205v-1024zM410 410h204v-205h205v-205h205v1024h-205v-614h-205v204h-204v-204z" unicode="W"/><glyph d="M0 0h205v205h-205v-205zM0 819h205v-205h205v-204h204v-205h205v-205h205v205h-205v205h-205v204h-204v205h-205v205h-205v-205zM205 205h205v205h-205v-205zM614 614h205v205h-205v-205zM819 819h205v205h-205v-205z" unicode="X"/><glyph d="M0 410h410v-410h204v410h410v614h-205v-410h-614v410h-205v-614z" unicode="Y"/><glyph d="M0 0h1024v205h-614v205h-205v-205h-205v-205zM0 819h614v-205h205v205h205v205h-1024v-205zM410 410h204v204h-204v-204z" unicode="Z"/><glyph d="M0 0h410v205h-205v614h205v205h-410v-1024z" horiz-adv-x="614" unicode="["/><glyph d="M0 819h205v-205h205v-204h204v-205h205v-205h205v205h-205v205h-205v204h-204v205h-205v205h-205v-205z" unicode="\"/><glyph d="M0 0h410v1024h-410v-205h205v-614h-205v-205z" horiz-adv-x="614" unicode="]"/><glyph d="M0 614h205v205h-205v-205zM205 819h205v-205h204v205h-204v205h-205v-205z" horiz-adv-x="819" unicode="^"/><glyph d="M0 -203h1024v-205h-1024v205z" unicode="_"/><glyph d="M0 614h205v410h-205v-410z" horiz-adv-x="409" unicode="`"/><glyph d="M0 0h205v410h614v-410h205v1024h-1024v-1024zM205 614v205h614v-205h-614z" unicode="a"/><glyph d="M0 0h1024v410h-205v204h205v410h-1024v-1024zM205 205v205h614v-205h-614zM205 614v205h614v-205h-614z" unicode="b"/><glyph d="M0 0h1024v205h-819v614h819v205h-1024v-1024z" unicode="c"/><glyph d="M0 0h819v205h-614v614h614v-614h205v614h-205v205h-819v-1024z" unicode="d"/><glyph d="M0 0h1024v205h-819v205h409v204h-409v205h819v205h-1024v-1024z" unicode="e"/><glyph d="M0 0h205v410h409v204h-409v205h819v205h-1024v-1024z" unicode="f"/><glyph d="M0 0h1024v614h-614v-204h409v-205h-614v614h819v205h-1024v-1024z" unicode="g"/><glyph d="M0 0h205v410h614v-410h205v1024h-205v-410h-614v410h-205v-1024z" unicode="h"/><glyph d="M0 0h205v1024h-205v-1024z" horiz-adv-x="409" unicode="i"/><glyph d="M0 0h1024v1024h-205v-819h-614v205h-205v-410z" unicode="j"/><glyph d="M0 0h205v410h409v-205h205v-205h205v205h-205v205h-205v204h-409v410h-205v-1024zM614 614h205v205h-205v-205zM819 819h205v205h-205v-205z" unicode="k"/><glyph d="M0 0h1024v205h-819v819h-205v-1024z" unicode="l"/><glyph d="M0 0h205v819h205v-819h204v819h205v-819h205v1024h-1024v-1024z" unicode="m"/><glyph d="M0 0h205v819h614v-819h205v1024h-1024v-1024z" unicode="n"/><glyph d="M0 0h1024v1024h-1024v-1024zM205 205v614h614v-614h-614z" unicode="o"/><glyph d="M0 0h205v410h819v614h-1024v-1024zM205 614v205h614v-205h-614z" unicode="p"/><glyph d="M0 0h410v-205h204v205h410v1024h-1024v-1024zM205 205v614h614v-614h-205v205h-204v-205h-205z" unicode="q"/><glyph d="M0 0h205v410h409v-205h205v-205h205v205h-205v205h205v614h-1024v-1024zM205 614v205h614v-205h-614z" unicode="r"/><glyph d="M0 0h1024v614h-819v205h819v205h-1024v-614h819v-205h-819v-205z" unicode="s"/><glyph d="M0 819h410v-819h204v819h410v205h-1024v-205z" unicode="t"/><glyph d="M0 0h1024v1024h-205v-819h-614v819h-205v-1024z" unicode="u"/><glyph d="M0 410h205v-205h205v-205h204v205h-204v205h-205v614h-205v-614zM614 205h205v205h-205v-205zM819 410h205v614h-205v-614z" unicode="v"/><glyph d="M0 0h1024v1024h-205v-819h-205v819h-204v-819h-205v819h-205v-1024z" unicode="w"/><glyph d="M0 0h205v205h-205v-205zM0 819h205v-205h205v-204h204v-205h205v-205h205v205h-205v205h-205v204h-204v205h-205v205h-205v-205zM205 205h205v205h-205v-205zM614 614h205v205h-205v-205zM819 819h205v205h-205v-205z" unicode="x"/><glyph d="M0 819h205v-205h205v-614h204v614h-204v205h-205v205h-205v-205zM614 614h205v205h-205v-205zM819 819h205v205h-205v-205z" unicode="y"/><glyph d="M0 0h1024v205h-614v205h-205v-205h-205v-205zM0 819h614v-205h205v205h205v205h-1024v-205zM410 410h204v204h-204v-204z" unicode="z"/><glyph d="M0 410h205v-410h409v205h-204v614h204v205h-409v-410h-205v-204z" horiz-adv-x="819" unicode="{"/><glyph d="M0 -410h205v1844h-205v-1844z" horiz-adv-x="409" unicode="|"/><glyph d="M0 0h410v410h204v204h-204v410h-410v-205h205v-614h-205v-205z" horiz-adv-x="819" unicode="}"/><glyph d="M0 410h205v204h205v-409h614v409h-205v-204h-205v409h-614v-409z" unicode="~"/><glyph d="M0 0h1024v1024h-1024v-1024zM205 205v614h614v-614h-614zM410 410h204v204h-204v-204z"/><glyph d="M0 0h1024v1024h-1024v-1024zM205 205v614h614v-614h-614zM410 410h204v204h-204v-204z"/><glyph d="M0 0h1024v1024h-1024v-1024zM205 205v614h614v-614h-614zM410 410h204v204h-204v-204z"/><glyph d="M0 0h1024v1024h-1024v-1024zM205 205v614h614v-614h-614zM410 410h204v204h-204v-204z"/><glyph d="M0 0h1024v1024h-1024v-1024zM205 205v614h614v-614h-614zM410 410h204v204h-204v-204z"/><glyph d="M0 0h1024v1024h-1024v-1024zM205 205v614h614v-614h-614zM410 410h204v204h-204v-204z"/><glyph d="M0 0h1024v1024h-1024v-1024zM205 205v614h614v-614h-614zM410 410h204v204h-204v-204z"/><glyph d="M0 0h1024v1024h-1024v-1024zM205 205v614h614v-614h-614zM410 410h204v204h-204v-204z"/><glyph d="M0 0h1024v1024h-1024v-1024zM205 205v614h614v-614h-614zM410 410h204v204h-204v-204z"/><glyph/><glyph d="M0 0h205v614h-205v-614zM0 819h205v205h-205v-205z" horiz-adv-x="409" unicode="¡"/><glyph d="M0 0h410v-205h204v205h410v205h-819v614h819v205h-410v205h-204v-205h-410v-1024z" unicode="¢"/><glyph d="M0 0h1024v205h-614v205h204v204h-204v205h409v-205h205v205h-205v205h-819v-205h205v-205h-205v-204h205v-205h-205v-205z" unicode="£"/><glyph d="M0 0h205v205h-205v-205zM0 819h205v205h-205v-205zM205 205h614v-205h205v205h-205v614h-614v-614zM410 410v204h204v-204h-204zM819 819h205v205h-205v-205z" unicode="¤"/><glyph d="M0 614h205v-204h205v-205h-205v-205h614v205h-205v205h205v204h205v410h-205v-205h-614v205h-205v-410z" unicode="¥"/><glyph d="M0 -410h205v820h-205v-820zM0 614h205v820h-205v-820z" horiz-adv-x="409" unicode="¦"/><glyph d="M0 0v-205h1024v1024h-819v205h819v205h-1024v-1024h819v-205h-819zM205 410v204h614v-204h-614z" unicode="§"/><glyph d="M0 1024v410h410v-410h-410zM614 1024v410h410v-410h-410z" unicode="¨"/><glyph d="M0 0h205v-205h614v205h-614v205h614v-205h205v1024h-205v205h-614v-205h614v-205h-614v205h-205v-1024zM410 410v204h409v-204h-409z" unicode="©"/><glyph d="M0 614h410v820h-410v-205h205v-205h-205v-410z" horiz-adv-x="614" unicode="ª"/><glyph d="M0 410h205v-205h205v205h-205v204h-205v-204zM205 614h205v205h-205v-205zM614 410h205v-205h205v205h-205v204h-205v-204zM819 614h205v205h-205v-205z" unicode="«"/><glyph d="M0 614v205h1024v-409h-205v204h-819z" unicode="¬"/><glyph d="M0 410v204h1024v-204h-1024z" unicode="­"/><glyph d="M0 0h205v-205h614v205h-614v205h205v205h204v-205h205v-205h205v1024h-205v205h-614v-205h-205v-1024zM205 819v205h614v-205h-614zM614 410v204h205v-204h-205z" unicode="®"/><glyph d="M0 1229v205h1024v-205h-1024z" unicode="¯"/><glyph d="M0 819h614v615h-614v-615zM205 1024v205h205v-205h-205z" horiz-adv-x="819" unicode="°"/><glyph d="M0 0h1024v205h-1024v-205zM0 614h410v-204h204v204h410v205h-410v205h-204v-205h-410v-205z" unicode="±"/><glyph d="M0 614v410h410v-205h204v-205h-614zM0 1229v205h614v-410h-204v205h-410z" horiz-adv-x="819" unicode="²"/><glyph d="M0 614h614v820h-614v-205h205v-205h205v-205h-410v-205z" horiz-adv-x="819" unicode="³"/><glyph d="M0 1024h205v205h-205v-205zM205 1229h205v205h-205v-205z" horiz-adv-x="614" unicode="´"/><glyph d="M0 0h1024v1024h-205v-819h-614v819h-205v-1024zM0 0v-410h205v410h-205z" unicode="µ"/><glyph d="M0 410h410v-410h204v819h205v-819h205v1024h-1024v-614z" unicode="¶"/><glyph d="M0 205v614h614v-614h-614z" horiz-adv-x="819" unicode="·"/><glyph d="M0 -205v-205h410v410h-205v-205h-205z" horiz-adv-x="614" unicode="¸"/><glyph d="M0 1024h205v-410h205v820h-205v-205h-205v-205z" horiz-adv-x="614" unicode="¹"/><glyph d="M0 614h614v820h-614v-820zM205 819v410h205v-410h-205z" horiz-adv-x="819" unicode="º"/><glyph d="M0 205h205v205h-205v-205zM0 614h205v-204h205v204h-205v205h-205v-205zM614 205h205v205h-205v-205zM614 614h205v-204h205v204h-205v205h-205v-205z" unicode="»"/><glyph d="M0 0h205v205h-205v-205zM0 410h205v-205h205v-205h409v-205h205v819h-205v205h-205v-205h205v-409h-205v409h-204v-204h-205v819h-205v-819zM819 819h205v205h-205v-205z" unicode="¼"/><glyph d="M0 0h205v205h-205v-205zM0 410h205v-205h205v-410h614v205h-205v205h-409v205h-205v819h-205v-819zM410 410h409v-205h205v409h-205v205h-205v-205h-204v-204zM819 819h205v205h-205v-205z" unicode="½"/><glyph d="M0 0h205v205h-205v-205zM0 410h205v-205h205v-205h409v-205h205v819h-205v205h-205v410h-614v-205h205v-205h205v-205h-410v-204zM614 205v409h205v-409h-205zM819 819h205v205h-205v-205z" unicode="¾"/><glyph d="M0 0h1024v205h-819v205h409v204h-614v-614zM410 819h204v205h-204v-205z" unicode="¿"/><glyph d="M0 0h205v410h614v-410h205v1024h-410v205h-204v205h-205v-205h205v-205h-410v-1024zM205 614v205h614v-205h-614z" unicode="À"/><glyph d="M0 0h205v410h614v-410h205v1024h-410v205h-204v-205h-410v-1024zM205 614v205h614v-205h-614zM614 1229h205v205h-205v-205z" unicode="Á"/><glyph d="M0 0h205v410h614v-410h205v1024h-205v205h-205v205h-204v-205h-205v-205h-205v-1024zM205 614v205h614v-205h-614zM410 1024v205h204v-205h-204z" unicode="Â"/><glyph d="M0 0h205v410h614v-410h205v1434h-205v-205h-205v205h-614v-1434zM205 614v205h614v-205h-614zM205 1024v205h205v-205h-205z" unicode="Ã"/><glyph d="M0 0h205v410h614v-410h205v1434h-410v-410h-204v410h-410v-1434zM205 614v205h614v-205h-614z" unicode="Ä"/><glyph d="M0 0h205v410h614v-410h205v1024h-205v410h-614v-410h-205v-1024zM205 614v205h614v-205h-614zM410 1024v205h204v-205h-204z" unicode="Å"/><glyph d="M0 0h205v410h205v-410h614v205h-410v205h410v204h-410v205h410v205h-1024v-1024zM205 614v205h205v-205h-205z" unicode="Æ"/><glyph d="M0 0h410v-205h-205v-205h409v410h410v205h-819v614h819v205h-1024v-1024z" unicode="Ç"/><glyph d="M0 0h1024v205h-819v205h409v204h-409v205h819v205h-410v205h-204v205h-205v-205h205v-205h-410v-1024z" unicode="È"/><glyph d="M0 0h1024v205h-819v205h409v204h-409v205h819v205h-410v205h-204v-205h-410v-1024zM614 1229h205v205h-205v-205z" unicode="É"/><glyph d="M0 0h1024v205h-819v205h409v204h-409v205h819v205h-205v205h-205v205h-204v-205h-205v-205h-205v-1024zM410 1024v205h204v-205h-204z" unicode="Ê"/><glyph d="M0 0h1024v205h-819v205h409v204h-409v205h819v615h-410v-410h-204v410h-410v-1434z" unicode="Ë"/><glyph d="M0 0h1024v205h-410v614h410v205h-410v205h-204v205h-205v-205h205v-205h-410v-205h410v-614h-410v-205z" unicode="Ì"/><glyph d="M0 0h1024v205h-410v614h410v205h-410v205h-204v-205h-410v-205h410v-614h-410v-205zM614 1229h205v205h-205v-205z" unicode="Í"/><glyph d="M0 0h1024v205h-410v614h410v205h-205v205h-205v205h-204v-205h-205v-205h-205v-205h410v-614h-410v-205zM410 1024v205h204v-205h-204z" unicode="Î"/><glyph d="M0 0h1024v205h-410v614h410v615h-410v-410h-204v410h-410v-615h410v-614h-410v-205z" unicode="Ï"/><glyph d="M0 0h819v205h-614v205h205v204h-205v205h614v-614h205v614h-205v205h-819v-1024z" unicode="Ð"/><glyph d="M0 0h205v614h205v-204h204v-205h205v-205h205v1434h-205v-205h-205v205h-614v-1434zM205 819v410h205v-205h409v-614h-205v204h-204v205h-205z" unicode="Ñ"/><glyph d="M0 0h1024v1024h-410v205h-204v205h-205v-205h205v-205h-410v-1024zM205 205v614h614v-614h-614z" unicode="Ò"/><glyph d="M0 0h1024v1024h-410v205h-204v-205h-410v-1024zM205 205v614h614v-614h-614zM614 1229h205v205h-205v-205z" unicode="Ó"/><glyph d="M0 0h1024v1024h-205v205h-205v205h-204v-205h-205v-205h-205v-1024zM205 205v614h614v-614h-614zM410 1024v205h204v-205h-204z" unicode="Ô"/><glyph d="M0 0h1024v1434h-205v-205h-205v205h-614v-1434zM205 205v614h614v-614h-614zM205 1024v205h205v-205h-205z" unicode="Õ"/><glyph d="M0 0h1024v1434h-410v-410h-204v410h-410v-1434zM205 205v614h614v-614h-614z" unicode="Ö"/><glyph d="M0 205h205v205h-205v-205zM0 614h205v-204h205v-205h204v205h-204v204h-205v205h-205v-205zM410 614h204v205h-204v-205z" horiz-adv-x="819" unicode="×"/><glyph d="M0 0h1024v1024h-1024v-1024zM205 410v409h409v-205h205v-409h-409v205h-205zM410 410h204v204h-204v-204z" unicode="Ø"/><glyph d="M0 0h1024v1024h-205v-819h-614v819h-205v-1024zM205 1229h205v-205h204v205h-204v205h-205v-205z" unicode="Ù"/><glyph d="M0 0h1024v1024h-205v-819h-614v819h-205v-1024zM410 1024h204v205h-204v-205zM614 1229h205v205h-205v-205z" unicode="Ú"/><glyph d="M0 0h1024v1024h-205v205h-205v205h-204v-205h204v-205h205v-819h-614v819h-205v-1024zM205 1024h205v205h-205v-205z" unicode="Û"/><glyph d="M0 0h1024v1434h-410v-410h205v-819h-614v819h205v410h-410v-1434z" unicode="Ü"/><glyph d="M0 410h410v-410h204v410h410v614h-205v-410h-614v410h-205v-614zM410 1024h204v205h-204v-205zM614 1229h205v205h-205v-205z" unicode="Ý"/><glyph d="M0 -205h205v205h614v205h-614v614h614v-614h205v614h-205v205h-614v205h-205v-1434z" unicode="Þ"/><glyph d="M0 0h205v410h614v-205h-409v-205h614v410h-205v204h-614v205h614v-205h205v410h-1024v-1024z" unicode="ß"/><glyph d="M0 0h205v410h614v-410h205v1024h-410v205h-204v205h-205v-205h205v-205h-410v-1024zM205 614v205h614v-205h-614z" unicode="à"/><glyph d="M0 0h205v410h614v-410h205v1024h-410v205h-204v-205h-410v-1024zM205 614v205h614v-205h-614zM614 1229h205v205h-205v-205z" unicode="á"/><glyph d="M0 0h205v410h614v-410h205v1024h-205v205h-205v205h-204v-205h-205v-205h-205v-1024zM205 614v205h614v-205h-614zM410 1024v205h204v-205h-204z" unicode="â"/><glyph d="M0 0h205v410h614v-410h205v1434h-205v-205h-205v205h-614v-1434zM205 614v205h614v-205h-614zM205 1024v205h205v-205h-205z" unicode="ã"/><glyph d="M0 0h205v410h614v-410h205v1434h-410v-410h-204v410h-410v-1434zM205 614v205h614v-205h-614z" unicode="ä"/><glyph d="M0 0h205v410h614v-410h205v1024h-205v410h-614v-410h-205v-1024zM205 614v205h614v-205h-614zM410 1024v205h204v-205h-204z" unicode="å"/><glyph d="M0 0h205v410h205v-410h614v205h-410v205h410v204h-410v205h410v205h-1024v-1024zM205 614v205h205v-205h-205z" unicode="æ"/><glyph d="M0 0h410v-205h-205v-205h409v410h410v205h-819v614h819v205h-1024v-1024z" unicode="ç"/><glyph d="M0 0h1024v205h-819v205h409v204h-409v205h819v205h-410v205h-204v205h-205v-205h205v-205h-410v-1024z" unicode="è"/><glyph d="M0 0h1024v205h-819v205h409v204h-409v205h819v205h-410v205h-204v-205h-410v-1024zM614 1229h205v205h-205v-205z" unicode="é"/><glyph d="M0 0h1024v205h-819v205h409v204h-409v205h819v205h-205v205h-205v205h-204v-205h-205v-205h-205v-1024zM410 1024v205h204v-205h-204z" unicode="ê"/><glyph d="M0 0h1024v205h-819v205h409v204h-409v205h819v615h-410v-410h-204v410h-410v-1434z" unicode="ë"/><glyph d="M0 0h205v1024h-205v-1024zM0 1229h205v-205h205v205h-205v205h-205v-205z" horiz-adv-x="614" unicode="ì"/><glyph d="M0 1024h205v-1024h205v1024h-205v205h-205v-205zM205 1229h205v205h-205v-205z" horiz-adv-x="614" unicode="í"/><glyph d="M0 1024h205v-1024h205v1024h-205v205h-205v-205zM205 1229h205v-205h204v205h-204v205h-205v-205z" horiz-adv-x="819" unicode="î"/><glyph d="M0 1024h205v-1024h205v1024h-205v410h-205v-410zM410 1024h204v410h-204v-410z" horiz-adv-x="819" unicode="ï"/><glyph d="M0 0h819v205h-614v205h205v204h-205v205h614v-614h205v614h-205v205h-819v-1024z" unicode="ð"/><glyph d="M0 0h205v819h614v-819h205v1434h-205v-205h-205v205h-614v-1434zM205 1024v205h205v-205h-205z" unicode="ñ"/><glyph d="M0 0h1024v1024h-410v205h-204v205h-205v-205h205v-205h-410v-1024zM205 205v614h614v-614h-614z" unicode="ò"/><glyph d="M0 0h1024v1024h-410v205h-204v-205h-410v-1024zM205 205v614h614v-614h-614zM614 1229h205v205h-205v-205z" unicode="ó"/><glyph d="M0 0h1024v1024h-205v205h-205v205h-204v-205h-205v-205h-205v-1024zM205 205v614h614v-614h-614zM410 1024v205h204v-205h-204z" unicode="ô"/><glyph d="M0 0h1024v1434h-205v-205h-205v205h-614v-1434zM205 205v614h614v-614h-614zM205 1024v205h205v-205h-205z" unicode="õ"/><glyph d="M0 0h1024v1434h-410v-410h-204v410h-410v-1434zM205 205v614h614v-614h-614z" unicode="ö"/><glyph d="M0 410h614v204h-614v-204zM205 0h205v205h-205v-205zM205 819h205v205h-205v-205z" horiz-adv-x="819" unicode="÷"/><glyph d="M0 0h1024v1024h-1024v-1024zM205 410v409h409v-205h205v-409h-409v205h-205zM410 410h204v204h-204v-204z" unicode="ø"/><glyph d="M0 0h1024v1024h-205v-819h-614v819h-205v-1024zM205 1229h205v-205h204v205h-204v205h-205v-205z" unicode="ù"/><glyph d="M0 0h1024v1024h-205v-819h-614v819h-205v-1024zM410 1024h204v205h-204v-205zM614 1229h205v205h-205v-205z" unicode="ú"/><glyph d="M0 0h1024v1024h-205v205h-205v205h-204v-205h204v-205h205v-819h-614v819h-205v-1024zM205 1024h205v205h-205v-205z" unicode="û"/><glyph d="M0 0h1024v1434h-410v-410h205v-819h-614v819h205v410h-410v-1434z" unicode="ü"/><glyph d="M0 819h205v-205h205v-614h204v614h-204v205h-205v205h-205v-205zM410 1024h204v205h-204v-205zM614 614h205v205h-205v-205zM614 1229h205v205h-205v-205zM819 819h205v205h-205v-205z" unicode="ý"/><glyph d="M0 -410h205v410h614v205h-614v614h614v-614h205v614h-205v205h-614v410h-205v-1844z" unicode="þ"/><glyph d="M0 819h205v-205h205v-614h204v614h-204v205h-205v205h205v410h-410v-615zM614 614h205v205h-205v-205zM614 1024h205v-205h205v615h-410v-410z" unicode="ÿ"/><glyph d="M0 0h1024v205h-410v205h410v204h-410v205h410v205h-1024v-1024zM205 205v614h205v-614h-205z" unicode="Œ"/><glyph d="M0 0h1024v205h-410v205h410v204h-410v205h410v205h-1024v-1024zM205 205v614h205v-614h-205z" unicode="œ"/><glyph d="M0 410h410v-410h204v410h410v1024h-410v-410h205v-410h-614v410h205v410h-410v-1024z" unicode="Ÿ"/><glyph d="M0 1024h205v205h-205v-205zM205 1229h205v-205h204v205h-204v205h-205v-205z" horiz-adv-x="819" unicode="ˆ"/><glyph d="M0 1024h205v205h205v-205h614v410h-205v-205h-205v205h-614v-410z" unicode="˜"/><glyph horiz-adv-x="717"/><glyph horiz-adv-x="1434"/><glyph horiz-adv-x="717"/><glyph horiz-adv-x="1434"/><glyph horiz-adv-x="478"/><glyph horiz-adv-x="358"/><glyph horiz-adv-x="239"/><glyph horiz-adv-x="239"/><glyph horiz-adv-x="179"/><glyph horiz-adv-x="286"/><glyph horiz-adv-x="79"/><glyph d="M0 410v204h614v-204h-614z" horiz-adv-x="819" unicode="‐"/><glyph d="M0 410v204h614v-204h-614z" horiz-adv-x="819" unicode="‑"/><glyph d="M0 410v204h614v-204h-614z" horiz-adv-x="819" unicode="‒"/><glyph d="M0 410v204h410v-204h-410z" horiz-adv-x="614" unicode="–"/><glyph d="M0 410v204h819v-204h-819z" horiz-adv-x="1024" unicode="—"/><glyph d="M0 1024h205v410h-205v-410z" horiz-adv-x="409" unicode="‘"/><glyph d="M0 1024h205v410h-205v-410z" horiz-adv-x="409" unicode="’"/><glyph d="M0 -205h205v410h-205v-410z" horiz-adv-x="409" unicode="‚"/><glyph d="M0 1024h205v410h-205v-410zM410 1024h204v410h-204v-410z" horiz-adv-x="819" unicode="“"/><glyph d="M0 1024h205v410h-205v-410zM410 1024h204v410h-204v-410z" horiz-adv-x="819" unicode="”"/><glyph d="M0 -205h205v410h-205v-410zM410 -205h204v410h-204v-410z" horiz-adv-x="819" unicode="„"/><glyph d="M0 410h205v-205h205v-205h204v205h205v205h205v204h-205v205h-205v205h-204v-205h-205v-205h-205v-204z" unicode="•"/><glyph d="M0 0h205v205h-205v-205zM410 0h204v205h-204v-205zM819 0h205v205h-205v-205z" unicode="…"/><glyph horiz-adv-x="286"/><glyph d="M0 410h205v-205h205v205h-205v204h-205v-204zM205 614h205v205h-205v-205z" horiz-adv-x="614" unicode="‹"/><glyph d="M0 205h205v205h-205v-205zM0 614h205v-204h205v204h-205v205h-205v-205z" horiz-adv-x="614" unicode="›"/><glyph horiz-adv-x="358"/><glyph d="M0 410v-820h205v410h205v-205h204v205h-204v205h-205v205h-205zM0 1229h410v-615h204v615h410v205h-1024v-205zM614 0h205v-410h205v820h-205v-205h-205v-205z" unicode="™"/><glyph d="M0 0v1024h1024v-1024h-1024z" horiz-adv-x="1024" unicode="◼"/></font>
</defs>
</svg>
