<?xml version="1.0" encoding="utf-8"?>
<!-- Generator: Adobe Illustrator 15.0.0, SVG Export Plug-In . SVG Version: 6.00 Build 0)  -->
<!DOCTYPE svg PUBLIC "-//W3C//DTD SVG 1.1//EN" "http://www.w3.org/Graphics/SVG/1.1/DTD/svg11.dtd">
<svg version="1.1" id="Calque_1" xmlns="http://www.w3.org/2000/svg" xmlns:xlink="http://www.w3.org/1999/xlink" x="0px" y="0px"
	 width="197.942px" height="69.858px" viewBox="-0.004 -0.004 197.942 69.858"
	 enable-background="new -0.004 -0.004 197.942 69.858" xml:space="preserve">
<rect x="1072.575" y="-4953.242" fill="#F5F5F5" width="1319.478" height="147.015"/>
<g>
	<path fill="none" d="M123.659,21.535c0,0,0.177-0.312,0.468-0.822c-4.205,0.95-7.633,1.881-10.122,2.611
		c0.877,2.9-3.372,5.221-3.372,5.221s0.984,9.188,1.188,15.145c1.948-2.319,3.498-4.729,4.363-6.14L123.659,21.535z"/>
	<path fill="none" d="M169.398,9.641c-0.26-1.186-3.629,2.217-3.629,2.217c-0.159,0.156-0.479,0.478-0.919,0.931
		c1.091,0.051,2.124,0.106,3.115,0.168C168.858,11.485,169.517,10.172,169.398,9.641z"/>
	<path fill="none" d="M131.155,19.274c-0.432,0.779-0.742,1.342-0.742,1.342c-7.468,13.772-9.397,19.862-9.819,22.441
		c-0.007,0.053-0.013,0.101-0.022,0.151c-0.028,0.2-0.056,0.387-0.065,0.545c-0.005,0.047-0.009,0.097-0.009,0.146
		c-0.042,0.73,0.085,0.951,0.085,0.951l0.006-0.008c0.428,1.626,2.277,1.764,3.78,0.818c0.994-0.628,2.548-1.636,4.082-3.308
		c0.835-2.104,2.019-4.688,3.683-7.916c-1.751,0.738-3.304,1.488-4.663,2.201c-0.004,0.007-0.007,0.007-0.012,0.007
		c-1.443,0.733-1.596-2.82-0.985-4.135c0.601-1.286,2.501-2.165,2.572-2.197c2.275-0.84,4.426-1.439,6.321-1.865
		c1.769-3.141,3.875-6.738,6.366-10.828C137.949,18.102,134.407,18.67,131.155,19.274z"/>
	<path fill="none" d="M156.217,16.361c-2.742,0.125-5.409,0.314-7.992,0.552c-0.15,0.192-0.302,0.389-0.459,0.6
		c-1.604,2.156-3.591,5.314-5.893,9.941c0.66-0.047,1.033-0.055,1.033-0.055l-0.002,0.006c1.919-0.163,3.818-0.257,5.562-0.244
		c1.181-2.011,2.466-3.916,3.759-5.66C152.223,21.5,153.822,19.305,156.217,16.361z"/>
	<polygon fill="none" points="33.204,40.394 33.206,40.393 33.204,40.391 	"/>
	<path fill="none" d="M29.771,43.924c0.032-0.039,0.062-0.073,0.092-0.109c0-0.003,0.001-0.003,0.001-0.003
		C29.835,43.851,29.802,43.885,29.771,43.924z"/>
	<path fill="none" d="M146.914,29.959c-1.634,0.207-5.535,1.433-7.083,1.842c-0.951,2.124-1.949,4.5-2.982,7.129
		c-0.029,0.085-0.438,1.406-0.383,2.551c0.056,1.156,0.576,2.144,2.406,1.558c0.013-0.002,0.023-0.006,0.037-0.011
		c0.483-0.157,0.994-0.415,1.549-0.805c0,0,1.096-0.695,2.851-1.987c0.064-0.722,0.208-1.496,0.448-2.353
		c0.747-2.7,1.869-5.369,3.177-7.922c0,0,0,0-0.001,0c0.001,0,0.001-0.004,0.001-0.004C146.924,29.955,146.92,29.957,146.914,29.959
		z"/>
	<path fill="none" d="M151.729,52.623c-0.799,1.957-0.202,2.567,0.763,2.451c0.616-0.078,1.375-0.441,2.015-0.943
		c2.361-2.043,5.292-5.096,8.472-8.861c-3.303,0.796-5.793,1.979-7.596,3.251C153.377,49.94,152.212,51.452,151.729,52.623z"/>
	<path fill="none" d="M195.282,2.682c-1.017-0.438-2.116-0.342-3.037,0.266c-0.458,0.305-0.81,0.714-1.042,1.227
		c-0.231,0.507-0.327,1.044-0.279,1.582c0.047,0.534,0.229,1.036,0.539,1.489c0.312,0.459,0.728,0.808,1.236,1.035
		c0.495,0.225,1.034,0.318,1.563,0.271c0.528-0.049,1.045-0.232,1.493-0.537c0.458-0.309,0.81-0.723,1.039-1.233
		c0.227-0.505,0.322-1.029,0.277-1.56c-0.047-0.536-0.232-1.043-0.55-1.508C196.206,3.248,195.788,2.9,195.282,2.682z
		 M194.201,7.506h-0.006c-1.095,0.096-2.063-0.719-2.158-1.809c-0.095-1.095,0.717-2.062,1.812-2.155
		c0.854-0.075,1.675,0.429,2.005,1.212l-0.896,0.077c-0.241-0.325-0.633-0.506-1.037-0.473c-0.224,0.021-0.436,0.103-0.604,0.236
		l-0.033,0.021c-0.025,0.021-0.049,0.048-0.073,0.069l-0.04,0.039c-0.019,0.021-0.034,0.031-0.046,0.051
		c-0.013,0.015-0.023,0.031-0.051,0.064l-0.02,0.033c-0.022,0.028-0.041,0.057-0.068,0.104c-0.07,0.14-0.113,0.275-0.128,0.41
		c-0.008,0.08-0.012,0.16-0.003,0.24c0.055,0.641,0.624,1.116,1.266,1.061c0.438-0.037,0.81-0.313,0.978-0.723l0.877-0.076
		C195.813,6.758,195.088,7.428,194.201,7.506z"/>
	<path fill="none" d="M163.939,18.814c0,0,0.859-1.141,1.896-2.624c-1.396-0.014-2.779-0.013-4.149,0.009
		c-4.148,4.677-10.022,12.147-11.075,18.021C154.844,30.35,159.739,25.162,163.939,18.814z"/>
	<polygon fill="#302E35" points="33.206,40.393 33.206,40.393 33.204,40.394 	"/>
	<path fill="#FFFFFF" d="M197.924,5.144c-0.059-0.687-0.297-1.331-0.701-1.923c-0.407-0.592-0.939-1.033-1.585-1.319
		c-0.633-0.273-1.317-0.394-1.984-0.333c-0.667,0.058-1.322,0.291-1.896,0.673c-0.591,0.394-1.04,0.924-1.336,1.573
		c-0.295,0.654-0.416,1.33-0.354,2.015c0.058,0.678,0.29,1.322,0.688,1.909c0.399,0.588,0.932,1.033,1.58,1.322
		c1.296,0.58,2.73,0.456,3.913-0.342c0.589-0.397,1.035-0.935,1.325-1.577C197.866,6.494,197.983,5.824,197.924,5.144z
		 M196.794,6.78c-0.229,0.512-0.581,0.926-1.039,1.233c-0.448,0.305-0.965,0.488-1.493,0.537c-0.53,0.048-1.068-0.047-1.563-0.271
		c-0.509-0.229-0.925-0.576-1.236-1.035c-0.31-0.453-0.492-0.955-0.539-1.489c-0.047-0.538,0.048-1.075,0.279-1.582
		c0.233-0.513,0.584-0.922,1.042-1.227c0.921-0.606,2.021-0.704,3.037-0.266c0.506,0.219,0.924,0.566,1.24,1.031
		s0.502,0.972,0.55,1.508C197.116,5.75,197.021,6.275,196.794,6.78z"/>
	<path fill="#FFFFFF" d="M194.121,6.689c-0.643,0.057-1.211-0.42-1.266-1.061c-0.008-0.08-0.005-0.16,0.003-0.24
		c0.015-0.135,0.058-0.271,0.128-0.41c0.027-0.049,0.046-0.076,0.068-0.104l0.02-0.033c0.026-0.033,0.038-0.051,0.051-0.064
		c0.013-0.02,0.028-0.03,0.046-0.051l0.04-0.039c0.024-0.021,0.048-0.049,0.073-0.069l0.033-0.021
		c0.168-0.135,0.38-0.217,0.604-0.236c0.404-0.033,0.796,0.146,1.037,0.473l0.896-0.077c-0.33-0.783-1.15-1.287-2.005-1.212
		c-1.096,0.095-1.907,1.062-1.812,2.155c0.095,1.09,1.063,1.903,2.158,1.809h0.006c0.887-0.078,1.612-0.748,1.773-1.615
		l-0.877,0.076C194.929,6.375,194.557,6.652,194.121,6.689z"/>
	<path fill="#FFFFFF" d="M187.826,14.156c-0.45-0.312-1.151-0.559-1.841,0.46c-11.388,16.047-21.898,25.079-21.233,21.817
		c0.659-3.272,6.74-11.214,6.74-11.214l1.169-1.536c1.279-3.774-3.178-1.945-9.152,5.644c-0.805,1.019-1.557,2.263-2.176,3.58
		c-3.982,4.424-9.077,8.894-10.517,5.278c7.506-5.895,15.087-14.462,20.062-21.86c3.337,0.141,6.735,0.389,10.179,0.771
		c0,0,0.504-2.208-1.736-2.963c-0.529-0.178-2.875-0.51-6.523-0.826c3.59-5.988,5.005-10.732,2.548-11.811
		c-3.685-1.618-10.629,5.036-15.95,11.1c-7.234-0.176-15.852-0.07-24.879,0.659c0.339-0.644,0.778-1.974-0.277-3.479
		c-1.481-2.118-3.417,0.056-3.417,0.056c-0.544,0.647-1.563,2.235-2.664,4.039c-5.275,0.598-10.605,1.422-15.811,2.551
		c0,0-3.086,0.441-3.645,3.104c-0.257,1.229-0.519,2.567-0.541,3.598c-0.885,1.367-1.492,2.838-1.492,2.838
		c-2.823,4.98-7.179,10.959-10.695,15.547c-0.001-0.002-1.074-1.412-1.787-0.305c-0.717,1.105-0.104,2.731-0.102,2.733
		c-2.924,2.992-9.222,7.413-3.242-1.024c7.745-10.931,11.128-13.363,5.94-14.479L91.8,27.711c0,0,6.17-6.052,2.226-8.255
		c-3.941-2.196-10.23,0.969-10.702,6.255c-0.341,3.772,2.229,4.588,2.229,4.588s-9.971,16.332-14.52,19.994
		c-0.897,0.721-1.034,0.72-1.493,0.722c-2.038-0.087,2.69-7.044,6.741-12.204c0.839-1.141,2.891-3.05,3.626-4.51
		c0.801-1.588,0.834-3.109-0.604-4.507c-1.641-1.586-6.904,5.968-12.58,12.08c-5.31,5.707-11.76,10.193-6.967,3.384
		c0.028-0.041,0.064-0.089,0.11-0.15c0.312-0.44,0.669-0.92,1.072-1.455c0.654-0.864,1.237-1.69,1.75-2.474
		c1.568-2.138,3.38-4.547,4.512-5.854c2.334-2.684-1.045-4.859-4.568-3.465c-0.646,0.109-1.39,0.351-2.227,0.736
		c-2.184,1.107-4.41,2.223-6.628,3.351c0.012-1.729-0.639-5.545-6.62-5.304c0,0,7.783-6.108,11.672-12.803
		c1.531-2.63,2.106-5.467,1.043-7.428c-0.477-1.443-0.805-2.929,0.001-4.932c0.806-2.006-1.191-1.665-2.197-0.271
		c-1.012,1.393-1.749,2.832-4.856,0.958c-3.107-1.872-2.516-0.044-5.646,0.604c-3.128,0.646-2.576-1.784-0.5-2.918
		c2.035-1.111,1.233-3.042,1.233-3.042c-1.729-1.976-3.082-0.099-3.553,2.757c-0.472,2.855-4.292,6.447-4.29,4.091
		c0.008-3.816-0.203-5.146-2.182-4.887c-2.153,0.814,0.633,2.651,1.305,5.232c0.723,2.78-2.61,5.297-4.866,6.649
		c-0.6,0.313-1.229,0.652-1.873,1.01c-0.025,0.014-0.059,0.022-0.059,0.022h0.017c-3.483,1.912-7.51,4.336-11.641,7.205l0.002-0.012
		c0,0-2.939,2.188-6.672,2.287c-1.24,0.03,0.296,2.477-2.736,1.705c-3.035-0.771-3.009,1.112-2.919,3.426
		c0.051,1.36-0.644,2.688-1.226,3.555c-1.487,1.15-3.173,2.232-4.552,2.537c-3.251,0.716-0.748,6.073-1.716,7.89
		c-0.966,1.813-1.485,6.021-0.126,8.602c1.272,2.42,2.714-1.101,5.902-5.166c0.004-0.01,0.011-0.018,0.017-0.024
		c0.193-0.251,0.398-0.499,0.608-0.753c5.867-7.248,15.633-18.414,23.463-22.991c-6.899,11.946-16.502,34.695-16.502,34.695h0.001
		c-1.752,3.727-2.35,6.893-0.195,9.65c0,0,2.373,2.562,3.281,1.12c0.645-1.025,1.798-4.363,1.798-4.363
		c1.762-5.515,5.146-14.628,10.664-21.24c-0.029,0.036-0.061,0.07-0.092,0.109c0.031-0.039,0.063-0.073,0.093-0.112
		c0,0-0.001,0-0.001,0.003c0.282-0.338,0.568-0.667,0.861-0.992c0.027-0.028,0.056-0.059,0.085-0.09
		c0.086-0.095,0.174-0.186,0.261-0.275c0.219-0.236,0.44-0.468,0.667-0.692c0.114-0.115,0.229-0.229,0.346-0.342
		c0.016-0.014,0.028-0.027,0.044-0.044c0.23-0.225,0.466-0.44,0.707-0.654c0.121-0.106,0.241-0.218,0.364-0.325
		c0.001-0.003,0.004-0.003,0.006-0.005c0-0.003,0-0.003,0-0.003c0.001,0.002,0.001,0.002,0.001,0.002
		c0.069-0.062,0.145-0.117,0.214-0.173c0.251-0.216,0.503-0.421,0.761-0.624c0.075-0.057,0.149-0.113,0.225-0.169
		c0.202-0.152,0.414-0.294,0.621-0.44c0.141-0.098,0.275-0.201,0.417-0.294c0.125-0.085,0.253-0.163,0.381-0.245
		c0.001,0,0.002,0,0.003,0c0.019-0.013,0.04-0.022,0.058-0.034c0.254-0.158,0.51-0.312,0.771-0.46
		c0.057-0.032,0.114-0.063,0.171-0.096c0.089-0.049,0.177-0.1,0.267-0.147c0.248-0.135,0.499-0.251,0.751-0.371
		c0.041-0.021,0.078-0.041,0.116-0.06l0,0c0.003-0.002,0.005-0.002,0.008-0.005c0.133-0.061,0.265-0.124,0.396-0.183
		c0.001,0,0.003-0.002,0.004-0.002l-0.002,0.002c0.37-0.161,0.747-0.307,1.127-0.444c0.059-0.021,0.114-0.048,0.172-0.068
		c0.396-0.209,0.795-0.392,1.195-0.562c-0.4,0.172-0.8,0.356-1.194,0.562c0.396-0.206,0.797-0.394,1.201-0.564
		c0.085-0.036,0.174-0.072,0.261-0.104c0.373-0.15,0.75-0.283,1.129-0.4c0.062-0.016,0.12-0.029,0.18-0.047l3.769-0.533H46.2h0.001
		h0.001c0.063,0.011,0.113,0.031,0.15,0.062c1.61,0.131,3.287,0.801,3.493,2.977C40.234,42.31,28.219,48.415,23.21,57.58
		c-1.323,2.554-1.78,4.494-1.711,5.981l0,0c0,0-0.448,6.021,6.289,5.591c5.216-0.333,9.632-2.546,14.483-7.95
		c1.651-1.762,2.712-3.208,2.712-3.208s0.098-0.123,0.271-0.354c1.209-1.623,6.147-8.596,7.932-16.143
		c1.841-1.377,4.3-2.788,5.082-3.104c0,0-1.607,2.538-2.943,4.463c-0.65,0.936-1.319,2.051-1.939,3.241
		c-1.752,3.384-3.079,7.426-2.24,9.959c0.704,1.478,1.899,1.808,3.189,1.586l0,0c0,0,3.396-0.259,8.316-5.625
		c-0.072,0.523-0.074,1.082,0.064,1.635c0,0,0.788,2.733,5.451,2.416C75.645,55.559,89.11,31.59,89.11,31.59
		s0.021-0.003,0.052-0.007c0.352-0.057,2.312-0.354,3.267-0.239c0.48,0.061,0.705,0.218,0.356,0.563
		c-0.318,0.308-1.445,1.614-2.888,3.43c-2.098,2.638-4.505,5.633-6.335,8.813l0,0c0,0-4.601,6.047-2.45,9.433
		c2.15,3.385,11.827-1.816,15.303-4.877l-0.002-0.002c0.001-0.001,0.002-0.001,0.003-0.002c0.848,1.13,1.716,2.014,2.58,2.663
		c4.479,3.943,8.653,2.078,10.964-1.346c0.808-0.764,1.544-1.509,2.188-2.211c0.521-0.576,0.993-1.121,1.415-1.635
		c0.585-0.709,1.064-1.344,1.467-1.9c-0.283,3.236-0.117,8.435,3.938,8.184c0.01,0,0.018-0.003,0.025-0.003
		c0.78,0.117,1.785,0.019,3.074-0.552c0.295-0.129,0.604-0.288,0.929-0.47c0.139-0.079,0.286-0.171,0.431-0.258
		c0.144-0.089,0.278-0.163,0.429-0.262l-0.013,0.001c0.976-0.638,1.952-1.441,2.894-2.314c-0.117,1.803,0.41,2.625,0.934,3.226
		c3.857,4.405,4.899-1.039,4.899-1.039c0.654-1.953,1.295-3.808,1.916-5.564c0.848,0.758,1.819,1.03,2.765,1.049l-0.006,0.004
		c0,0,0.018-0.002,0.029-0.002c0.14,0.002,0.274-0.005,0.412-0.011c0.865,0.02,2.595,0.376,1.272,3.087
		c-1.475,3.031,0.426,3.615,0.986,2.949c1.157-1.384-0.071-3.021,0.428-5.002c0.499-1.975,1.859-2.779,3.323-3.846
		c1.855,4.547,9.466,3.496,16.134-3.168c0.249,1.324,0.925,2.356,2.21,2.826c0.205,0.075,0.416,0.104,0.626,0.139
		c-1.947,0.242-4.087,0.674-6.424,1.403c-1.783,0.56-3.307,1.351-4.622,2.266c-5.353,3.706-6.771,9.6-3.522,12.159l-0.022,0.01
		c0,0,0.044,0.02,0.112,0.061c0.156,0.113,0.313,0.228,0.492,0.332c0.647,0.496,1.584,1.486,1.604,3.056
		c0.03,2.397-2.119,2.35-1.02,3.992c0.807,1.2,2.348,0.301,2.097-1.156c-0.25-1.455-1.228-4.438,1.149-5.017c0,0,0,0,0.003,0
		l0.005,0.002c1.555-0.135,3.471-0.791,5.12-2.175c0.029-0.032,0.067-0.058,0.098-0.087c0.089-0.076,0.181-0.162,0.271-0.246
		c0.108-0.102,0.223-0.209,0.33-0.308l-0.004,0.007c0,0,0.103-0.104,0.279-0.271c0.638-0.608,1.281-1.252,1.935-1.928
		c1.7-1.742,4.29-4.515,7.44-8.23c0.716-0.844,1.457-1.721,2.228-2.665c1.168,0.185,2.982,0.633,4.232,0.863
		c0.441,0.081,0.826,0.138,1.078,0.138c0.503,0.081,1.011-0.272-0.938-1.087c0,0-1.251-0.564-3.514-0.975
		c0.457-0.56,0.917-1.143,1.393-1.738c0.331,1.167,1.336,1.779,3.69,0.878c2.024-0.774,6.611-3.612,6.521-6.756
		c-0.087-3.151-2.506-0.891-2.506-0.891c-2.504,2.296-3.811,1.729-2.815,0.324c1.523-2.09,3.093-4.334,4.691-6.688
		c1.917-2.852,3.872-5.871,5.829-9.098c0.534-0.716,0.946-1.371,1.187-1.963c-0.001-0.004-0.001-0.006,0.001-0.011l-0.001,0.002
		C189.557,16.183,189.283,15.146,187.826,14.156z M43.21,27.984c-0.027,0.021-0.058,0.048-0.087,0.065
		c-0.642,0.458-1.265,0.896-1.872,1.308c-3.171,2.175-5.687,3.648-5.687,3.648l-0.439,0.271l-1.47,0.902
		c0,0,0.574-1.158,1.465-2.856c2.154-4.095,6.162-11.354,8.493-13.259c2.419-2.182,3.951-3.184,5.093-3.666
		c1.143-0.479,1.896-0.438,2.758-0.528c0.792-0.158,1.443-0.056,1.891,0.309h0.001c0.43,0.35,0.681,0.932,0.698,1.781
		c0.029,1.529-1.111,3.36-2.84,5.246C49.078,23.537,46.041,25.953,43.21,27.984z M38.218,59.143c-0.997,0.935-1.93,1.58-2.772,2.002
		c0,0-1.333,0.603-2.21,0.597c-0.096-0.003-0.197,0.002-0.289-0.011c-0.339-0.043-0.627-0.155-0.869-0.317
		c-0.651-0.443-0.935-1.294-0.711-2.406c0.029-0.138,0.064-0.279,0.108-0.432c0.085-0.288,0.207-0.599,0.359-0.918
		c0.538-1.123,1.496-2.396,2.954-3.722c5.537-5.028,9.34-7.628,11.354-8.848c1.111-0.676,1.688-0.937,1.688-0.937
		S44.479,53.271,38.218,59.143z M89.534,23.213l-1.473,2.422c-1.023-0.5-0.422-3.193,1.017-3.484
		C90.514,21.86,89.534,23.213,89.534,23.213z M165.769,11.857c0,0,3.369-3.401,3.629-2.217c0.119,0.531-0.54,1.845-1.433,3.314
		c-0.991-0.062-2.024-0.117-3.115-0.168C165.29,12.334,165.61,12.014,165.769,11.857z M99.948,44.114
		c-0.003,0,5.76-6.896,7.187-10.236c0,0,0.007,0.082,0.018,0.227c0.01,0.146,0.02,0.362,0.032,0.631
		C107.349,38.489,107.54,52.957,99.948,44.114z M111.82,43.689c-0.202-5.955-1.188-15.145-1.188-15.145s4.249-2.319,3.372-5.221
		c2.489-0.73,5.917-1.661,10.122-2.611c-0.291,0.51-0.468,0.822-0.468,0.822l-7.477,16.015
		C115.318,38.959,113.768,41.369,111.82,43.689z M129.044,30.315c-0.071,0.032-1.973,0.911-2.572,2.197
		c-0.609,1.313-0.458,4.868,0.985,4.135c0.005,0,0.008,0,0.013-0.007c1.358-0.713,2.911-1.463,4.662-2.201
		c-1.664,3.228-2.848,5.812-3.683,7.916c-1.534,1.672-3.088,2.68-4.082,3.308c-1.502,0.944-3.353,0.808-3.78-0.818l-0.006,0.008
		c0,0-0.127-0.221-0.085-0.951c0-0.05,0.004-0.1,0.009-0.146c0.011-0.158,0.037-0.345,0.065-0.545c0.01-0.052,0.017-0.1,0.022-0.151
		c0.422-2.579,2.352-8.669,9.819-22.441c0,0,0.311-0.562,0.742-1.342c3.252-0.604,6.794-1.173,10.577-1.652
		c-2.492,4.09-4.599,7.688-6.366,10.828C133.469,28.875,131.32,29.476,129.044,30.315z M146.931,29.961
		c-1.308,2.553-2.43,5.222-3.177,7.922c-0.24,0.855-0.384,1.631-0.448,2.353c-1.756,1.292-2.851,1.987-2.851,1.987
		c-0.555,0.39-1.064,0.646-1.549,0.805c-0.014,0.005-0.023,0.009-0.037,0.011c-1.83,0.586-2.351-0.4-2.406-1.558
		c-0.055-1.145,0.354-2.466,0.383-2.551c1.034-2.629,2.031-5.005,2.982-7.129c1.548-0.409,5.449-1.635,7.083-1.842
		c0.007-0.002,0.01-0.004,0.019-0.002C146.932,29.957,146.931,29.961,146.931,29.961L146.931,29.961z M142.903,27.405l0.002-0.006
		c0,0-0.373,0.008-1.033,0.055c2.302-4.627,4.289-7.785,5.893-9.941c0.157-0.211,0.309-0.406,0.459-0.6
		c2.583-0.236,5.25-0.427,7.992-0.552c-2.396,2.943-3.993,5.14-3.993,5.14c-1.293,1.744-2.578,3.649-3.759,5.66
		C146.721,27.148,144.822,27.241,142.903,27.405z M161.684,16.198c1.37-0.021,2.753-0.021,4.149-0.009
		c-1.035,1.483-1.896,2.624-1.896,2.624c-4.2,6.349-9.096,11.535-13.33,15.404C151.662,28.347,157.536,20.875,161.684,16.198z
		 M154.506,54.131c-0.639,0.502-1.397,0.865-2.015,0.943c-0.965,0.116-1.562-0.494-0.763-2.451c0.482-1.171,1.647-2.684,3.652-4.104
		c1.802-1.271,4.293-2.455,7.596-3.251C159.798,49.035,156.868,52.088,154.506,54.131z"/>
</g>
</svg>
